M48
;Layer_Color=9474304
;FILE_FORMAT=2:5
INCH,TZ
;TYPE=PLATED
T1F00S00C0.01200
T2F00S00C0.01968
T3F00S00C0.02800
T4F00S00C0.03000
T5F00S00C0.03937
T6F00S00C0.25000
%
T01
X151000Y149000
X155000Y153000
X166500Y152500
X171000Y153000
X174500Y151000
X188000Y153500
X190000Y147000
X198000Y128500
X193000Y115000
X189196Y116501
X178000Y119500
Y129000
X163000Y130000
X158500Y131000
Y125000
X164000Y168500
X169000Y168000
X171000Y172500
X178500Y173500
Y180000
X179000Y182500
Y191000
X180000Y194000
X184000Y199000
Y210000
X174500
X159000Y210500
X187016Y231300
X191500Y175500
X190000Y170000
X178000Y166500
X202923Y176309
X150000Y183500
X128500Y186000
X128000Y205000
X135000Y204500
X150500Y211500
X154500Y211000
Y220000
X150500Y158000
X143335Y156838
X133500Y165000
T02
X137000Y119287
Y138500
T03
X208000Y208000
Y218000
Y228000
Y238000
T04
X160500Y227000
X170500
X180500
Y237000
X170500
X160500
T05
X128433Y221579
Y231421
T06
X166000Y78000
Y270500
M30
