G04*
G04 #@! TF.GenerationSoftware,Altium Limited,Altium Designer,21.7.2 (23)*
G04*
G04 Layer_Color=32768*
%FSLAX25Y25*%
%MOIN*%
G70*
G04*
G04 #@! TF.SameCoordinates,CA949D71-B4BB-4DE7-8204-7DD0AF16861B*
G04*
G04*
G04 #@! TF.FilePolarity,Positive*
G04*
G01*
G75*
%ADD15C,0.00236*%
%ADD48C,0.00394*%
%ADD49C,0.00197*%
D15*
X155074Y200500D02*
X153762D01*
X153500Y200238D01*
Y199713D01*
X153762Y199451D01*
X155074D01*
X153500Y197876D02*
Y198926D01*
X154550Y197876D01*
X154812D01*
X155074Y198139D01*
Y198663D01*
X154812Y198926D01*
D48*
X192281Y162500D02*
X196021D01*
X194151Y160630D02*
Y164370D01*
X179130Y150500D02*
X182870D01*
X181000Y148630D02*
Y152370D01*
X166032Y127500D02*
X169969D01*
X168000Y125532D02*
Y129469D01*
X154500Y196032D02*
Y199969D01*
X152532Y198000D02*
X156469D01*
X129630Y176000D02*
X133370D01*
X131500Y174130D02*
Y177870D01*
X148000Y173630D02*
Y177370D01*
X146130Y175500D02*
X149870D01*
D49*
X189623Y160138D02*
Y164862D01*
X198678Y160138D02*
Y164862D01*
X189623D02*
X198678D01*
X189623Y160138D02*
X198678D01*
X176472Y148138D02*
Y152862D01*
X185528Y148138D02*
Y152862D01*
X176472D02*
X185528D01*
X176472Y148138D02*
X185528D01*
X148709Y108209D02*
Y146791D01*
X187291Y108209D02*
Y146791D01*
X148709D02*
X187291D01*
X148709Y108209D02*
X187291D01*
X148004Y204890D02*
X160996D01*
X148004Y191110D02*
X160996D01*
Y204890D01*
X148004Y191110D02*
Y204890D01*
X126972Y173638D02*
Y178362D01*
X136028Y173638D02*
Y178362D01*
X126972D02*
X136028D01*
X126972Y173638D02*
X136028D01*
X145638Y170972D02*
X150362D01*
X145638Y180028D02*
X150362D01*
X145638Y170972D02*
Y180028D01*
X150362Y170972D02*
Y180028D01*
M02*
