G04*
G04 #@! TF.GenerationSoftware,Altium Limited,Altium Designer,21.7.2 (23)*
G04*
G04 Layer_Color=65535*
%FSLAX25Y25*%
%MOIN*%
G70*
G04*
G04 #@! TF.SameCoordinates,CA949D71-B4BB-4DE7-8204-7DD0AF16861B*
G04*
G04*
G04 #@! TF.FilePolarity,Positive*
G04*
G01*
G75*
%ADD10C,0.00984*%
%ADD11C,0.02362*%
%ADD12C,0.01968*%
%ADD13C,0.00787*%
%ADD14C,0.01000*%
%ADD15C,0.00236*%
D10*
X152154Y141772D02*
X151415Y142198D01*
Y141346D01*
X152154Y141772D01*
X153938Y185516D02*
X153200Y185942D01*
Y185090D01*
X153938Y185516D01*
X161980Y203020D02*
X161242Y203446D01*
Y202593D01*
X161980Y203020D01*
X128925Y209276D02*
X128187Y209702D01*
Y208849D01*
X128925Y209276D01*
D11*
X161110Y135571D02*
X160666Y136494D01*
X159666Y136722D01*
X158865Y136083D01*
Y135058D01*
X159666Y134419D01*
X160666Y134648D01*
X161110Y135571D01*
D12*
X167156Y185221D02*
X166664Y186073D01*
X165679D01*
X165187Y185221D01*
X165679Y184368D01*
X166664D01*
X167156Y185221D01*
D13*
X142154Y161039D02*
Y168961D01*
X148846Y161039D02*
Y168961D01*
X190312Y188135D02*
X198234D01*
X190312Y194828D02*
X198234D01*
X190312Y186346D02*
X198234D01*
X190312Y179654D02*
X198234D01*
X155992Y115492D02*
Y139508D01*
X180008Y115492D02*
Y139508D01*
X155992D02*
X180008D01*
X155992Y115492D02*
X180008D01*
X163219Y159827D02*
Y188173D01*
Y159827D02*
X179932D01*
Y188173D01*
X163219D02*
X179932D01*
X160602Y196032D02*
Y199969D01*
X148398Y196032D02*
Y199969D01*
X160602D01*
X148398Y196032D02*
X160602D01*
X119181Y211933D02*
X141819D01*
Y241067D01*
X119181D02*
X141819D01*
X119181Y211933D02*
Y241067D01*
X191039Y116154D02*
X198961D01*
X191039Y122846D02*
X198961D01*
X191039Y107654D02*
X198961D01*
X191039Y114346D02*
X198961D01*
X195846Y126539D02*
Y134461D01*
X189154Y126539D02*
Y134461D01*
D14*
X206098Y294000D02*
X212096D01*
Y291001D01*
X211096Y290001D01*
X209097D01*
X208097Y291001D01*
Y294000D01*
Y292001D02*
X206098Y290001D01*
Y288002D02*
X212096D01*
Y285003D01*
X211096Y284003D01*
X209097D01*
X208097Y285003D01*
Y288002D01*
X212096Y282004D02*
X206098D01*
Y278005D01*
Y270008D02*
X212096D01*
Y267009D01*
X211096Y266009D01*
X209097D01*
X208097Y267009D01*
Y270008D01*
Y268008D02*
X206098Y266009D01*
X212096Y264010D02*
Y260011D01*
Y262010D01*
X206098D01*
X212096Y258012D02*
X206098D01*
Y255013D01*
X207097Y254013D01*
X211096D01*
X212096Y255013D01*
Y258012D01*
X202498Y294000D02*
X196500D01*
Y291001D01*
X197500Y290001D01*
X198499D01*
X199499Y291001D01*
Y294000D01*
Y291001D01*
X200499Y290001D01*
X201498D01*
X202498Y291001D01*
Y294000D01*
Y285003D02*
Y287002D01*
X201498Y288002D01*
X197500D01*
X196500Y287002D01*
Y285003D01*
X197500Y284003D01*
X201498D01*
X202498Y285003D01*
X196500Y282004D02*
X200499D01*
X202498Y280005D01*
X200499Y278005D01*
X196500D01*
X199499D01*
Y282004D01*
X196500Y276006D02*
X202498D01*
Y273007D01*
X201498Y272007D01*
X199499D01*
X198499Y273007D01*
Y276006D01*
Y274007D02*
X196500Y272007D01*
X202498Y270008D02*
X196500D01*
Y267009D01*
X197500Y266009D01*
X201498D01*
X202498Y267009D01*
Y270008D01*
X208962Y98500D02*
X213961D01*
X212295Y96834D01*
X213961Y95168D01*
X208962D01*
Y93502D02*
Y91835D01*
Y92669D01*
X212295D01*
Y93502D01*
X208962Y89336D02*
X212295D01*
Y86837D01*
X211461Y86004D01*
X208962D01*
X207296Y82672D02*
Y81839D01*
X208129Y81006D01*
X212295D01*
Y83505D01*
X211461Y84338D01*
X209795D01*
X208962Y83505D01*
Y81006D01*
X203896Y98500D02*
Y96834D01*
Y97667D01*
X198898D01*
Y98500D01*
Y96834D01*
X202230Y93502D02*
Y91835D01*
X201397Y91002D01*
X198898D01*
Y93502D01*
X199731Y94335D01*
X200564Y93502D01*
Y91002D01*
X198898Y89336D02*
X202230D01*
Y86837D01*
X201397Y86004D01*
X198898D01*
X194665Y95168D02*
X195498Y96001D01*
Y97667D01*
X194665Y98500D01*
X191333D01*
X190500Y97667D01*
Y96001D01*
X191333Y95168D01*
X193832Y92669D02*
Y91002D01*
X192999Y90169D01*
X190500D01*
Y92669D01*
X191333Y93502D01*
X192166Y92669D01*
Y90169D01*
X190500Y88503D02*
X193832D01*
Y86004D01*
X192999Y85171D01*
X190500D01*
Y83505D02*
X193832D01*
Y81006D01*
X192999Y80173D01*
X190500D01*
Y77673D02*
Y76007D01*
X191333Y75174D01*
X192999D01*
X193832Y76007D01*
Y77673D01*
X192999Y78506D01*
X191333D01*
X190500Y77673D01*
Y73508D02*
X193832D01*
Y71009D01*
X192999Y70176D01*
X190500D01*
D15*
X155074Y200500D02*
X153762D01*
X153500Y200238D01*
Y199713D01*
X153762Y199451D01*
X155074D01*
X153500Y197876D02*
Y198926D01*
X154550Y197876D01*
X154812D01*
X155074Y198139D01*
Y198663D01*
X154812Y198926D01*
M02*
