G04*
G04 #@! TF.GenerationSoftware,Altium Limited,Altium Designer,21.7.2 (23)*
G04*
G04 Layer_Color=16711935*
%FSLAX25Y25*%
%MOIN*%
G70*
G04*
G04 #@! TF.SameCoordinates,CA949D71-B4BB-4DE7-8204-7DD0AF16861B*
G04*
G04*
G04 #@! TF.FilePolarity,Negative*
G04*
G01*
G75*
%ADD15C,0.00236*%
%ADD28C,0.44500*%
%ADD29C,0.04737*%
%ADD30C,0.06102*%
%ADD31R,0.06102X0.06102*%
%ADD32C,0.06800*%
%ADD33C,0.03200*%
%ADD34C,0.05800*%
D15*
X155074Y200500D02*
X153762D01*
X153500Y200238D01*
Y199713D01*
X153762Y199451D01*
X155074D01*
X153500Y197876D02*
Y198926D01*
X154550Y197876D01*
X154812D01*
X155074Y198139D01*
Y198663D01*
X154812Y198926D01*
D28*
X166000Y78000D02*
D03*
Y270500D02*
D03*
D29*
X137000Y138500D02*
D03*
Y119287D02*
D03*
D30*
X128433Y231421D02*
D03*
D31*
Y221579D02*
D03*
D32*
X160500Y227000D02*
D03*
X170500D02*
D03*
X180500D02*
D03*
Y237000D02*
D03*
X170500D02*
D03*
X160500D02*
D03*
D33*
X143335Y156838D02*
D03*
X133500Y165000D02*
D03*
X154500Y220000D02*
D03*
Y211000D02*
D03*
X164000Y168500D02*
D03*
X180000Y194000D02*
D03*
X179000Y191000D02*
D03*
X178500Y180000D02*
D03*
X179000Y182500D02*
D03*
X178500Y173500D02*
D03*
X198000Y128500D02*
D03*
X193000Y115000D02*
D03*
X189196Y116501D02*
D03*
X158500Y131000D02*
D03*
X163000Y130000D02*
D03*
X178000Y129000D02*
D03*
Y166500D02*
D03*
X190000Y170000D02*
D03*
X128500Y186000D02*
D03*
X128000Y205000D02*
D03*
X187016Y231300D02*
D03*
X184000Y210000D02*
D03*
X191500Y175500D02*
D03*
X174500Y210000D02*
D03*
Y151000D02*
D03*
X171000Y172500D02*
D03*
X169000Y168000D02*
D03*
X171000Y153000D02*
D03*
X166500Y152500D02*
D03*
X150500Y211500D02*
D03*
X202923Y176309D02*
D03*
X190000Y147000D02*
D03*
X188000Y153500D02*
D03*
X155000Y153000D02*
D03*
X151000Y149000D02*
D03*
X184000Y199000D02*
D03*
X150000Y183500D02*
D03*
X159000Y210500D02*
D03*
X135000Y204500D02*
D03*
X178000Y119500D02*
D03*
X158500Y125000D02*
D03*
X150500Y158000D02*
D03*
D34*
X208000Y238000D02*
D03*
Y228000D02*
D03*
Y218000D02*
D03*
Y208000D02*
D03*
M02*
