G04*
G04 #@! TF.GenerationSoftware,Altium Limited,Altium Designer,21.7.2 (23)*
G04*
G04 Layer_Color=8388736*
%FSLAX25Y25*%
%MOIN*%
G70*
G04*
G04 #@! TF.SameCoordinates,CE555B22-796A-421F-9DDC-EB8CF6B467D4*
G04*
G04*
G04 #@! TF.FilePolarity,Negative*
G04*
G01*
G75*
%ADD14R,0.02987X0.03197*%
G04:AMPARAMS|DCode=19|XSize=58.36mil|YSize=16.46mil|CornerRadius=8.23mil|HoleSize=0mil|Usage=FLASHONLY|Rotation=0.000|XOffset=0mil|YOffset=0mil|HoleType=Round|Shape=RoundedRectangle|*
%AMROUNDEDRECTD19*
21,1,0.05836,0.00000,0,0,0.0*
21,1,0.04190,0.01646,0,0,0.0*
1,1,0.01646,0.02095,0.00000*
1,1,0.01646,-0.02095,0.00000*
1,1,0.01646,-0.02095,0.00000*
1,1,0.01646,0.02095,0.00000*
%
%ADD19ROUNDEDRECTD19*%
%ADD20R,0.05836X0.01646*%
%ADD26R,0.03197X0.02987*%
%ADD27R,0.03753X0.04147*%
%ADD28R,0.03005X0.02847*%
%ADD29O,0.06115X0.02965*%
%ADD30O,0.02965X0.06115*%
%ADD31R,0.03162X0.04737*%
%ADD32R,0.02375X0.02769*%
G04:AMPARAMS|DCode=33|XSize=29.65mil|YSize=39.5mil|CornerRadius=5.95mil|HoleSize=0mil|Usage=FLASHONLY|Rotation=0.000|XOffset=0mil|YOffset=0mil|HoleType=Round|Shape=RoundedRectangle|*
%AMROUNDEDRECTD33*
21,1,0.02965,0.02760,0,0,0.0*
21,1,0.01776,0.03950,0,0,0.0*
1,1,0.01190,0.00888,-0.01380*
1,1,0.01190,-0.00888,-0.01380*
1,1,0.01190,-0.00888,0.01380*
1,1,0.01190,0.00888,0.01380*
%
%ADD33ROUNDEDRECTD33*%
%ADD34R,0.04147X0.03753*%
%ADD35R,0.02847X0.03005*%
%ADD36C,0.04737*%
%ADD37C,0.06102*%
%ADD38R,0.06102X0.06102*%
%ADD39C,0.06800*%
%ADD40C,0.03200*%
%ADD41C,0.05800*%
D14*
X191806Y191481D02*
D03*
X196740D02*
D03*
Y183000D02*
D03*
X191806D02*
D03*
X194467Y200000D02*
D03*
X189533D02*
D03*
X192533Y119500D02*
D03*
X197467D02*
D03*
X192533Y111000D02*
D03*
X197467D02*
D03*
D19*
X184818Y185516D02*
D03*
Y182957D02*
D03*
Y180398D02*
D03*
Y177839D02*
D03*
Y175280D02*
D03*
Y172720D02*
D03*
Y170161D02*
D03*
Y167602D02*
D03*
Y165043D02*
D03*
Y162484D02*
D03*
X158332D02*
D03*
Y165043D02*
D03*
Y167602D02*
D03*
Y170161D02*
D03*
Y172720D02*
D03*
Y175280D02*
D03*
Y177839D02*
D03*
Y180398D02*
D03*
Y182957D02*
D03*
D20*
Y185516D02*
D03*
D26*
X192500Y128033D02*
D03*
Y132967D02*
D03*
X145500Y162533D02*
D03*
Y167467D02*
D03*
D27*
X191592Y162500D02*
D03*
X196710D02*
D03*
X178441Y150500D02*
D03*
X183559D02*
D03*
X207207Y183000D02*
D03*
X202089D02*
D03*
X128941Y176000D02*
D03*
X134059D02*
D03*
D28*
X192465Y168000D02*
D03*
X195535D02*
D03*
D29*
X151661Y138524D02*
D03*
Y135374D02*
D03*
Y132224D02*
D03*
Y129075D02*
D03*
Y125925D02*
D03*
Y122776D02*
D03*
Y119626D02*
D03*
Y116476D02*
D03*
X184339D02*
D03*
Y119626D02*
D03*
Y122776D02*
D03*
Y125925D02*
D03*
Y129075D02*
D03*
Y132224D02*
D03*
Y135374D02*
D03*
Y138524D02*
D03*
D30*
X156976Y111161D02*
D03*
X160126D02*
D03*
X163276D02*
D03*
X166425D02*
D03*
X169575D02*
D03*
X172724D02*
D03*
X175874D02*
D03*
X179024D02*
D03*
Y143839D02*
D03*
X175874D02*
D03*
X172724D02*
D03*
X169575D02*
D03*
X166425D02*
D03*
X163276D02*
D03*
X160126D02*
D03*
X156976D02*
D03*
D31*
X204353Y190551D02*
D03*
X211833D02*
D03*
X208093Y200000D02*
D03*
D32*
X132500Y190000D02*
D03*
X128366D02*
D03*
D33*
X158240Y203020D02*
D03*
X154500D02*
D03*
X150760D02*
D03*
Y192980D02*
D03*
X158240D02*
D03*
D34*
X148000Y172941D02*
D03*
Y178059D02*
D03*
D35*
X137500Y165035D02*
D03*
Y161965D02*
D03*
D36*
X137000Y138500D02*
D03*
Y119287D02*
D03*
D37*
X128433Y231421D02*
D03*
D38*
Y221579D02*
D03*
D39*
X160500Y227000D02*
D03*
X170500D02*
D03*
X180500D02*
D03*
Y237000D02*
D03*
X170500D02*
D03*
X160500D02*
D03*
D40*
X187016Y231300D02*
D03*
X184000Y210000D02*
D03*
X191500Y175500D02*
D03*
X177500Y173000D02*
D03*
Y167500D02*
D03*
X174500Y210000D02*
D03*
Y151000D02*
D03*
X171000Y172500D02*
D03*
X169000Y168000D02*
D03*
X164993Y167003D02*
D03*
X171000Y153000D02*
D03*
X166500Y152500D02*
D03*
X132500Y164500D02*
D03*
X150500Y211500D02*
D03*
X202923Y176309D02*
D03*
X190000Y147000D02*
D03*
X188000Y153500D02*
D03*
X155000Y153000D02*
D03*
X151000Y149000D02*
D03*
X178000Y129000D02*
D03*
X158000Y131500D02*
D03*
X184000Y199000D02*
D03*
X150000Y183500D02*
D03*
X128000Y205000D02*
D03*
X159000Y210500D02*
D03*
X135000Y204500D02*
D03*
X178000Y119500D02*
D03*
X158500Y125000D02*
D03*
X150500Y158000D02*
D03*
D41*
X208000Y238000D02*
D03*
Y228000D02*
D03*
Y218000D02*
D03*
Y208000D02*
D03*
M02*
