G04*
G04 #@! TF.GenerationSoftware,Altium Limited,Altium Designer,21.7.2 (23)*
G04*
G04 Layer_Color=32896*
%FSLAX25Y25*%
%MOIN*%
G70*
G04*
G04 #@! TF.SameCoordinates,73D3D296-878F-4BD7-B675-30F9F54128A0*
G04*
G04*
G04 #@! TF.FilePolarity,Positive*
G04*
G01*
G75*
%ADD13C,0.00787*%
%ADD51C,0.00394*%
%ADD52C,0.00197*%
D13*
X118787Y211539D02*
X142213D01*
Y241461D01*
X118787D02*
X142213D01*
X118787Y211539D02*
Y241461D01*
X155021Y188567D02*
X188130D01*
Y159433D02*
Y188567D01*
X155021Y159433D02*
X188130D01*
X155021D02*
Y188567D01*
X190645Y117335D02*
Y121665D01*
Y117335D02*
X199355D01*
Y121665D01*
X190645D02*
X199355D01*
X190645Y108835D02*
Y113165D01*
Y108835D02*
X199355D01*
Y113165D01*
X190645D02*
X199355D01*
X190335Y126145D02*
X194665D01*
Y134855D01*
X190335D02*
X194665D01*
X190335Y126145D02*
Y134855D01*
X143335Y160645D02*
Y169355D01*
X147665D01*
Y160645D02*
Y169355D01*
X143335Y160645D02*
X147665D01*
X198628Y180835D02*
Y185165D01*
X189918D02*
X198628D01*
X189918Y180835D02*
Y185165D01*
Y180835D02*
X198628D01*
X189918Y189316D02*
Y193647D01*
Y189316D02*
X198628D01*
Y193647D01*
X189918D02*
X198628D01*
D51*
X136417Y163500D02*
X138583D01*
X137500Y162417D02*
Y164583D01*
X192917Y168000D02*
X195083D01*
X194000Y166917D02*
Y169083D01*
D52*
X139075Y160350D02*
Y166650D01*
X135925Y160350D02*
Y166650D01*
X139075D01*
X135925Y160350D02*
X139075D01*
X197150Y166425D02*
Y169575D01*
X190850Y166425D02*
Y169575D01*
Y166425D02*
X197150D01*
X190850Y169575D02*
X197150D01*
M02*
