G04*
G04 #@! TF.GenerationSoftware,Altium Limited,Altium Designer,21.7.2 (23)*
G04*
G04 Layer_Color=8388736*
%FSLAX25Y25*%
%MOIN*%
G70*
G04*
G04 #@! TF.SameCoordinates,CE555B22-796A-421F-9DDC-EB8CF6B467D4*
G04*
G04*
G04 #@! TF.FilePolarity,Positive*
G04*
G01*
G75*
%ADD13C,0.00787*%
%ADD48C,0.00394*%
G36*
X173556Y175107D02*
Y175103D01*
Y175088D01*
Y175070D01*
Y175045D01*
X173552Y175012D01*
Y174976D01*
X173548Y174932D01*
X173545Y174888D01*
X173534Y174790D01*
X173519Y174688D01*
X173497Y174590D01*
X173483Y174542D01*
X173468Y174499D01*
Y174495D01*
X173465Y174488D01*
X173457Y174477D01*
X173450Y174462D01*
X173428Y174422D01*
X173395Y174371D01*
X173352Y174313D01*
X173301Y174255D01*
X173235Y174193D01*
X173155Y174138D01*
X173152D01*
X173144Y174131D01*
X173133Y174127D01*
X173115Y174116D01*
X173093Y174106D01*
X173064Y174095D01*
X173035Y174084D01*
X172999Y174069D01*
X172959Y174055D01*
X172915Y174044D01*
X172868Y174033D01*
X172813Y174022D01*
X172758Y174014D01*
X172700Y174007D01*
X172569Y174000D01*
X172536D01*
X172511Y174004D01*
X172482D01*
X172445Y174007D01*
X172405Y174011D01*
X172365Y174014D01*
X172274Y174029D01*
X172176Y174051D01*
X172081Y174080D01*
X171990Y174120D01*
X171987D01*
X171979Y174127D01*
X171968Y174135D01*
X171954Y174142D01*
X171914Y174171D01*
X171867Y174211D01*
X171812Y174262D01*
X171761Y174320D01*
X171710Y174393D01*
X171670Y174473D01*
Y174477D01*
X171666Y174484D01*
X171663Y174499D01*
X171655Y174517D01*
X171648Y174539D01*
X171641Y174568D01*
X171630Y174601D01*
X171623Y174641D01*
X171615Y174684D01*
X171605Y174732D01*
X171597Y174783D01*
X171590Y174837D01*
X171583Y174899D01*
X171579Y174965D01*
X171575Y175034D01*
Y175107D01*
Y176562D01*
X171910D01*
Y175107D01*
Y175103D01*
Y175092D01*
Y175074D01*
Y175052D01*
X171914Y175026D01*
Y174994D01*
X171917Y174925D01*
X171925Y174844D01*
X171936Y174764D01*
X171950Y174688D01*
X171958Y174655D01*
X171968Y174622D01*
X171972Y174615D01*
X171979Y174597D01*
X171998Y174571D01*
X172019Y174535D01*
X172045Y174499D01*
X172081Y174459D01*
X172125Y174419D01*
X172176Y174386D01*
X172183Y174382D01*
X172201Y174371D01*
X172234Y174360D01*
X172278Y174346D01*
X172329Y174328D01*
X172394Y174317D01*
X172464Y174306D01*
X172540Y174302D01*
X172576D01*
X172598Y174306D01*
X172631D01*
X172664Y174309D01*
X172744Y174324D01*
X172831Y174342D01*
X172915Y174371D01*
X172995Y174411D01*
X173031Y174437D01*
X173064Y174466D01*
X173068Y174469D01*
X173071Y174473D01*
X173079Y174484D01*
X173090Y174499D01*
X173100Y174521D01*
X173115Y174542D01*
X173130Y174575D01*
X173144Y174608D01*
X173159Y174648D01*
X173170Y174695D01*
X173184Y174750D01*
X173195Y174808D01*
X173206Y174874D01*
X173213Y174943D01*
X173221Y175023D01*
Y175107D01*
Y176562D01*
X173556D01*
Y175107D01*
D02*
G37*
G36*
X175150Y174044D02*
X174840D01*
Y176013D01*
X174837Y176009D01*
X174819Y175995D01*
X174797Y175973D01*
X174760Y175947D01*
X174720Y175915D01*
X174669Y175878D01*
X174611Y175838D01*
X174546Y175798D01*
X174542D01*
X174538Y175794D01*
X174516Y175780D01*
X174480Y175762D01*
X174436Y175740D01*
X174385Y175714D01*
X174331Y175689D01*
X174276Y175663D01*
X174222Y175642D01*
Y175940D01*
X174225D01*
X174233Y175947D01*
X174247Y175951D01*
X174265Y175962D01*
X174287Y175973D01*
X174313Y175987D01*
X174374Y176024D01*
X174447Y176064D01*
X174520Y176115D01*
X174597Y176173D01*
X174673Y176235D01*
X174677Y176239D01*
X174680Y176242D01*
X174691Y176253D01*
X174706Y176264D01*
X174739Y176300D01*
X174782Y176344D01*
X174826Y176395D01*
X174873Y176453D01*
X174913Y176512D01*
X174950Y176573D01*
X175150D01*
Y174044D01*
D02*
G37*
G36*
X130456Y228262D02*
X130453D01*
X130438D01*
X130416D01*
X130387Y228265D01*
X130354Y228269D01*
X130318Y228276D01*
X130282Y228284D01*
X130242Y228298D01*
X130238D01*
X130234Y228302D01*
X130212Y228309D01*
X130180Y228324D01*
X130136Y228345D01*
X130085Y228375D01*
X130027Y228411D01*
X129969Y228451D01*
X129907Y228502D01*
X129903D01*
X129899Y228509D01*
X129878Y228527D01*
X129845Y228560D01*
X129797Y228608D01*
X129743Y228662D01*
X129677Y228731D01*
X129605Y228815D01*
X129528Y228906D01*
X129525Y228910D01*
X129514Y228924D01*
X129495Y228946D01*
X129474Y228972D01*
X129444Y229004D01*
X129412Y229044D01*
X129375Y229084D01*
X129335Y229132D01*
X129248Y229223D01*
X129160Y229314D01*
X129117Y229357D01*
X129073Y229397D01*
X129033Y229434D01*
X128993Y229463D01*
X128989D01*
X128986Y229470D01*
X128975Y229478D01*
X128960Y229485D01*
X128920Y229510D01*
X128873Y229539D01*
X128815Y229565D01*
X128753Y229590D01*
X128684Y229605D01*
X128618Y229612D01*
X128614D01*
X128611D01*
X128589Y229608D01*
X128553Y229605D01*
X128513Y229594D01*
X128462Y229579D01*
X128411Y229554D01*
X128360Y229521D01*
X128309Y229478D01*
X128302Y229470D01*
X128287Y229452D01*
X128269Y229427D01*
X128243Y229386D01*
X128221Y229335D01*
X128200Y229277D01*
X128185Y229208D01*
X128181Y229132D01*
Y229110D01*
X128185Y229095D01*
X128189Y229052D01*
X128200Y229001D01*
X128214Y228946D01*
X128240Y228884D01*
X128272Y228826D01*
X128316Y228771D01*
X128323Y228764D01*
X128341Y228749D01*
X128371Y228728D01*
X128414Y228706D01*
X128465Y228680D01*
X128531Y228659D01*
X128604Y228644D01*
X128687Y228637D01*
X128655Y228320D01*
X128651D01*
X128640Y228324D01*
X128622D01*
X128596Y228327D01*
X128567Y228334D01*
X128534Y228342D01*
X128494Y228353D01*
X128454Y228364D01*
X128367Y228393D01*
X128280Y228436D01*
X128236Y228462D01*
X128192Y228495D01*
X128152Y228527D01*
X128116Y228564D01*
X128112Y228568D01*
X128109Y228575D01*
X128098Y228586D01*
X128087Y228604D01*
X128072Y228626D01*
X128058Y228651D01*
X128039Y228680D01*
X128021Y228717D01*
X128003Y228757D01*
X127985Y228800D01*
X127970Y228848D01*
X127956Y228899D01*
X127945Y228953D01*
X127934Y229012D01*
X127930Y229073D01*
X127927Y229139D01*
Y229175D01*
X127930Y229201D01*
X127934Y229230D01*
X127937Y229266D01*
X127945Y229306D01*
X127952Y229346D01*
X127978Y229441D01*
X128014Y229536D01*
X128036Y229583D01*
X128061Y229630D01*
X128094Y229674D01*
X128130Y229714D01*
X128134Y229718D01*
X128138Y229725D01*
X128152Y229732D01*
X128167Y229747D01*
X128185Y229765D01*
X128210Y229783D01*
X128236Y229801D01*
X128269Y229823D01*
X128338Y229860D01*
X128425Y229896D01*
X128469Y229911D01*
X128520Y229918D01*
X128571Y229925D01*
X128625Y229929D01*
X128633D01*
X128651D01*
X128680Y229925D01*
X128720Y229922D01*
X128764Y229914D01*
X128815Y229900D01*
X128869Y229885D01*
X128924Y229863D01*
X128931Y229860D01*
X128949Y229852D01*
X128979Y229838D01*
X129019Y229816D01*
X129062Y229787D01*
X129117Y229750D01*
X129171Y229707D01*
X129233Y229656D01*
X129241Y229648D01*
X129262Y229630D01*
X129281Y229612D01*
X129299Y229594D01*
X129321Y229572D01*
X129350Y229543D01*
X129379Y229514D01*
X129412Y229478D01*
X129448Y229441D01*
X129488Y229397D01*
X129528Y229350D01*
X129576Y229299D01*
X129623Y229241D01*
X129674Y229183D01*
X129677Y229179D01*
X129685Y229172D01*
X129696Y229157D01*
X129710Y229139D01*
X129732Y229117D01*
X129754Y229092D01*
X129801Y229033D01*
X129856Y228972D01*
X129910Y228913D01*
X129958Y228862D01*
X129976Y228840D01*
X129994Y228822D01*
X129998Y228819D01*
X130009Y228808D01*
X130023Y228793D01*
X130045Y228775D01*
X130070Y228757D01*
X130096Y228735D01*
X130158Y228691D01*
Y229932D01*
X130456D01*
Y228262D01*
D02*
G37*
G36*
X129736Y227883D02*
X129765D01*
X129834Y227876D01*
X129914Y227869D01*
X129998Y227854D01*
X130074Y227832D01*
X130147Y227807D01*
X130151D01*
X130154Y227803D01*
X130176Y227792D01*
X130205Y227774D01*
X130245Y227748D01*
X130285Y227712D01*
X130329Y227672D01*
X130373Y227621D01*
X130409Y227563D01*
X130413Y227555D01*
X130424Y227534D01*
X130438Y227501D01*
X130453Y227454D01*
X130471Y227395D01*
X130485Y227330D01*
X130496Y227257D01*
X130500Y227177D01*
Y227144D01*
X130496Y227122D01*
X130493Y227093D01*
X130489Y227064D01*
X130474Y226988D01*
X130453Y226908D01*
X130420Y226824D01*
X130398Y226780D01*
X130373Y226740D01*
X130343Y226704D01*
X130311Y226667D01*
X130307Y226664D01*
X130304Y226660D01*
X130289Y226653D01*
X130274Y226642D01*
X130256Y226627D01*
X130231Y226613D01*
X130201Y226598D01*
X130169Y226580D01*
X130132Y226566D01*
X130089Y226551D01*
X130045Y226536D01*
X129994Y226522D01*
X129939Y226515D01*
X129878Y226504D01*
X129816Y226500D01*
X129747D01*
X129703Y226802D01*
X129707D01*
X129714D01*
X129728D01*
X129750Y226806D01*
X129772Y226809D01*
X129797D01*
X129859Y226820D01*
X129925Y226831D01*
X129990Y226853D01*
X130049Y226875D01*
X130074Y226889D01*
X130096Y226908D01*
X130100Y226911D01*
X130111Y226926D01*
X130129Y226948D01*
X130147Y226977D01*
X130169Y227017D01*
X130183Y227061D01*
X130198Y227115D01*
X130201Y227173D01*
Y227195D01*
X130198Y227217D01*
X130194Y227250D01*
X130187Y227283D01*
X130180Y227319D01*
X130165Y227355D01*
X130147Y227392D01*
X130143Y227395D01*
X130136Y227406D01*
X130122Y227421D01*
X130107Y227443D01*
X130081Y227461D01*
X130056Y227483D01*
X130027Y227501D01*
X129990Y227516D01*
X129987D01*
X129972Y227523D01*
X129947Y227526D01*
X129914Y227534D01*
X129870Y227541D01*
X129816Y227545D01*
X129750Y227552D01*
X129674D01*
X127937D01*
Y227887D01*
X129656D01*
X129659D01*
X129670D01*
X129685D01*
X129707D01*
X129736Y227883D01*
D02*
G37*
D13*
X189918Y193647D02*
X198628D01*
Y189316D02*
Y193647D01*
X189918Y189316D02*
X198628D01*
X189918D02*
Y193647D01*
Y180835D02*
X198628D01*
X189918D02*
Y185165D01*
X198628D01*
Y180835D02*
Y185165D01*
X187645Y197835D02*
X196355D01*
X187645D02*
Y202165D01*
X196355D01*
Y197835D02*
Y202165D01*
X155021Y159433D02*
Y188567D01*
Y159433D02*
X188130D01*
Y188567D01*
X155021D02*
X188130D01*
X118787Y211539D02*
X142213D01*
Y241461D01*
X118787D02*
X142213D01*
X118787Y211539D02*
Y241461D01*
X190645Y121665D02*
X199355D01*
Y117335D02*
Y121665D01*
X190645Y117335D02*
X199355D01*
X190645D02*
Y121665D01*
Y113165D02*
X199355D01*
Y108835D02*
Y113165D01*
X190645Y108835D02*
X199355D01*
X190645D02*
Y113165D01*
X190335Y126145D02*
Y134855D01*
X194665D01*
Y126145D02*
Y134855D01*
X190335Y126145D02*
X194665D01*
X143335Y160645D02*
Y169355D01*
X147665D01*
Y160645D02*
Y169355D01*
X143335Y160645D02*
X147665D01*
D48*
X191933Y169083D02*
X196067D01*
X191933Y166917D02*
X196067D01*
X191933D02*
Y169083D01*
X196067Y166917D02*
Y169083D01*
X138583Y161433D02*
Y165567D01*
X136417Y161433D02*
Y165567D01*
X138583D01*
X136417Y161433D02*
X138583D01*
M02*
