G04*
G04 #@! TF.GenerationSoftware,Altium Limited,Altium Designer,21.7.2 (23)*
G04*
G04 Layer_Physical_Order=1*
G04 Layer_Color=255*
%FSLAX25Y25*%
%MOIN*%
G70*
G04*
G04 #@! TF.SameCoordinates,CE555B22-796A-421F-9DDC-EB8CF6B467D4*
G04*
G04*
G04 #@! TF.FilePolarity,Positive*
G04*
G01*
G75*
%ADD14R,0.02987X0.03197*%
%ADD15R,0.02953X0.03347*%
%ADD16R,0.02205X0.02047*%
%ADD17O,0.05315X0.02165*%
%ADD18O,0.02165X0.05315*%
G04:AMPARAMS|DCode=19|XSize=58.36mil|YSize=16.46mil|CornerRadius=8.23mil|HoleSize=0mil|Usage=FLASHONLY|Rotation=0.000|XOffset=0mil|YOffset=0mil|HoleType=Round|Shape=RoundedRectangle|*
%AMROUNDEDRECTD19*
21,1,0.05836,0.00000,0,0,0.0*
21,1,0.04190,0.01646,0,0,0.0*
1,1,0.01646,0.02095,0.00000*
1,1,0.01646,-0.02095,0.00000*
1,1,0.01646,-0.02095,0.00000*
1,1,0.01646,0.02095,0.00000*
%
%ADD19ROUNDEDRECTD19*%
%ADD20R,0.05836X0.01646*%
%ADD21R,0.02362X0.03937*%
%ADD22R,0.01575X0.01968*%
G04:AMPARAMS|DCode=23|XSize=21.65mil|YSize=31.5mil|CornerRadius=1.95mil|HoleSize=0mil|Usage=FLASHONLY|Rotation=0.000|XOffset=0mil|YOffset=0mil|HoleType=Round|Shape=RoundedRectangle|*
%AMROUNDEDRECTD23*
21,1,0.02165,0.02760,0,0,0.0*
21,1,0.01776,0.03150,0,0,0.0*
1,1,0.00390,0.00888,-0.01380*
1,1,0.00390,-0.00888,-0.01380*
1,1,0.00390,-0.00888,0.01380*
1,1,0.00390,0.00888,0.01380*
%
%ADD23ROUNDEDRECTD23*%
%ADD24R,0.03347X0.02953*%
%ADD25R,0.02047X0.02205*%
%ADD26R,0.03197X0.02987*%
%ADD37C,0.06102*%
%ADD38R,0.06102X0.06102*%
%ADD42C,0.01000*%
%ADD43C,0.03937*%
%ADD44C,0.06000*%
%ADD45C,0.02400*%
%ADD46C,0.05000*%
D14*
X191806Y191481D02*
D03*
X196740D02*
D03*
Y183000D02*
D03*
X191806D02*
D03*
X194467Y200000D02*
D03*
X189533D02*
D03*
X192533Y119500D02*
D03*
X197467D02*
D03*
X192533Y111000D02*
D03*
X197467D02*
D03*
D15*
X191592Y162500D02*
D03*
X196710D02*
D03*
X178441Y150500D02*
D03*
X183559D02*
D03*
X207207Y183000D02*
D03*
X202089D02*
D03*
X128941Y176000D02*
D03*
X134059D02*
D03*
D16*
X192465Y168000D02*
D03*
X195535D02*
D03*
D17*
X151661Y138524D02*
D03*
Y135374D02*
D03*
Y132224D02*
D03*
Y129075D02*
D03*
Y125925D02*
D03*
Y122776D02*
D03*
Y119626D02*
D03*
Y116476D02*
D03*
X184339D02*
D03*
Y119626D02*
D03*
Y122776D02*
D03*
Y125925D02*
D03*
Y129075D02*
D03*
Y132224D02*
D03*
Y135374D02*
D03*
Y138524D02*
D03*
D18*
X156976Y111161D02*
D03*
X160126D02*
D03*
X163276D02*
D03*
X166425D02*
D03*
X169575D02*
D03*
X172724D02*
D03*
X175874D02*
D03*
X179024D02*
D03*
Y143839D02*
D03*
X175874D02*
D03*
X172724D02*
D03*
X169575D02*
D03*
X166425D02*
D03*
X163276D02*
D03*
X160126D02*
D03*
X156976D02*
D03*
D19*
X184818Y185516D02*
D03*
Y182957D02*
D03*
Y180398D02*
D03*
Y177839D02*
D03*
Y175280D02*
D03*
Y172720D02*
D03*
Y170161D02*
D03*
Y167602D02*
D03*
Y165043D02*
D03*
Y162484D02*
D03*
X158332D02*
D03*
Y165043D02*
D03*
Y167602D02*
D03*
Y170161D02*
D03*
Y172720D02*
D03*
Y175280D02*
D03*
Y177839D02*
D03*
Y180398D02*
D03*
Y182957D02*
D03*
D20*
Y185516D02*
D03*
D21*
X204353Y190551D02*
D03*
X211833D02*
D03*
X208093Y200000D02*
D03*
D22*
X132500Y190000D02*
D03*
X128366D02*
D03*
D23*
X158240Y203020D02*
D03*
X154500D02*
D03*
X150760D02*
D03*
Y192980D02*
D03*
X158240D02*
D03*
D24*
X148000Y172941D02*
D03*
Y178059D02*
D03*
D25*
X137500Y165035D02*
D03*
Y161965D02*
D03*
D26*
X192500Y128033D02*
D03*
Y132967D02*
D03*
X145500Y162533D02*
D03*
Y167467D02*
D03*
D37*
X128433Y231421D02*
D03*
D38*
Y221579D02*
D03*
D42*
X137500Y161965D02*
X137000Y160758D01*
X177747Y167602D02*
X177500Y167500D01*
X166431Y166706D02*
X164993Y167003D01*
X172728Y167500D02*
X172022Y167209D01*
X171012Y166199D02*
X170990Y166175D01*
X166834Y166388D02*
X167523Y165740D01*
X168392Y165369D01*
X169336Y165321D01*
X170239Y165601D01*
X170990Y166175D01*
X166834Y166388D02*
X166431Y166706D01*
X174024Y237000D02*
X174730Y237291D01*
X176399Y238960D02*
X176561Y239177D01*
X184595Y238865D02*
X184087Y239718D01*
X183404Y240438D01*
X182580Y240990D01*
X181655Y241349D01*
X180674Y241497D01*
X179684Y241425D01*
X178735Y241139D01*
X177870Y240652D01*
X177134Y239987D01*
X176561Y239177D01*
X187016Y232342D02*
X186965Y233355D01*
X186811Y234358D01*
X186556Y235341D01*
X186203Y236292D01*
X185755Y237203D01*
X185217Y238064D01*
X184595Y238865D01*
X198708Y169791D02*
X197981Y170450D01*
X197193Y171035D01*
X196351Y171540D01*
X195464Y171959D01*
X194540Y172290D01*
X193588Y172528D01*
X192618Y172672D01*
X191638Y172720D01*
X187150Y172969D02*
X186915Y172914D01*
X188294Y173385D02*
X189167Y173784D01*
X189994Y174269D01*
X190768Y174837D01*
X191480Y175479D01*
X187150Y172969D02*
X188143Y173309D01*
X188294Y173385D02*
X188143Y173309D01*
X183003Y175280D02*
X181988Y175213D01*
X180989Y175014D01*
X180025Y174687D01*
X179112Y174237D01*
X178265Y173671D01*
X177500Y173000D01*
X177520Y170200D02*
X177468Y170200D01*
X174218Y170161D02*
X174230Y170161D01*
X176481Y232981D02*
X176190Y232276D01*
X176156Y228176D02*
X176190Y228428D01*
X175815Y226200D02*
X175250Y225284D01*
X174837Y224290D01*
X174585Y223244D01*
X174500Y222172D01*
X176156Y228176D02*
X176004Y226822D01*
X175815Y226200D02*
X176004Y226822D01*
X178399Y150399D02*
X178441Y150500D01*
X177234Y151000D01*
X208000Y204000D02*
X209065Y204144D01*
X185636Y180260D02*
X185046Y180398D01*
X206999Y204127D02*
X206876Y204151D01*
X188475Y201058D02*
X188539Y201000D01*
X186905Y175516D02*
X187915Y175743D01*
X188726Y176385D01*
X189177Y177317D01*
X189179Y178352D01*
X188731Y179285D01*
X187923Y179931D01*
X186914Y180161D01*
X180481Y177839D02*
X179501Y177790D01*
X178530Y177647D01*
X177578Y177408D01*
X176654Y177077D01*
X175767Y176658D01*
X174925Y176153D01*
X174137Y175569D01*
X173410Y174910D01*
X166344Y148663D02*
X165891Y148139D01*
X167628Y149706D02*
X167895Y149895D01*
X174218Y170161D02*
X173255Y170098D01*
X172308Y169910D01*
X171394Y169600D01*
X170528Y169173D01*
X169726Y168637D01*
X169000Y168000D01*
X167628Y149706D02*
X166798Y149117D01*
X163777Y145634D02*
X163403Y144771D01*
X163276Y143839D01*
X163777Y145634D02*
X163897Y145941D01*
X165467Y147812D02*
X165891Y148139D01*
X165467Y147812D02*
X164745Y147375D01*
X164202Y146728D01*
X163897Y145941D01*
X183559Y152236D02*
X183457Y153274D01*
X183154Y154273D01*
X182662Y155193D01*
X182000Y156000D01*
X167755Y147246D02*
X167755Y147246D01*
X168923Y148000D02*
X168218Y147709D01*
X167755Y147246D02*
X167250Y146538D01*
X167008Y145703D01*
X161743Y147743D02*
X161057Y146907D01*
X160546Y145952D01*
X160232Y144916D01*
X160126Y143839D01*
X160276Y165043D02*
X160674Y165126D01*
X166854Y145277D02*
X167008Y145703D01*
X162142Y156000D02*
X161162Y155952D01*
X160191Y155808D01*
X159239Y155569D01*
X158315Y155239D01*
X157428Y154819D01*
X156586Y154315D01*
X155798Y153730D01*
X155071Y153071D01*
X166854Y145277D02*
X166535Y144589D01*
X166425Y143839D01*
X136937Y165598D02*
X136976Y165562D01*
X133793Y165035D02*
X132500Y164500D01*
X139663Y172177D02*
X140094Y171104D01*
X139500Y173152D02*
X139650Y172215D01*
X164113Y162484D02*
X163407Y162193D01*
X141816Y167325D02*
X141704Y167599D01*
X160427Y160161D02*
X161400Y160375D01*
X162194Y160976D01*
X162240Y161026D02*
X162194Y160976D01*
X206999Y204127D02*
X207464Y204036D01*
X211833Y198867D02*
X211762Y199928D01*
X211550Y200971D01*
X211201Y201976D01*
X210721Y202926D01*
X210119Y203804D01*
X185636Y180260D02*
X186064Y180161D01*
X210119Y203804D02*
X209065Y204144D01*
X186905Y175516D02*
X186500Y175428D01*
X202923Y180986D02*
X202707Y182076D01*
X202089Y183000D01*
X153146Y150698D02*
X153238Y150607D01*
X148947Y140841D02*
X149500Y141731D01*
X148947Y140841D02*
X148147Y140229D01*
X147642Y139357D01*
X147509Y138359D01*
X147768Y137385D01*
X144760Y159240D02*
X144752Y159248D01*
X198970Y194414D02*
X199097Y194307D01*
X199734Y193080D02*
X199097Y194307D01*
X206088Y184120D02*
X206231Y184003D01*
X199771Y191606D02*
X200175Y190559D01*
X200748Y189592D01*
X201473Y188735D01*
X199734Y191873D02*
X199771Y191606D01*
X204891Y185376D02*
X204268Y185998D01*
X204891Y185376D02*
X205060Y185147D01*
X204040Y186167D02*
X204268Y185998D01*
X184000Y219358D02*
X183952Y220338D01*
X183808Y221309D01*
X183569Y222261D01*
X183239Y223185D01*
X182819Y224072D01*
X182315Y224914D01*
X181730Y225702D01*
X181071Y226429D01*
X157175Y201875D02*
X157078Y201519D01*
X159331Y201929D02*
X160058Y201270D01*
X160846Y200685D01*
X161688Y200181D01*
X162575Y199761D01*
X163499Y199431D01*
X164451Y199192D01*
X165422Y199048D01*
X166402Y199000D01*
X179473Y139720D02*
X178947Y139447D01*
X194482Y165471D02*
X194767Y165724D01*
X181895Y142895D02*
X181606Y142217D01*
X179781Y139795D02*
X180719Y140315D01*
X181364Y141172D01*
X181606Y142217D01*
X198566Y159376D02*
X199374Y159910D01*
X199686Y160827D01*
X198566Y159376D02*
X198120Y159120D01*
X179781Y139795D02*
X179772Y139792D01*
X179473Y139720D02*
X179689Y139765D01*
X184818Y180398D02*
X184923Y180651D01*
X158974Y183193D02*
X158332Y182957D01*
X150000Y183500D02*
X151312Y182957D01*
X162750Y186339D02*
X162311Y187399D01*
X161250Y187839D01*
Y183193D02*
X162311Y183632D01*
X162750Y184693D01*
X158240Y189013D02*
X158531Y188307D01*
X158709Y188130D02*
X159414Y187839D01*
X147769Y133363D02*
X147507Y132357D01*
X147664Y131328D01*
X148214Y130446D01*
X149068Y129851D01*
X150087Y129642D01*
X151428Y129319D02*
X150697Y129642D01*
X151428Y129319D02*
X151639Y129097D01*
X151654Y129081D02*
X151639Y129097D01*
X150080Y128930D02*
X150198Y129075D01*
X149385Y128411D02*
X149810Y128661D01*
X137567Y167933D02*
X138276Y167638D01*
X140024Y164914D02*
X140318Y164206D01*
X156685Y147315D02*
X156667Y147333D01*
X156976Y146609D02*
X156685Y147315D01*
X147769Y133363D02*
X147768Y134236D01*
X147768Y136512D02*
X147504Y135374D01*
X147768Y134236D01*
X147768Y136512D02*
Y137385D01*
X154049Y126623D02*
X154946Y127139D01*
X155568Y127964D01*
X155817Y128968D01*
X155652Y129989D01*
X155100Y130863D01*
X154249Y131450D01*
X153236Y131658D01*
X152228Y131747D02*
X152643Y131658D01*
X151661Y125925D02*
X152801Y126081D01*
X153858Y126535D01*
X154049Y126623D02*
X153858Y126535D01*
X184339Y119626D02*
X185271Y119681D01*
X186190Y119845D01*
X187083Y120116D01*
X187939Y120490D01*
X188745Y120961D01*
X189489Y121525D01*
X184034Y119500D02*
X184339Y119626D01*
X186754Y120333D02*
X187641Y120856D01*
X188254Y121684D01*
X188495Y122685D01*
X188325Y123701D01*
X187771Y124570D01*
X186923Y125153D01*
X185913Y125358D01*
X184339Y119626D02*
X185496Y119784D01*
X186569Y120247D01*
X184906Y125448D02*
X185320Y125358D01*
X186754Y120333D02*
X186569Y120247D01*
X201686Y164173D02*
X201540Y165173D01*
X201500Y165450D02*
X201540Y165173D01*
X201540Y159827D02*
X201500Y159550D01*
Y123874D02*
X201711Y123264D01*
X202461Y121099D02*
X202268Y122245D01*
X201711Y123264D01*
X198961Y105901D02*
X200043Y106073D01*
X201018Y106570D01*
X201793Y107344D01*
X202290Y108320D01*
X202461Y109401D01*
X195030Y106030D02*
X195895Y105901D01*
X194226Y106369D02*
X193736Y106500D01*
X194226Y106369D02*
X194958Y106052D01*
X189500Y107173D02*
X189452Y108153D01*
X189308Y109124D01*
X189069Y110076D01*
X188739Y111000D01*
X188319Y111887D01*
X187815Y112729D01*
X187230Y113517D01*
X186571Y114244D01*
X201540Y159827D02*
X201686Y160827D01*
X153429Y229929D02*
X152770Y229202D01*
X152185Y228414D01*
X151681Y227572D01*
X151261Y226685D01*
X150931Y225761D01*
X150692Y224809D01*
X150548Y223838D01*
X150500Y222858D01*
X175493Y105935D02*
X175397Y105851D01*
X125429Y202429D02*
X124770Y201702D01*
X124185Y200914D01*
X123681Y200072D01*
X123261Y199185D01*
X122931Y198261D01*
X122692Y197309D01*
X122548Y196338D01*
X122500Y195358D01*
X122377Y194042D02*
X122500Y194518D01*
X122377Y194042D02*
X122096Y193338D01*
X122000Y192586D01*
X171632Y102500D02*
X172337Y102791D01*
X122500Y107181D02*
X122458Y107464D01*
X121995Y178251D02*
X122000Y178346D01*
X121995Y178251D02*
X121965Y177673D01*
Y174327D02*
X121995Y173750D01*
X122000Y173654D02*
X121995Y173750D01*
X122000Y110522D02*
X122052Y109489D01*
X122205Y108466D01*
X122458Y107464D01*
X178585Y109673D02*
X178437Y109265D01*
X178585Y109673D02*
X178912Y110385D01*
X179024Y111161D01*
X176833Y107188D02*
X177607Y107672D01*
X178165Y108394D01*
X178437Y109265D01*
X175493Y105935D02*
X176409Y106861D01*
X176833Y107188D02*
X176409Y106861D01*
X152902Y104500D02*
X153608Y104791D01*
X124000Y110531D02*
X124054Y109576D01*
X124215Y108633D01*
X124480Y107714D01*
X124846Y106830D01*
X125309Y105993D01*
X125863Y105213D01*
X126500Y104500D01*
X156487Y107051D02*
X155596Y106779D01*
X171895Y107141D02*
X171583Y107192D01*
X171895Y107141D02*
X172891Y107009D01*
X173863Y107268D01*
X174662Y107879D01*
X175167Y108748D01*
X168745Y107141D02*
X168434Y107192D01*
X170716D02*
X170399Y107139D01*
X168745Y107141D02*
X169572Y107004D01*
X170399Y107139D01*
X167566Y107192D02*
X167250Y107139D01*
X165596Y107141D02*
X166423Y107004D01*
X167250Y107139D01*
X165596Y107141D02*
X165284Y107192D01*
X162446Y107141D02*
X162134Y107192D01*
X164417D02*
X164100Y107139D01*
X162446Y107141D02*
X163273Y107004D01*
X164100Y107139D01*
X161267Y107192D02*
X160951Y107139D01*
X161929Y218429D02*
X161270Y217702D01*
X160685Y216914D01*
X160181Y216072D01*
X159761Y215185D01*
X159431Y214261D01*
X159192Y213309D01*
X159048Y212338D01*
X159000Y211358D01*
X135000Y204500D02*
X135853Y204853D01*
X124291Y193291D02*
X124000Y192586D01*
X123993Y178115D02*
X124000Y178232D01*
X123993Y178115D02*
X123965Y177673D01*
X159297Y107141D02*
X160124Y107004D01*
X160951Y107139D01*
X159297Y107141D02*
X158985Y107192D01*
X158118D02*
X157801Y107139D01*
X156487Y107051D02*
X157801Y107139D01*
X124000Y173768D02*
X123993Y173885D01*
X123965Y174327D02*
X123993Y173885D01*
X139500Y206369D02*
X139452Y207350D01*
X139308Y208320D01*
X139069Y209272D01*
X138739Y210196D01*
X138319Y211083D01*
X137815Y211925D01*
X137230Y212713D01*
X136571Y213440D01*
X141500Y206369D02*
X141455Y207413D01*
X141319Y208449D01*
X141093Y209469D01*
X140779Y210465D01*
X140381Y211430D01*
X139899Y212357D01*
X139339Y213239D01*
X138704Y214069D01*
X138000Y214840D01*
X141552Y172834D02*
X141886Y171994D01*
X142295Y171188D01*
X142774Y170423D01*
X143321Y169703D01*
X143931Y169036D01*
X132984Y220270D02*
X133275Y219565D01*
X141500Y173147D02*
X141552Y172834D01*
X175252Y108930D02*
X175167Y108748D01*
X175252Y108930D02*
X175716Y110003D01*
X175874Y111161D01*
X153130Y122776D02*
X154121Y122841D01*
X155095Y123034D01*
X156036Y123354D01*
X156927Y123793D01*
X157753Y124345D01*
X158500Y125000D01*
X149867Y123276D02*
X150730Y122903D01*
X151661Y122776D01*
X154984Y119626D02*
X155964Y119674D01*
X156935Y119818D01*
X157887Y120057D01*
X158811Y120387D01*
X159698Y120807D01*
X160540Y121311D01*
X161328Y121896D01*
X162055Y122555D01*
X149867Y123276D02*
X149555Y123398D01*
X149385Y128411D02*
X148513Y127973D01*
X147866Y127244D01*
X147535Y126327D01*
X147568Y125352D01*
X147960Y124459D01*
X148655Y123775D01*
X149555Y123398D01*
X188665Y159000D02*
X189095Y159097D01*
X189945Y159336D02*
X189406Y159245D01*
X189945Y159336D02*
X190115Y159327D01*
X195372Y121761D02*
X194819Y122372D01*
X194026Y122599D01*
X196470Y120591D02*
X196474Y120587D01*
X191039Y122599D02*
X190268Y122385D01*
X189716Y121806D01*
X194563Y160353D02*
X194393Y160124D01*
X193068Y159327D02*
X193842Y159541D01*
X194393Y160124D01*
X182414Y159000D02*
X181709Y158709D01*
X180586Y158000D02*
X181291Y158291D01*
X195535Y166673D02*
X195828Y165966D01*
X196535Y165673D01*
X193833Y164710D02*
X193513Y164421D01*
X193908Y164876D02*
X193833Y164710D01*
X194243Y165299D02*
X193908Y164876D01*
X194720Y165857D02*
X194655Y165785D01*
X194243Y165299D02*
X194353Y165414D01*
X199686Y164173D02*
X199247Y165234D01*
X198186Y165673D01*
X191505Y167602D02*
X192465Y168000D01*
X145826Y167602D02*
X145500Y167467D01*
X148015Y165413D02*
X148742Y164754D01*
X149531Y164170D01*
X150372Y163665D01*
X151259Y163245D01*
X152183Y162915D01*
X153135Y162676D01*
X154106Y162532D01*
X155086Y162484D01*
X139650Y172215D02*
X139653Y172204D01*
X155908Y160185D02*
X156237Y160161D01*
X139653Y172204D02*
X139663Y172177D01*
X158332Y177839D02*
X157800Y178059D01*
X158332Y172720D02*
X157800Y172941D01*
X142401Y161708D02*
X142110Y162413D01*
X142401Y161039D02*
X142841Y159978D01*
X143901Y159539D01*
X144752Y159248D02*
X144047Y159539D01*
X140024Y166138D02*
X139584Y167198D01*
X138524Y167638D01*
X134089Y174816D02*
X134217Y173813D01*
X134446Y172827D01*
X134774Y171870D01*
X135196Y170951D01*
X135710Y170080D01*
X136308Y169264D01*
X136986Y168514D01*
X142492Y165459D02*
X143242Y164627D01*
X143670Y164362D02*
X143414Y164542D01*
X131861Y226177D02*
X132133Y225982D01*
X128433Y230019D02*
X128725Y229314D01*
X132984Y224630D02*
X132754Y225429D01*
X132133Y225982D01*
X129571Y176630D02*
X130230Y177357D01*
X130815Y178145D01*
X131319Y178987D01*
X131739Y179874D01*
X132069Y180798D01*
X132308Y181750D01*
X132452Y182721D01*
X132500Y183701D01*
X126574Y188208D02*
X126283Y187502D01*
X126157Y178409D02*
X125965Y177673D01*
X126157Y178409D02*
X126283Y178889D01*
X125965Y174327D02*
X126404Y173266D01*
X127465Y172827D01*
X128678Y172756D02*
X128313Y172827D01*
X131963Y170573D02*
X131227Y171239D01*
X130429Y171828D01*
X129577Y172335D01*
X128679Y172756D01*
X131970Y170565D02*
X131963Y170573D01*
X192500Y128033D02*
X191763Y128598D01*
X190905Y128954D01*
X189984Y129075D01*
X193611Y109922D02*
X193526Y109996D01*
X193612Y109921D02*
X193611Y109922D01*
X200461Y121099D02*
X200022Y122159D01*
X198961Y122599D01*
X197641Y122892D02*
X198348Y122599D01*
X198961Y107901D02*
X200022Y108341D01*
X200461Y109401D01*
X194583Y108839D02*
X195539Y107966D01*
X195610Y107944D02*
X195895Y107901D01*
X194583Y108839D02*
X194362Y109170D01*
X195372Y121761D02*
X195555Y121506D01*
X189489Y121525D02*
X189716Y121806D01*
X150844Y119287D02*
X151661Y119626D01*
X139329Y116476D02*
X138811Y116329D01*
X135582Y122453D02*
X134717Y121899D01*
X134052Y121116D01*
X133646Y120172D01*
X133534Y119151D01*
X133726Y118142D01*
X134205Y117233D01*
X134930Y116505D01*
X135836Y116020D01*
X136844Y115822D01*
X137865Y115928D01*
X138811Y116329D01*
X136074Y122940D02*
X136476Y123946D01*
X136766Y124990D01*
X136941Y126060D01*
X137000Y127142D01*
X135582Y122453D02*
X136074Y122940D01*
X207464Y204036D02*
X207726Y204000D01*
X206815Y204158D02*
X205977Y203876D01*
X196938Y202737D02*
X195961Y203099D01*
X204187Y202500D02*
X204892Y202791D01*
X196938Y202737D02*
X197580Y202500D01*
X192974Y203099D02*
X192135Y202842D01*
X191583Y202161D01*
X191368Y201835D02*
X191583Y202161D01*
X207282Y199189D02*
X206623Y198462D01*
X206038Y197673D01*
X205534Y196832D01*
X205114Y195944D01*
X204784Y195020D01*
X204545Y194069D01*
X204401Y193098D01*
X204353Y192118D01*
X189533Y196969D02*
X189599Y195957D01*
X189797Y194961D01*
X190123Y193999D01*
X190572Y193089D01*
X191137Y192245D01*
X191806Y191481D01*
X186468Y203065D02*
X186460Y203073D01*
X186460Y203073D02*
X185733Y203731D01*
X184945Y204316D01*
X184103Y204820D01*
X183216Y205239D01*
X182292Y205570D01*
X181341Y205808D01*
X180370Y205952D01*
X179391Y206000D01*
X159576Y206034D02*
X159128Y206094D01*
X159576Y206034D02*
X159831Y206000D01*
X157352Y206094D02*
X156540Y205887D01*
X155927Y205316D01*
X155662Y204521D01*
X155565Y204164D02*
X155662Y204521D01*
X155388Y199945D02*
X156200Y200152D01*
X156814Y200724D01*
X157078Y201519D01*
X151917Y201640D02*
X152144Y200792D01*
X152765Y200172D01*
X153612Y199945D01*
X151917Y202018D02*
X151556Y202783D01*
X157429Y223929D02*
X156770Y223202D01*
X156185Y222414D01*
X155681Y221572D01*
X155261Y220685D01*
X154931Y219761D01*
X154692Y218809D01*
X154548Y217838D01*
X154500Y216858D01*
X137000Y138500D02*
Y160758D01*
X164113Y162484D02*
X184818D01*
X184818Y162484D01*
Y165043D01*
X177747Y167602D02*
X184818D01*
X160674Y165126D02*
X164993Y167003D01*
X172728Y167500D02*
X177500D01*
X171012Y166199D02*
X172022Y167209D01*
X171012Y166199D02*
X171012Y166199D01*
X170500Y237000D02*
X174024D01*
X174730Y237291D02*
X176399Y238960D01*
X174730Y237291D02*
X174730Y237291D01*
X187016Y231300D02*
Y232342D01*
X184818Y172720D02*
X191638D01*
X186914Y172720D02*
X186915Y172914D01*
X191480Y175479D02*
X191500Y175500D01*
X184000Y210000D02*
Y219358D01*
X184818Y172720D02*
X186914Y172720D01*
X183003Y175280D02*
X184818D01*
Y167602D02*
X191505D01*
X174230Y170161D02*
X177468Y170200D01*
X182723Y170161D02*
X184818Y170161D01*
X177520Y170200D02*
X182723Y170161D01*
X176481Y232981D02*
X180500Y237000D01*
X176481Y232981D02*
X176481Y232981D01*
X176190Y228428D02*
Y232276D01*
Y228428D02*
Y228428D01*
X174500Y210000D02*
Y222172D01*
Y151000D02*
X177234D01*
X176000Y148000D02*
X178399Y150399D01*
X159831Y206000D02*
X179391D01*
X186905Y175516D02*
Y175516D01*
X209065Y204144D02*
X209065Y204144D01*
X180481Y177839D02*
X184818D01*
X171000Y172500D02*
X173410Y174910D01*
X166344Y148663D02*
X166798Y149117D01*
X167895Y149895D02*
X171000Y153000D01*
X167895Y149895D02*
X167895Y149895D01*
X150500Y158000D02*
X180586D01*
X162142Y156000D02*
X182000D01*
X168923Y148000D02*
X176000D01*
X167755Y147246D02*
X168218Y147709D01*
X167755Y147246D02*
X167755Y147246D01*
X161743Y147743D02*
X166500Y152500D01*
X183559Y150697D02*
Y152236D01*
X155000Y153000D02*
X155071Y153071D01*
X136976Y165562D02*
Y165562D01*
Y165638D01*
X133793Y165035D02*
X137500D01*
X158332Y165043D02*
X160276D01*
X140094Y171104D02*
X141704Y167599D01*
X139500Y173152D02*
X139500Y206369D01*
X141816Y167325D02*
X142492Y165459D01*
X162240Y161026D02*
X163407Y162193D01*
X162240Y161026D02*
X162240Y161026D01*
X150500Y211500D02*
Y222858D01*
X207726Y204000D02*
X208000D01*
X186500Y175280D02*
Y175428D01*
X186064Y180161D02*
X186064D01*
X189442Y200091D02*
X189450Y200098D01*
X186064Y180161D02*
X186914D01*
X188539Y201099D02*
X189442Y200091D01*
X186468Y203065D02*
X188475Y201058D01*
X184818Y180398D02*
X185046Y180398D01*
X154500Y203020D02*
Y216858D01*
X185046Y180398D02*
Y180398D01*
X188539Y201000D02*
Y201099D01*
X206815Y204158D02*
X206876Y204151D01*
X202923Y176309D02*
Y180986D01*
X190000Y147000D02*
X192500Y144500D01*
Y132967D02*
Y144500D01*
X183559Y150697D02*
X186094Y153232D01*
X187732D02*
X188000Y153500D01*
X186094Y153232D02*
X187732D01*
X151000Y143231D02*
Y149000D01*
X149500Y141731D02*
X151000Y143231D01*
X144760Y159240D02*
X153146Y150698D01*
X153238Y150607D02*
X156667Y147333D01*
X184301Y129037D02*
X184339Y129075D01*
X178037Y129037D02*
X184301D01*
X178000Y129000D02*
X178037Y129037D01*
X152228Y132224D02*
X156897D01*
X157621Y131500D02*
X158000D01*
X156897Y132224D02*
X157621Y131500D01*
X194990Y198394D02*
X198970Y194414D01*
X206231Y184003D02*
Y184173D01*
X201473Y188735D02*
X204040Y186167D01*
X199734Y191873D02*
Y193080D01*
Y191873D02*
Y191873D01*
X199771Y191606D02*
X199771Y191606D01*
X194467Y200000D02*
X194990Y198901D01*
Y198394D02*
Y198901D01*
X205060Y185147D02*
X206088Y184120D01*
X206231Y184173D02*
X207207Y183000D01*
X166402Y199000D02*
X184000D01*
X157175Y201875D02*
X157658Y201945D01*
X158240Y203020D02*
X159331Y201929D01*
X181895Y142895D02*
X198120Y159120D01*
X162055Y122555D02*
X178947Y139447D01*
X179473Y139720D02*
Y139720D01*
X179781Y139795D02*
Y139795D01*
X181895Y142895D02*
X181895Y142895D01*
X184923Y180651D02*
Y183000D01*
X184818Y175280D02*
X186500Y175280D01*
X184923Y183000D02*
X191806D01*
X158974Y183193D02*
X161250D01*
X158332Y182957D02*
Y182957D01*
Y180398D02*
Y182957D01*
Y182957D01*
X158332D02*
X158332D01*
X151312D02*
X158332D01*
X148000Y178059D02*
X157800D01*
X159414Y187839D02*
X161250D01*
X162750Y184693D02*
Y186339D01*
X158531Y188307D02*
X158709Y188130D01*
X158240Y189013D02*
Y192980D01*
X151654Y129081D02*
Y129081D01*
Y129075D02*
Y129081D01*
X150080Y128930D02*
X150080Y128930D01*
X149810Y128661D02*
X150080Y128930D01*
X149810Y128661D02*
X149810Y128661D01*
X151654Y129075D02*
X151661D01*
X150198D02*
X151654D01*
X150087Y129642D02*
X150697D01*
X140318Y164206D02*
X142110Y162413D01*
X136986Y168514D02*
X137567Y167933D01*
X156976Y143839D02*
Y146609D01*
X151654Y129075D02*
X151661Y129075D01*
X184339Y129075D02*
X189984D01*
X152643Y131658D02*
X153236D01*
X152228Y131747D02*
Y132224D01*
X151661D02*
X152228D01*
X178000Y119500D02*
X184034D01*
X185320Y125358D02*
X185913D01*
X184906Y125448D02*
Y125925D01*
Y125448D02*
Y125448D01*
X184339Y125925D02*
X184906D01*
X201686Y160827D02*
Y164173D01*
X201500Y165450D02*
Y167000D01*
Y165450D02*
Y165450D01*
X202461Y109401D02*
Y121099D01*
X201500Y123874D02*
Y159550D01*
Y123874D02*
Y123874D01*
X198708Y169791D02*
X201500Y167000D01*
X198961Y105901D02*
X198961D01*
X195895Y105901D02*
X198961Y105901D01*
X194958Y106052D02*
X195030Y106030D01*
X184339Y116476D02*
X186571Y114244D01*
X189500Y106500D02*
X193736D01*
X189500D02*
Y107173D01*
X153429Y229929D02*
X160500Y237000D01*
X125429Y202429D02*
X128000Y205000D01*
X122500Y194518D02*
Y195358D01*
Y194518D02*
Y194518D01*
X172337Y102791D02*
X175397Y105851D01*
X172337Y102791D02*
X172337Y102791D01*
X122500Y102500D02*
X171632D01*
X122500D02*
Y107181D01*
X122000Y178346D02*
Y192586D01*
Y178346D02*
Y178346D01*
X121965Y174327D02*
Y177673D01*
X122000Y110522D02*
Y173654D01*
X126500Y104500D02*
X152902D01*
X153608Y104791D02*
X155596Y106779D01*
X153608Y104791D02*
X153608Y104791D01*
X124000Y110531D02*
Y173768D01*
X135853Y204853D02*
X135853Y204853D01*
X124291Y193291D02*
X135853Y204853D01*
X170399Y107139D02*
Y107139D01*
X170716Y107192D02*
X171583D01*
X170716D02*
X170716D01*
X167566D02*
X168434D01*
X167566D02*
X167566D01*
X167250Y107139D02*
Y107139D01*
X164100Y107139D02*
Y107139D01*
X164417Y107192D02*
X165284D01*
X164417D02*
X164417D01*
X161267D02*
X162134D01*
X161267D02*
X161267D01*
X160951Y107139D02*
Y107139D01*
X161929Y218429D02*
X170500Y227000D01*
X159000Y210500D02*
Y211358D01*
X124291Y193291D02*
X124291Y193291D01*
X124000Y178232D02*
Y192586D01*
Y178232D02*
Y178232D01*
X157801Y107139D02*
Y107139D01*
X158118Y107192D02*
X158985D01*
X158118D02*
X158118D01*
X123965Y174327D02*
Y177673D01*
X141500Y173147D02*
Y206369D01*
X133275Y219565D02*
X138000Y214840D01*
X128433Y221579D02*
X136571Y213440D01*
X141552Y172834D02*
X141552Y172834D01*
X141500Y173147D02*
Y173147D01*
X151661Y122776D02*
X153130D01*
X196740Y183000D02*
X202089D01*
X182414Y159000D02*
X188665D01*
X189095Y159097D02*
X189406Y159245D01*
X190115Y159327D02*
X193068D01*
X151661Y119626D02*
X154984D01*
X196474Y118401D02*
Y120587D01*
X191039Y122599D02*
X194026D01*
X194563Y160353D02*
X194563Y160353D01*
X181291Y158291D02*
X181709Y158709D01*
X181291Y158291D02*
X181291Y158291D01*
X194563Y160353D02*
X196710Y162500D01*
X196535Y165673D02*
X198186D01*
X192733Y163642D02*
X193513Y164421D01*
X194720Y165857D02*
X195535Y166673D01*
X194720Y165857D02*
X194720Y165857D01*
X194353Y165414D02*
X194655Y165785D01*
X191592Y162500D02*
X192568Y163642D01*
X192733D01*
X199686Y160827D02*
Y164173D01*
X179689Y139765D02*
X179772Y139792D01*
X145826Y167602D02*
X158332D01*
X144401Y168461D02*
X145500Y167467D01*
X145826Y167602D02*
X148015Y165413D01*
X155086Y162484D02*
X158332D01*
X145500Y162533D02*
X146599Y161539D01*
X155908Y160185D01*
X139650Y172215D02*
X139650Y172215D01*
X143931Y169036D02*
X144391Y168576D01*
X158332Y175280D02*
Y177839D01*
Y170161D02*
Y172720D01*
X148000Y172941D02*
X157800D01*
X142401Y161039D02*
Y161708D01*
X143901Y159539D02*
X144047D01*
X140024Y164914D02*
Y166138D01*
X138276Y167638D02*
X138524D01*
X134089Y174816D02*
Y174827D01*
X143242Y164627D02*
X143414Y164542D01*
X134059Y176000D02*
X134089Y174827D01*
X139663Y172177D02*
X139663Y172177D01*
X143670Y164362D02*
X143676Y164357D01*
X144421Y163612D01*
X128433Y230019D02*
Y231421D01*
X128725Y229314D02*
X131861Y226177D01*
X132984Y220270D02*
Y224630D01*
X144391Y168576D02*
X144401Y168461D01*
X144421Y163526D02*
X145500Y162533D01*
X144421Y163526D02*
Y163612D01*
X132500Y183701D02*
Y190000D01*
X128941Y176000D02*
X129571Y176630D01*
X156237Y160161D02*
X160427D01*
X126574Y188208D02*
X127949Y189583D01*
X126574Y188208D02*
X126574Y188208D01*
X126283Y178889D02*
Y187502D01*
Y178889D02*
Y178889D01*
X125965Y174327D02*
Y177673D01*
X127465Y172827D02*
X128313D01*
X128678Y172756D02*
X128679Y172756D01*
X131963Y170573D02*
X131963Y170573D01*
X128079Y189691D02*
X128366Y190000D01*
X136976Y165638D02*
X137500Y165035D01*
X127949Y189583D02*
X128079Y189691D01*
X131970Y170565D02*
X136937Y165598D01*
X193548Y126985D02*
X197641Y122892D01*
X192500Y128033D02*
X193548Y127039D01*
X192500Y128033D02*
X192500Y128033D01*
X193612Y109921D02*
X194362Y109170D01*
X193611Y109922D02*
X193612Y109921D01*
X193526Y109996D02*
Y112099D01*
X192533Y111000D02*
Y119500D01*
X198348Y122599D02*
X198961D01*
X200461Y109401D02*
Y121099D01*
X195895Y107901D02*
X198961D01*
X195895D02*
X195895D01*
X195539Y107966D02*
X195610Y107944D01*
X192533Y111000D02*
X193526Y112099D01*
X193548Y126985D02*
Y127039D01*
X197467Y111000D02*
Y119500D01*
X196474Y118401D02*
X197467Y119500D01*
X195555Y121506D02*
X196470Y120591D01*
X137000Y119287D02*
X150844D01*
X138811Y116329D02*
Y116329D01*
X139329Y116476D02*
X151661D01*
X139329D02*
X139329D01*
X137000Y127142D02*
Y138500D01*
X207726Y204000D02*
X207726D01*
X207464Y204036D02*
Y204036D01*
X192974Y203099D02*
X195961D01*
X204892Y202791D02*
X205977Y203876D01*
X204892Y202791D02*
X204892Y202791D01*
X197580Y202500D02*
X204187D01*
X197580D02*
X197580D01*
X211833Y190551D02*
Y198867D01*
X190611Y201078D02*
X191368Y201835D01*
X189533Y196969D02*
Y200000D01*
X189450Y200098D02*
X190526Y201004D01*
X190611Y201078D01*
X207282Y199189D02*
X208093Y200000D01*
X204353Y190551D02*
Y192118D01*
X194467Y200000D02*
X208093D01*
X196740Y183000D02*
Y191481D01*
X191806Y183000D02*
Y191481D01*
X186460Y203073D02*
X186460Y203073D01*
X157352Y206094D02*
X159128D01*
X155083Y204094D02*
X155565Y204164D01*
X154500Y203020D02*
X155083Y204094D01*
X189442Y200091D02*
X189533Y200000D01*
X153612Y199945D02*
X155388D01*
X151556Y202783D02*
X151556D01*
X151342D02*
X151556D01*
X151917Y201640D02*
Y202018D01*
X150760Y203020D02*
X151342Y202783D01*
X157658Y201945D02*
X158240Y203020D01*
X157429Y223929D02*
X160500Y227000D01*
D43*
X137000Y138500D02*
D03*
Y119287D02*
D03*
D44*
X160500Y227000D02*
D03*
X170500D02*
D03*
X180500D02*
D03*
Y237000D02*
D03*
X170500D02*
D03*
X160500D02*
D03*
D45*
X187016Y231300D02*
D03*
X184000Y210000D02*
D03*
X191500Y175500D02*
D03*
X177500Y173000D02*
D03*
Y167500D02*
D03*
X174500Y210000D02*
D03*
Y151000D02*
D03*
X171000Y172500D02*
D03*
X169000Y168000D02*
D03*
X164993Y167003D02*
D03*
X171000Y153000D02*
D03*
X166500Y152500D02*
D03*
X132500Y164500D02*
D03*
X150500Y211500D02*
D03*
X202923Y176309D02*
D03*
X190000Y147000D02*
D03*
X188000Y153500D02*
D03*
X155000Y153000D02*
D03*
X151000Y149000D02*
D03*
X178000Y129000D02*
D03*
X158000Y131500D02*
D03*
X184000Y199000D02*
D03*
X150000Y183500D02*
D03*
X128000Y205000D02*
D03*
X159000Y210500D02*
D03*
X135000Y204500D02*
D03*
X178000Y119500D02*
D03*
X158500Y125000D02*
D03*
X150500Y158000D02*
D03*
D46*
X208000Y238000D02*
D03*
Y228000D02*
D03*
Y218000D02*
D03*
Y208000D02*
D03*
M02*
