G04*
G04 #@! TF.GenerationSoftware,Altium Limited,Altium Designer,21.7.2 (23)*
G04*
G04 Layer_Color=16711935*
%FSLAX25Y25*%
%MOIN*%
G70*
G04*
G04 #@! TF.SameCoordinates,CE555B22-796A-421F-9DDC-EB8CF6B467D4*
G04*
G04*
G04 #@! TF.FilePolarity,Positive*
G04*
G01*
G75*
%ADD42C,0.01000*%
%ADD48C,0.00394*%
D42*
X127157Y106256D02*
X146843D01*
X127157Y151532D02*
X146843D01*
X127157Y106256D02*
Y151532D01*
X146843Y106256D02*
Y151532D01*
D48*
X159732Y137736D02*
X159469Y138721D01*
X158748Y139441D01*
X157764Y139705D01*
X156780Y139441D01*
X156059Y138721D01*
X155795Y137736D01*
X156059Y136752D01*
X156780Y136031D01*
X157764Y135768D01*
X158748Y136031D01*
X159469Y136752D01*
X159732Y137736D01*
X190706Y160630D02*
Y164370D01*
X197596Y160630D02*
Y164370D01*
X190706D02*
X197596D01*
X190706Y160630D02*
X197596D01*
X177555Y148630D02*
Y152370D01*
X184445Y148630D02*
Y152370D01*
X177555D02*
X184445D01*
X177555Y148630D02*
X184445D01*
X154220Y113720D02*
Y141280D01*
X181780Y113720D02*
Y141280D01*
X154220D02*
X181780D01*
X154220Y113720D02*
X181780D01*
X202109Y192520D02*
X214077D01*
X202109Y198031D02*
X214077D01*
X202109Y192520D02*
Y198031D01*
X214077Y192520D02*
Y198031D01*
X208093Y181130D02*
Y184870D01*
X201203Y181130D02*
Y184870D01*
Y181130D02*
X208093D01*
X201203Y184870D02*
X208093D01*
X148496Y201445D02*
X160504D01*
X148496Y194555D02*
X160504D01*
Y201445D01*
X148496Y194555D02*
Y201445D01*
X128055Y174130D02*
Y177870D01*
X134945Y174130D02*
Y177870D01*
X128055D02*
X134945D01*
X128055Y174130D02*
X134945D01*
X146130Y172055D02*
X149870D01*
X146130Y178945D02*
X149870D01*
X146130Y172055D02*
Y178945D01*
X149870Y172055D02*
Y178945D01*
M02*
