G04*
G04 #@! TF.GenerationSoftware,Altium Limited,Altium Designer,21.7.2 (23)*
G04*
G04 Layer_Physical_Order=2*
G04 Layer_Color=16711680*
%FSLAX25Y25*%
%MOIN*%
G70*
G04*
G04 #@! TF.SameCoordinates,0C8D6FB2-2837-4D30-9AF1-B001FA4779AC*
G04*
G04*
G04 #@! TF.FilePolarity,Positive*
G04*
G01*
G75*
%ADD15C,0.01000*%
%ADD38C,0.06102*%
%ADD39R,0.06102X0.06102*%
%ADD44C,0.06000*%
%ADD45C,0.43700*%
%ADD46C,0.02000*%
%ADD47C,0.02400*%
G36*
X213927Y246640D02*
X213927Y101000D01*
X117162D01*
Y246506D01*
X195319Y246901D01*
X213573Y246993D01*
X213927Y246640D01*
D02*
G37*
%LPC*%
G36*
X208474Y241600D02*
X207526D01*
X206610Y241355D01*
X205790Y240881D01*
X205119Y240210D01*
X204645Y239390D01*
X204400Y238474D01*
Y237526D01*
X204645Y236610D01*
X205119Y235790D01*
X205790Y235119D01*
X206610Y234645D01*
X207526Y234400D01*
X208474D01*
X209390Y234645D01*
X210210Y235119D01*
X210881Y235790D01*
X211355Y236610D01*
X211600Y237526D01*
Y238474D01*
X211355Y239390D01*
X210881Y240210D01*
X210210Y240881D01*
X209390Y241355D01*
X208474Y241600D01*
D02*
G37*
G36*
X180974Y240600D02*
X180026D01*
X179110Y240355D01*
X178290Y239881D01*
X177619Y239210D01*
X177145Y238390D01*
X176900Y237474D01*
Y236526D01*
X177145Y235610D01*
X177619Y234790D01*
X178290Y234119D01*
X179110Y233645D01*
X180026Y233400D01*
X180974D01*
X181890Y233645D01*
X182710Y234119D01*
X183381Y234790D01*
X183855Y235610D01*
X184100Y236526D01*
Y237474D01*
X183855Y238390D01*
X183381Y239210D01*
X182710Y239881D01*
X181890Y240355D01*
X180974Y240600D01*
D02*
G37*
G36*
X170974D02*
X170026D01*
X169110Y240355D01*
X168290Y239881D01*
X167619Y239210D01*
X167145Y238390D01*
X166900Y237474D01*
Y236526D01*
X167145Y235610D01*
X167619Y234790D01*
X168290Y234119D01*
X169110Y233645D01*
X170026Y233400D01*
X170974D01*
X171890Y233645D01*
X172710Y234119D01*
X173381Y234790D01*
X173855Y235610D01*
X174100Y236526D01*
Y237474D01*
X173855Y238390D01*
X173381Y239210D01*
X172710Y239881D01*
X171890Y240355D01*
X170974Y240600D01*
D02*
G37*
G36*
X160974D02*
X160026D01*
X159110Y240355D01*
X158290Y239881D01*
X157619Y239210D01*
X157145Y238390D01*
X156900Y237474D01*
Y236526D01*
X157145Y235610D01*
X157619Y234790D01*
X158290Y234119D01*
X159110Y233645D01*
X160026Y233400D01*
X160974D01*
X161890Y233645D01*
X162710Y234119D01*
X163381Y234790D01*
X163855Y235610D01*
X164100Y236526D01*
Y237474D01*
X163855Y238390D01*
X163381Y239210D01*
X162710Y239881D01*
X161890Y240355D01*
X160974Y240600D01*
D02*
G37*
G36*
X128914Y235072D02*
X127952D01*
X127024Y234824D01*
X126191Y234343D01*
X125511Y233663D01*
X125031Y232831D01*
X124782Y231902D01*
Y230941D01*
X125031Y230012D01*
X125511Y229179D01*
X126191Y228500D01*
X127024Y228019D01*
X127952Y227770D01*
X128914D01*
X129842Y228019D01*
X130675Y228500D01*
X131355Y229179D01*
X131835Y230012D01*
X132084Y230941D01*
Y231902D01*
X131835Y232831D01*
X131355Y233663D01*
X130675Y234343D01*
X129842Y234824D01*
X128914Y235072D01*
D02*
G37*
G36*
X160974Y230600D02*
X160900D01*
Y227400D01*
X164100D01*
Y227474D01*
X163855Y228390D01*
X163381Y229210D01*
X162710Y229881D01*
X161890Y230355D01*
X160974Y230600D01*
D02*
G37*
G36*
X160100D02*
X160026D01*
X159110Y230355D01*
X158290Y229881D01*
X157619Y229210D01*
X157145Y228390D01*
X156900Y227474D01*
Y227400D01*
X160100D01*
Y230600D01*
D02*
G37*
G36*
X208474Y231600D02*
X207526D01*
X206610Y231355D01*
X205790Y230881D01*
X205119Y230210D01*
X204645Y229390D01*
X204400Y228474D01*
Y227526D01*
X204645Y226610D01*
X205119Y225790D01*
X205790Y225119D01*
X206610Y224645D01*
X207526Y224400D01*
X208474D01*
X209390Y224645D01*
X210210Y225119D01*
X210881Y225790D01*
X211355Y226610D01*
X211600Y227526D01*
Y228474D01*
X211355Y229390D01*
X210881Y230210D01*
X210210Y230881D01*
X209390Y231355D01*
X208474Y231600D01*
D02*
G37*
G36*
X180974Y230600D02*
X180026D01*
X179110Y230355D01*
X178290Y229881D01*
X177619Y229210D01*
X177145Y228390D01*
X176900Y227474D01*
Y226526D01*
X177145Y225610D01*
X177619Y224790D01*
X178290Y224119D01*
X179110Y223645D01*
X180026Y223400D01*
X180974D01*
X181890Y223645D01*
X182710Y224119D01*
X183381Y224790D01*
X183855Y225610D01*
X184100Y226526D01*
Y227474D01*
X183855Y228390D01*
X183381Y229210D01*
X182710Y229881D01*
X181890Y230355D01*
X180974Y230600D01*
D02*
G37*
G36*
X170974D02*
X170026D01*
X169110Y230355D01*
X168290Y229881D01*
X167619Y229210D01*
X167145Y228390D01*
X166900Y227474D01*
Y226526D01*
X167145Y225610D01*
X167619Y224790D01*
X168290Y224119D01*
X169110Y223645D01*
X170026Y223400D01*
X170974D01*
X171890Y223645D01*
X172710Y224119D01*
X173381Y224790D01*
X173855Y225610D01*
X174100Y226526D01*
Y227474D01*
X173855Y228390D01*
X173381Y229210D01*
X172710Y229881D01*
X171890Y230355D01*
X170974Y230600D01*
D02*
G37*
G36*
X164100Y226600D02*
X160900D01*
Y223400D01*
X160974D01*
X161890Y223645D01*
X162710Y224119D01*
X163381Y224790D01*
X163855Y225610D01*
X164100Y226526D01*
Y226600D01*
D02*
G37*
G36*
X160100D02*
X156900D01*
Y226526D01*
X157145Y225610D01*
X157619Y224790D01*
X158290Y224119D01*
X159110Y223645D01*
X160026Y223400D01*
X160100D01*
Y226600D01*
D02*
G37*
G36*
X154900Y221783D02*
Y220400D01*
X156283D01*
X156026Y221020D01*
X155520Y221526D01*
X154900Y221783D01*
D02*
G37*
G36*
X154100D02*
X153480Y221526D01*
X152974Y221020D01*
X152717Y220400D01*
X154100D01*
Y221783D01*
D02*
G37*
G36*
X156283Y219600D02*
X154900D01*
Y218217D01*
X155520Y218474D01*
X156026Y218980D01*
X156283Y219600D01*
D02*
G37*
G36*
X154100D02*
X152717D01*
X152974Y218980D01*
X153480Y218474D01*
X154100Y218217D01*
Y219600D01*
D02*
G37*
G36*
X132084Y225230D02*
X124782D01*
Y217927D01*
X132084D01*
Y225230D01*
D02*
G37*
G36*
X208474Y221600D02*
X207526D01*
X206610Y221355D01*
X205790Y220881D01*
X205119Y220210D01*
X204645Y219390D01*
X204400Y218474D01*
Y217526D01*
X204645Y216610D01*
X205119Y215790D01*
X205790Y215119D01*
X206610Y214645D01*
X207526Y214400D01*
X208474D01*
X209390Y214645D01*
X210210Y215119D01*
X210881Y215790D01*
X211355Y216610D01*
X211600Y217526D01*
Y218474D01*
X211355Y219390D01*
X210881Y220210D01*
X210210Y220881D01*
X209390Y221355D01*
X208474Y221600D01*
D02*
G37*
G36*
X148858Y213300D02*
X148142D01*
X147480Y213026D01*
X147076Y212621D01*
X138642D01*
Y212634D01*
X136900Y212497D01*
X135201Y212089D01*
X133587Y211421D01*
X132098Y210508D01*
X130769Y209373D01*
X130769Y209373D01*
X130424Y209011D01*
X128214Y206800D01*
X127642D01*
X126980Y206526D01*
X126474Y206020D01*
X126200Y205358D01*
Y204642D01*
X126474Y203980D01*
X126980Y203474D01*
X127642Y203200D01*
X128358D01*
X129020Y203474D01*
X129526Y203980D01*
X129800Y204642D01*
Y205214D01*
X132364Y207778D01*
X132364Y207778D01*
X132732Y208098D01*
X133702Y208894D01*
X135239Y209716D01*
X136907Y210222D01*
X138594Y210388D01*
X138642Y210379D01*
X147076D01*
X147480Y209974D01*
X148142Y209700D01*
X148858D01*
X149520Y209974D01*
X150026Y210480D01*
X150300Y211142D01*
Y211858D01*
X150026Y212520D01*
X149520Y213026D01*
X148858Y213300D01*
D02*
G37*
G36*
X154900Y212783D02*
Y211400D01*
X156283D01*
X156026Y212020D01*
X155520Y212526D01*
X154900Y212783D01*
D02*
G37*
G36*
X154100D02*
X153480Y212526D01*
X152974Y212020D01*
X152717Y211400D01*
X154100D01*
Y212783D01*
D02*
G37*
G36*
X187374Y233100D02*
X186658D01*
X185997Y232826D01*
X185490Y232320D01*
X185216Y231658D01*
Y230942D01*
X185490Y230281D01*
X185895Y229876D01*
Y211337D01*
X185395Y211151D01*
X185020Y211526D01*
X184358Y211800D01*
X183642D01*
X182980Y211526D01*
X182474Y211020D01*
X182200Y210358D01*
Y209642D01*
X182474Y208980D01*
X182878Y208576D01*
Y200424D01*
X182474Y200020D01*
X182200Y199358D01*
Y198642D01*
X182474Y197980D01*
X182878Y197576D01*
Y153000D01*
X182878Y153000D01*
X182964Y152571D01*
X183207Y152207D01*
X185797Y149617D01*
X185478Y149228D01*
X185298Y149349D01*
X184869Y149434D01*
X184869Y149434D01*
X175758D01*
X175354Y149838D01*
X174692Y150112D01*
X173976D01*
X173314Y149838D01*
X172808Y149332D01*
X172534Y148670D01*
Y147954D01*
X172808Y147293D01*
X173314Y146786D01*
X173976Y146512D01*
X174692D01*
X175354Y146786D01*
X175758Y147191D01*
X184405D01*
X188089Y143507D01*
X188089Y143507D01*
X188452Y143264D01*
X188882Y143178D01*
X188882Y143178D01*
X191118D01*
X191118Y143178D01*
X191548Y143264D01*
X191911Y143507D01*
X195595Y147191D01*
X208500D01*
X208929Y147276D01*
X209178Y147443D01*
X209575Y147302D01*
X209679Y147221D01*
Y145765D01*
X201035Y137122D01*
X190641D01*
X190406Y137356D01*
X189818Y137600D01*
X189182D01*
X188594Y137356D01*
X188144Y136906D01*
X187900Y136318D01*
Y135682D01*
X188144Y135094D01*
X188594Y134644D01*
X189182Y134400D01*
X189818D01*
X190406Y134644D01*
X190641Y134878D01*
X201500D01*
X201500Y134878D01*
X201929Y134964D01*
X202293Y135207D01*
X211593Y144507D01*
X211593Y144507D01*
X211836Y144871D01*
X211922Y145300D01*
X211922Y145300D01*
Y171686D01*
X211836Y172115D01*
X211593Y172479D01*
X211593Y172479D01*
X204669Y179402D01*
X204305Y179646D01*
X203876Y179731D01*
X203876Y179731D01*
X201628D01*
X201628Y179731D01*
X201199Y179646D01*
X200835Y179402D01*
X198054Y176622D01*
X197141D01*
X196906Y176856D01*
X196318Y177100D01*
X195682D01*
X195094Y176856D01*
X194644Y176406D01*
X194400Y175818D01*
Y175182D01*
X194644Y174594D01*
X195094Y174144D01*
X195682Y173900D01*
X196318D01*
X196906Y174144D01*
X197141Y174378D01*
X198519D01*
X198519Y174378D01*
X198948Y174464D01*
X199312Y174707D01*
X200661Y176057D01*
X201164Y175853D01*
X201397Y175290D01*
X201878Y174809D01*
Y161465D01*
X198636Y158222D01*
X198609Y158181D01*
X197299Y157106D01*
X195761Y156284D01*
X194093Y155778D01*
X192406Y155612D01*
X192358Y155622D01*
X191200D01*
X191200Y155622D01*
X190771Y155536D01*
X190407Y155293D01*
X190407Y155293D01*
X190003Y154889D01*
X189156D01*
X189020Y155026D01*
X188358Y155300D01*
X187642D01*
X186980Y155026D01*
X186474Y154520D01*
X186200Y153858D01*
Y153142D01*
X186234Y153059D01*
X185811Y152776D01*
X185122Y153465D01*
Y197472D01*
X185412Y197705D01*
X185895Y197505D01*
Y184126D01*
X185882D01*
X186019Y182384D01*
X186427Y180685D01*
X187095Y179071D01*
X188008Y177581D01*
X189143Y176253D01*
X189152Y176262D01*
X189700Y175714D01*
Y175142D01*
X189974Y174480D01*
X190480Y173974D01*
X191142Y173700D01*
X191858D01*
X192520Y173974D01*
X193026Y174480D01*
X193300Y175142D01*
Y175858D01*
X193026Y176520D01*
X192520Y177026D01*
X191858Y177300D01*
X191286D01*
X190738Y177848D01*
X190697Y177875D01*
X189622Y179185D01*
X188800Y180723D01*
X188294Y182391D01*
X188128Y184078D01*
X188138Y184126D01*
Y229876D01*
X188542Y230281D01*
X188816Y230942D01*
Y231658D01*
X188542Y232320D01*
X188036Y232826D01*
X187374Y233100D01*
D02*
G37*
G36*
X156283Y210600D02*
X154900D01*
Y209217D01*
X155520Y209474D01*
X156026Y209980D01*
X156283Y210600D01*
D02*
G37*
G36*
X154100D02*
X152717D01*
X152974Y209980D01*
X153480Y209474D01*
X154100Y209217D01*
Y210600D01*
D02*
G37*
G36*
X208474Y211600D02*
X208400D01*
Y208400D01*
X211600D01*
Y208474D01*
X211355Y209390D01*
X210881Y210210D01*
X210210Y210881D01*
X209390Y211355D01*
X208474Y211600D01*
D02*
G37*
G36*
X207600D02*
X207526D01*
X206610Y211355D01*
X205790Y210881D01*
X205119Y210210D01*
X204645Y209390D01*
X204400Y208474D01*
Y208400D01*
X207600D01*
Y211600D01*
D02*
G37*
G36*
X159358Y212300D02*
X158642D01*
X157980Y212026D01*
X157474Y211520D01*
X157200Y210858D01*
Y210286D01*
X155136Y208222D01*
X155108Y208181D01*
X153798Y207106D01*
X152261Y206284D01*
X150593Y205778D01*
X148906Y205612D01*
X148858Y205622D01*
X136424D01*
X136020Y206026D01*
X135358Y206300D01*
X134642D01*
X133980Y206026D01*
X133474Y205520D01*
X133200Y204858D01*
Y204142D01*
X133474Y203480D01*
X133980Y202974D01*
X134642Y202700D01*
X135358D01*
X136020Y202974D01*
X136424Y203378D01*
X148858D01*
Y203366D01*
X150600Y203503D01*
X152299Y203911D01*
X153913Y204579D01*
X155402Y205492D01*
X156731Y206627D01*
X156722Y206636D01*
X158786Y208700D01*
X159358D01*
X160020Y208974D01*
X160526Y209480D01*
X160800Y210142D01*
Y210858D01*
X160526Y211520D01*
X160020Y212026D01*
X159358Y212300D01*
D02*
G37*
G36*
X211600Y207600D02*
X208400D01*
Y204400D01*
X208474D01*
X209390Y204645D01*
X210210Y205119D01*
X210881Y205790D01*
X211355Y206610D01*
X211600Y207526D01*
Y207600D01*
D02*
G37*
G36*
X207600D02*
X204400D01*
Y207526D01*
X204645Y206610D01*
X205119Y205790D01*
X205790Y205119D01*
X206610Y204645D01*
X207526Y204400D01*
X207600D01*
Y207600D01*
D02*
G37*
G36*
X197858Y219800D02*
X197142D01*
X196480Y219526D01*
X195974Y219020D01*
X195700Y218358D01*
Y217642D01*
X195974Y216980D01*
X196378Y216576D01*
Y202500D01*
X196378Y202500D01*
X196464Y202071D01*
X196707Y201707D01*
X201207Y197207D01*
X201207Y197207D01*
X201571Y196964D01*
X202000Y196878D01*
X202000Y196878D01*
X206576D01*
X206980Y196474D01*
X207642Y196200D01*
X208358D01*
X209020Y196474D01*
X209526Y196980D01*
X209800Y197642D01*
Y198358D01*
X209526Y199020D01*
X209020Y199526D01*
X208358Y199800D01*
X207642D01*
X206980Y199526D01*
X206576Y199122D01*
X202465D01*
X198622Y202965D01*
Y216576D01*
X199026Y216980D01*
X199300Y217642D01*
Y218358D01*
X199026Y219020D01*
X198520Y219526D01*
X197858Y219800D01*
D02*
G37*
G36*
X180400Y195783D02*
Y194400D01*
X181783D01*
X181526Y195020D01*
X181020Y195526D01*
X180400Y195783D01*
D02*
G37*
G36*
X179600D02*
X178980Y195526D01*
X178474Y195020D01*
X178217Y194400D01*
X179600D01*
Y195783D01*
D02*
G37*
G36*
X181783Y193600D02*
X178217D01*
X178386Y193194D01*
X178474Y192980D01*
X178151Y192596D01*
X177980Y192526D01*
X177474Y192020D01*
X177217Y191400D01*
X180783D01*
X180614Y191806D01*
X180526Y192020D01*
X180849Y192403D01*
X181020Y192474D01*
X181526Y192980D01*
X181783Y193600D01*
D02*
G37*
G36*
X180783Y190600D02*
X179400D01*
Y189217D01*
X180020Y189474D01*
X180526Y189980D01*
X180783Y190600D01*
D02*
G37*
G36*
X178600D02*
X177217D01*
X177474Y189980D01*
X177980Y189474D01*
X178600Y189217D01*
Y190600D01*
D02*
G37*
G36*
X128900Y187783D02*
Y186400D01*
X130283D01*
X130026Y187020D01*
X129520Y187526D01*
X128900Y187783D01*
D02*
G37*
G36*
X128100D02*
X127480Y187526D01*
X126974Y187020D01*
X126717Y186400D01*
X128100D01*
Y187783D01*
D02*
G37*
G36*
X130283Y185600D02*
X128900D01*
Y184217D01*
X129520Y184474D01*
X130026Y184980D01*
X130283Y185600D01*
D02*
G37*
G36*
X128100D02*
X126717D01*
X126974Y184980D01*
X127480Y184474D01*
X128100Y184217D01*
Y185600D01*
D02*
G37*
G36*
X179400Y184283D02*
Y182900D01*
X180783D01*
X180526Y183520D01*
X180020Y184026D01*
X179400Y184283D01*
D02*
G37*
G36*
X178600D02*
X177980Y184026D01*
X177474Y183520D01*
X177217Y182900D01*
X178600D01*
Y184283D01*
D02*
G37*
G36*
X180783Y182100D02*
X179400D01*
Y180717D01*
X180020Y180974D01*
X180526Y181480D01*
X180783Y182100D01*
D02*
G37*
G36*
X178600D02*
X177217D01*
X177474Y181480D01*
X177980Y180974D01*
X178600Y180717D01*
Y182100D01*
D02*
G37*
G36*
X190400Y171783D02*
Y170400D01*
X191783D01*
X191526Y171020D01*
X191020Y171526D01*
X190400Y171783D01*
D02*
G37*
G36*
X189600D02*
X188980Y171526D01*
X188474Y171020D01*
X188217Y170400D01*
X189600D01*
Y171783D01*
D02*
G37*
G36*
X164400Y170283D02*
Y168900D01*
X165783D01*
X165526Y169520D01*
X165020Y170026D01*
X164400Y170283D01*
D02*
G37*
G36*
X163600D02*
X162980Y170026D01*
X162474Y169520D01*
X162217Y168900D01*
X163600D01*
Y170283D01*
D02*
G37*
G36*
X191783Y169600D02*
X190400D01*
Y168217D01*
X191020Y168474D01*
X191526Y168980D01*
X191783Y169600D01*
D02*
G37*
G36*
X189600D02*
X188217D01*
X188474Y168980D01*
X188980Y168474D01*
X189600Y168217D01*
Y169600D01*
D02*
G37*
G36*
X178400Y168283D02*
Y166900D01*
X179783D01*
X179526Y167520D01*
X179020Y168026D01*
X178400Y168283D01*
D02*
G37*
G36*
X177600D02*
X176980Y168026D01*
X176474Y167520D01*
X176217Y166900D01*
X177600D01*
Y168283D01*
D02*
G37*
G36*
X165783Y168100D02*
X164400D01*
Y166717D01*
X165020Y166974D01*
X165526Y167480D01*
X165783Y168100D01*
D02*
G37*
G36*
X163600D02*
X162217D01*
X162474Y167480D01*
X162980Y166974D01*
X163600Y166717D01*
Y168100D01*
D02*
G37*
G36*
X133900Y166783D02*
Y165400D01*
X135283D01*
X135026Y166020D01*
X134520Y166526D01*
X133900Y166783D01*
D02*
G37*
G36*
X133100D02*
X132480Y166526D01*
X131974Y166020D01*
X131717Y165400D01*
X133100D01*
Y166783D01*
D02*
G37*
G36*
X179783Y166100D02*
X178400D01*
Y164717D01*
X179020Y164974D01*
X179526Y165480D01*
X179783Y166100D01*
D02*
G37*
G36*
X177600D02*
X176217D01*
X176474Y165480D01*
X176980Y164974D01*
X177600Y164717D01*
Y166100D01*
D02*
G37*
G36*
X135283Y164600D02*
X133900D01*
Y163217D01*
X134520Y163474D01*
X135026Y163980D01*
X135283Y164600D01*
D02*
G37*
G36*
X133100D02*
X131717D01*
X131974Y163980D01*
X132480Y163474D01*
X133100Y163217D01*
Y164600D01*
D02*
G37*
G36*
X146818Y188600D02*
X146182D01*
X145594Y188356D01*
X145144Y187906D01*
X144900Y187318D01*
Y186986D01*
X140242Y182328D01*
X139998Y181964D01*
X139913Y181535D01*
X139913Y181535D01*
Y152965D01*
X139913Y152965D01*
X139998Y152536D01*
X140242Y152172D01*
X148707Y143707D01*
X148707Y143707D01*
X149071Y143464D01*
X149500Y143378D01*
X149500Y143378D01*
X161788D01*
X168918Y136249D01*
X168801Y135659D01*
X168480Y135526D01*
X167974Y135020D01*
X167700Y134358D01*
Y133642D01*
X167974Y132980D01*
X168480Y132474D01*
X168551Y132445D01*
X168911Y131256D01*
X169574Y130017D01*
X170466Y128930D01*
X170475Y128939D01*
X170475Y128939D01*
X171200Y128214D01*
Y127642D01*
X171474Y126980D01*
X171980Y126474D01*
X172642Y126200D01*
X173358D01*
X174020Y126474D01*
X174526Y126980D01*
X174800Y127642D01*
Y128358D01*
X174526Y129020D01*
X174020Y129526D01*
X173358Y129800D01*
X172786D01*
X172414Y130172D01*
X172061Y130525D01*
X171757Y130899D01*
X171268Y131536D01*
X170776Y132725D01*
X170775Y132729D01*
X171026Y132980D01*
X171245Y133509D01*
X171300Y133642D01*
X171753Y133878D01*
X171753Y133878D01*
X176859D01*
X177094Y133644D01*
X177682Y133400D01*
X178318D01*
X178906Y133644D01*
X179356Y134094D01*
X179600Y134682D01*
Y135318D01*
X179356Y135906D01*
X178906Y136356D01*
X178318Y136600D01*
X177682D01*
X177094Y136356D01*
X176859Y136122D01*
X172217D01*
X163046Y145293D01*
X162682Y145536D01*
X162253Y145622D01*
X162253Y145622D01*
X149965D01*
X142156Y153430D01*
Y154836D01*
X142656Y155170D01*
X142977Y155038D01*
X143693D01*
X144354Y155312D01*
X144861Y155818D01*
X144919Y155958D01*
X149287Y156667D01*
X149480Y156474D01*
X150142Y156200D01*
X150858D01*
X151520Y156474D01*
X152026Y156980D01*
X152300Y157642D01*
Y158358D01*
X152026Y159020D01*
X151520Y159526D01*
X150858Y159800D01*
X150142D01*
X149480Y159526D01*
X148974Y159020D01*
X148916Y158879D01*
X144547Y158171D01*
X144354Y158364D01*
X143693Y158638D01*
X142977D01*
X142656Y158505D01*
X142156Y158839D01*
Y181070D01*
X146486Y185400D01*
X146818D01*
X147406Y185644D01*
X147856Y186094D01*
X148100Y186682D01*
Y187318D01*
X147856Y187906D01*
X147406Y188356D01*
X146818Y188600D01*
D02*
G37*
G36*
X174858Y211800D02*
X174142D01*
X173480Y211526D01*
X172974Y211020D01*
X172700Y210358D01*
Y209642D01*
X172974Y208980D01*
X173378Y208576D01*
Y154724D01*
X172974Y154320D01*
X172973Y154318D01*
X172484Y154226D01*
X172122Y154563D01*
Y165743D01*
X172125Y165744D01*
X172319Y166084D01*
X172354Y166167D01*
X172702Y167008D01*
X172833Y168000D01*
X172702Y168992D01*
X172354Y169833D01*
X172319Y169916D01*
X172125Y170255D01*
X172122Y170257D01*
Y171076D01*
X172526Y171480D01*
X172800Y172142D01*
Y172858D01*
X172526Y173520D01*
X172020Y174026D01*
X171358Y174300D01*
X170642D01*
X169980Y174026D01*
X169474Y173520D01*
X169200Y172858D01*
Y172142D01*
X169474Y171480D01*
X169878Y171076D01*
Y170161D01*
X169874Y170156D01*
X169861Y170156D01*
X169880Y170061D01*
X169493Y169744D01*
X169358Y169800D01*
X168642D01*
X167980Y169526D01*
X167474Y169020D01*
X167200Y168358D01*
Y167642D01*
X167210Y167618D01*
X166985Y167344D01*
X166204Y165882D01*
X166090Y165670D01*
X166090Y165669D01*
X166009Y165417D01*
X166009Y165417D01*
X165861Y164673D01*
X165874Y164673D01*
X165878Y164668D01*
Y159142D01*
X165882Y159124D01*
X165750Y157440D01*
X165441Y156156D01*
X165442Y156156D01*
X165472Y156142D01*
X165361Y155581D01*
X165374Y155581D01*
X165378Y155576D01*
Y153924D01*
X164974Y153520D01*
X164700Y152858D01*
Y152142D01*
X164974Y151480D01*
X165480Y150974D01*
X166142Y150700D01*
X166858D01*
X167520Y150974D01*
X168026Y151480D01*
X168300Y152142D01*
Y152858D01*
X168026Y153520D01*
X167622Y153924D01*
Y155062D01*
X167645Y155531D01*
X167662Y155571D01*
X167728Y156044D01*
X167979Y157087D01*
X168140Y159142D01*
X168122D01*
Y164148D01*
X168140Y164611D01*
X168162Y164663D01*
X168333Y165092D01*
X168865Y166087D01*
X168957Y166200D01*
X169358D01*
X169493Y166256D01*
X169880Y165939D01*
X169861Y165844D01*
X169874Y165844D01*
X169878Y165839D01*
Y154424D01*
X169474Y154020D01*
X169200Y153358D01*
Y152642D01*
X169474Y151980D01*
X169980Y151474D01*
X170642Y151200D01*
X171358D01*
X172020Y151474D01*
X172526Y151980D01*
X172554Y152047D01*
X172597Y152071D01*
X173128Y152127D01*
X173480Y151774D01*
X174142Y151500D01*
X174858D01*
X175520Y151774D01*
X176026Y152280D01*
X176300Y152942D01*
Y153658D01*
X176026Y154320D01*
X175622Y154724D01*
Y208576D01*
X176026Y208980D01*
X176300Y209642D01*
Y210358D01*
X176026Y211020D01*
X175520Y211526D01*
X174858Y211800D01*
D02*
G37*
G36*
X150358Y185300D02*
X149642D01*
X148980Y185026D01*
X148474Y184520D01*
X148200Y183858D01*
Y183142D01*
X148474Y182480D01*
X148980Y181974D01*
X149642Y181700D01*
X150214D01*
X152278Y179636D01*
X152278Y179636D01*
X152598Y179268D01*
X153394Y178298D01*
X154216Y176761D01*
X154722Y175093D01*
X154850Y173794D01*
X154207Y173151D01*
X153964Y172787D01*
X153878Y172358D01*
X153878Y172358D01*
Y154424D01*
X153474Y154020D01*
X153200Y153358D01*
Y152786D01*
X151214Y150800D01*
X150642D01*
X149980Y150526D01*
X149474Y150020D01*
X149200Y149358D01*
Y148642D01*
X149474Y147980D01*
X149980Y147474D01*
X150642Y147200D01*
X151358D01*
X152020Y147474D01*
X152526Y147980D01*
X152800Y148642D01*
Y149214D01*
X154786Y151200D01*
X155358D01*
X156020Y151474D01*
X156526Y151980D01*
X156800Y152642D01*
Y153358D01*
X156526Y154020D01*
X156122Y154424D01*
Y171893D01*
X156793Y172565D01*
X156793Y172565D01*
X157036Y172929D01*
X157122Y173358D01*
X157134D01*
X156997Y175100D01*
X156589Y176799D01*
X155921Y178413D01*
X155008Y179902D01*
X153873Y181231D01*
X153873Y181231D01*
X153511Y181576D01*
X151800Y183286D01*
Y183858D01*
X151526Y184520D01*
X151020Y185026D01*
X150358Y185300D01*
D02*
G37*
G36*
X158900Y132783D02*
Y131400D01*
X160283D01*
X160026Y132020D01*
X159520Y132526D01*
X158900Y132783D01*
D02*
G37*
G36*
X158100D02*
X157480Y132526D01*
X156974Y132020D01*
X156717Y131400D01*
X158100D01*
Y132783D01*
D02*
G37*
G36*
X163400Y131783D02*
Y130400D01*
X164783D01*
X164526Y131020D01*
X164020Y131526D01*
X163400Y131783D01*
D02*
G37*
G36*
X162600D02*
X161980Y131526D01*
X161474Y131020D01*
X161217Y130400D01*
X162600D01*
Y131783D01*
D02*
G37*
G36*
X178400Y130783D02*
Y129400D01*
X179783D01*
X179526Y130020D01*
X179020Y130526D01*
X178400Y130783D01*
D02*
G37*
G36*
X177600D02*
X176980Y130526D01*
X176474Y130020D01*
X176217Y129400D01*
X177600D01*
Y130783D01*
D02*
G37*
G36*
X160283Y130600D02*
X158900D01*
Y129217D01*
X159520Y129474D01*
X160026Y129980D01*
X160283Y130600D01*
D02*
G37*
G36*
X158100D02*
X156717D01*
X156974Y129980D01*
X157480Y129474D01*
X158100Y129217D01*
Y130600D01*
D02*
G37*
G36*
X198400Y130283D02*
Y128900D01*
X199783D01*
X199526Y129520D01*
X199020Y130026D01*
X198400Y130283D01*
D02*
G37*
G36*
X197600D02*
X196980Y130026D01*
X196474Y129520D01*
X196217Y128900D01*
X197600D01*
Y130283D01*
D02*
G37*
G36*
X164783Y129600D02*
X163400D01*
Y128217D01*
X164020Y128474D01*
X164526Y128980D01*
X164783Y129600D01*
D02*
G37*
G36*
X162600D02*
X161217D01*
X161474Y128980D01*
X161980Y128474D01*
X162600Y128217D01*
Y129600D01*
D02*
G37*
G36*
X179783Y128600D02*
X178400D01*
Y127217D01*
X179020Y127474D01*
X179526Y127980D01*
X179783Y128600D01*
D02*
G37*
G36*
X177600D02*
X176217D01*
X176474Y127980D01*
X176980Y127474D01*
X177600Y127217D01*
Y128600D01*
D02*
G37*
G36*
X199783Y128100D02*
X198400D01*
Y126717D01*
X199020Y126974D01*
X199526Y127480D01*
X199783Y128100D01*
D02*
G37*
G36*
X197600D02*
X196217D01*
X196474Y127480D01*
X196980Y126974D01*
X197600Y126717D01*
Y128100D01*
D02*
G37*
G36*
X158858Y126800D02*
X158142D01*
X157480Y126526D01*
X156974Y126020D01*
X156700Y125358D01*
Y124642D01*
X156974Y123980D01*
X157480Y123474D01*
X158142Y123200D01*
X158858D01*
X159520Y123474D01*
X159924Y123878D01*
X168358D01*
X168406Y123888D01*
X170093Y123722D01*
X171761Y123216D01*
X173299Y122394D01*
X174609Y121319D01*
X174636Y121278D01*
X176200Y119714D01*
Y119142D01*
X176474Y118480D01*
X176980Y117974D01*
X177642Y117700D01*
X178358D01*
X179020Y117974D01*
X179526Y118480D01*
X179800Y119142D01*
Y119858D01*
X179526Y120520D01*
X179020Y121026D01*
X178358Y121300D01*
X177786D01*
X176222Y122864D01*
X176231Y122873D01*
X174902Y124008D01*
X173413Y124921D01*
X171799Y125589D01*
X170100Y125997D01*
X168358Y126134D01*
Y126122D01*
X159924D01*
X159520Y126526D01*
X158858Y126800D01*
D02*
G37*
G36*
X189596Y118284D02*
Y116902D01*
X190979D01*
X190722Y117521D01*
X190216Y118027D01*
X189596Y118284D01*
D02*
G37*
G36*
X188796D02*
X188176Y118027D01*
X187670Y117521D01*
X187413Y116902D01*
X188796D01*
Y118284D01*
D02*
G37*
G36*
X192600Y116783D02*
X191980Y116526D01*
X191474Y116020D01*
X191458Y115981D01*
X191115Y116102D01*
X189596D01*
Y114719D01*
X190216Y114976D01*
X190722Y115482D01*
X190738Y115521D01*
X191081Y115400D01*
X192600D01*
Y116783D01*
D02*
G37*
G36*
X193400D02*
Y115400D01*
X194783D01*
X194526Y116020D01*
X194020Y116526D01*
X193400Y116783D01*
D02*
G37*
G36*
X188796Y116102D02*
X187413D01*
X187670Y115482D01*
X188176Y114976D01*
X188796Y114719D01*
Y116102D01*
D02*
G37*
G36*
X194783Y114600D02*
X193400D01*
Y113217D01*
X194020Y113474D01*
X194526Y113980D01*
X194783Y114600D01*
D02*
G37*
G36*
X192600D02*
X191217D01*
X191474Y113980D01*
X191980Y113474D01*
X192600Y113217D01*
Y114600D01*
D02*
G37*
%LPD*%
G36*
X209679Y171221D02*
Y166501D01*
X209178Y166167D01*
X208858Y166300D01*
X208142D01*
X207480Y166026D01*
X206974Y165520D01*
X206700Y164858D01*
Y164142D01*
X206974Y163480D01*
X207379Y163076D01*
Y149434D01*
X195131D01*
X195131Y149434D01*
X194702Y149349D01*
X194338Y149106D01*
X194338Y149106D01*
X192300Y147068D01*
X191800Y147275D01*
Y147358D01*
X191526Y148020D01*
X191020Y148526D01*
X190358Y148800D01*
X189786D01*
X187276Y151311D01*
X187559Y151734D01*
X187642Y151700D01*
X188358D01*
X189020Y151974D01*
X189526Y152480D01*
X189595Y152646D01*
X190468D01*
X190468Y152646D01*
X190897Y152732D01*
X191261Y152975D01*
X191665Y153378D01*
X192358D01*
Y153366D01*
X194100Y153503D01*
X195799Y153911D01*
X197413Y154579D01*
X198902Y155492D01*
X200231Y156627D01*
X200222Y156636D01*
X203793Y160207D01*
X203793Y160207D01*
X204036Y160571D01*
X204122Y161000D01*
X204122Y161000D01*
Y174962D01*
X204449Y175290D01*
X204582Y175610D01*
X205172Y175727D01*
X209679Y171221D01*
D02*
G37*
D15*
X169000Y168000D02*
X168401Y167335D01*
X167875Y166611D01*
X167428Y165835D01*
X167065Y165018D01*
X171000Y170161D02*
X171187Y169583D01*
X171188Y166418D02*
X171642Y167441D01*
X171641Y168560D01*
X171187Y169583D01*
X171188Y166418D02*
X171000Y165839D01*
X167065Y165018D02*
X167000Y164668D01*
X166537Y155842D02*
X166500Y155576D01*
X166537Y155842D02*
X166794Y156926D01*
X166948Y158029D01*
X167000Y159142D01*
X169500Y134000D02*
X169574Y133056D01*
X169795Y132135D01*
X170158Y131260D01*
X170653Y130452D01*
X171268Y129732D01*
X175429Y122071D02*
X174702Y122730D01*
X173914Y123315D01*
X173072Y123819D01*
X172185Y124239D01*
X171261Y124569D01*
X170309Y124808D01*
X169338Y124952D01*
X168358Y125000D01*
X148858Y204500D02*
X149838Y204548D01*
X150809Y204692D01*
X151761Y204931D01*
X152685Y205261D01*
X153572Y205681D01*
X154414Y206185D01*
X155202Y206770D01*
X155929Y207429D01*
X138642Y211500D02*
X137662Y211452D01*
X136691Y211308D01*
X135739Y211069D01*
X134815Y210739D01*
X133928Y210319D01*
X133086Y209815D01*
X132298Y209230D01*
X131571Y208571D01*
X187016Y184126D02*
X187064Y183146D01*
X187208Y182175D01*
X187447Y181223D01*
X187777Y180299D01*
X188197Y179412D01*
X188701Y178570D01*
X189286Y177782D01*
X189945Y177055D01*
X203000Y176125D02*
X202923Y176309D01*
X156000Y173358D02*
X155952Y174338D01*
X155808Y175309D01*
X155569Y176261D01*
X155239Y177185D01*
X154819Y178072D01*
X154315Y178914D01*
X153730Y179702D01*
X153071Y180429D01*
X192358Y154500D02*
X193338Y154548D01*
X194309Y154692D01*
X195261Y154931D01*
X196185Y155261D01*
X197072Y155681D01*
X197914Y156185D01*
X198702Y156770D01*
X199429Y157429D01*
X162253Y144500D02*
X171753Y135000D01*
X178000D01*
X149500Y144500D02*
X162253D01*
X151000Y149000D02*
X155000Y153000D01*
Y172358D01*
X141035Y152965D02*
X149500Y144500D01*
X141035Y152965D02*
Y181535D01*
X146500Y187000D01*
X189500Y136000D02*
X201500D01*
X210800Y145300D02*
Y171686D01*
X203876Y178609D02*
X210800Y171686D01*
X201628Y178609D02*
X203876D01*
X198519Y175500D02*
X201628Y178609D01*
X201500Y136000D02*
X210800Y145300D01*
X196000Y175500D02*
X198519D01*
X208500Y148312D02*
Y164500D01*
X195131Y148312D02*
X208500D01*
X138642Y211500D02*
X148500D01*
X174500Y153300D02*
Y210000D01*
X171000Y153000D02*
Y165839D01*
Y170161D02*
Y170161D01*
X167000Y159142D02*
Y164668D01*
X171000Y170161D02*
Y172500D01*
X197500Y202500D02*
X202000Y198000D01*
X197500Y202500D02*
Y218000D01*
X202000Y198000D02*
X208000D01*
X184000Y153000D02*
Y210000D01*
Y153000D02*
X190000Y147000D01*
X191118Y144300D02*
X195131Y148312D01*
X188882Y144300D02*
X191118D01*
X184869Y148312D02*
X188882Y144300D01*
X174334Y148312D02*
X184869D01*
X166500Y152500D02*
Y155576D01*
X171268Y129732D02*
X173000Y128000D01*
X175429Y122071D02*
X178000Y119500D01*
X158500Y125000D02*
X168358D01*
X143335Y156838D02*
X150500Y158000D01*
X155929Y207429D02*
X159000Y210500D01*
X128000Y205000D02*
X131571Y208571D01*
X187016Y184126D02*
Y231300D01*
X189945Y177055D02*
X191500Y175500D01*
X155000Y172358D02*
X156000Y173358D01*
X203000Y161000D02*
Y176125D01*
X188268Y153768D02*
X190468D01*
X191200Y154500D02*
X192358D01*
X188000Y153500D02*
X188268Y153768D01*
X190468D02*
X191200Y154500D01*
X150000Y183500D02*
X153071Y180429D01*
X135000Y204500D02*
X148858D01*
X199429Y157429D02*
X203000Y161000D01*
D38*
X128433Y231421D02*
D03*
D39*
Y221579D02*
D03*
D44*
X208000Y208000D02*
D03*
Y218000D02*
D03*
Y228000D02*
D03*
Y238000D02*
D03*
X160500Y237000D02*
D03*
X170500D02*
D03*
X180500D02*
D03*
Y227000D02*
D03*
X170500D02*
D03*
X160500D02*
D03*
D45*
X166000Y78000D02*
D03*
Y270500D02*
D03*
D46*
X178000Y135000D02*
D03*
X146500Y187000D02*
D03*
X189500Y136000D02*
D03*
X196000Y175500D02*
D03*
D47*
X155000Y153000D02*
D03*
X148500Y211500D02*
D03*
X179000Y182500D02*
D03*
X169000Y168000D02*
D03*
X197500Y218000D02*
D03*
X208000Y198000D02*
D03*
X208500Y164500D02*
D03*
X174334Y148312D02*
D03*
X171000Y153000D02*
D03*
X166500Y152500D02*
D03*
X174500Y153300D02*
D03*
X173000Y128000D02*
D03*
X169500Y134000D02*
D03*
X143335Y156838D02*
D03*
X133500Y165000D02*
D03*
X154500Y220000D02*
D03*
Y211000D02*
D03*
X164000Y168500D02*
D03*
X180000Y194000D02*
D03*
X179000Y191000D02*
D03*
X198000Y128500D02*
D03*
X193000Y115000D02*
D03*
X189196Y116501D02*
D03*
X158500Y131000D02*
D03*
X163000Y130000D02*
D03*
X178000Y129000D02*
D03*
Y166500D02*
D03*
X190000Y170000D02*
D03*
X128500Y186000D02*
D03*
X128000Y205000D02*
D03*
X187016Y231300D02*
D03*
X184000Y210000D02*
D03*
X191500Y175500D02*
D03*
X174500Y210000D02*
D03*
X171000Y172500D02*
D03*
X202923Y176309D02*
D03*
X190000Y147000D02*
D03*
X188000Y153500D02*
D03*
X151000Y149000D02*
D03*
X184000Y199000D02*
D03*
X150000Y183500D02*
D03*
X159000Y210500D02*
D03*
X135000Y204500D02*
D03*
X178000Y119500D02*
D03*
X158500Y125000D02*
D03*
X150500Y158000D02*
D03*
M02*
