G04*
G04 #@! TF.GenerationSoftware,Altium Limited,Altium Designer,21.7.2 (23)*
G04*
G04 Layer_Color=8388736*
%FSLAX25Y25*%
%MOIN*%
G70*
G04*
G04 #@! TF.SameCoordinates,BBFDD30D-88FA-400C-AE8C-9891A4E3AC37*
G04*
G04*
G04 #@! TF.FilePolarity,Negative*
G04*
G01*
G75*
%ADD17R,0.02987X0.03197*%
%ADD18R,0.02153X0.04168*%
G04:AMPARAMS|DCode=19|XSize=41.68mil|YSize=21.53mil|CornerRadius=10.77mil|HoleSize=0mil|Usage=FLASHONLY|Rotation=270.000|XOffset=0mil|YOffset=0mil|HoleType=Round|Shape=RoundedRectangle|*
%AMROUNDEDRECTD19*
21,1,0.04168,0.00000,0,0,270.0*
21,1,0.02015,0.02153,0,0,270.0*
1,1,0.02153,0.00000,-0.01008*
1,1,0.02153,0.00000,0.01008*
1,1,0.02153,0.00000,0.01008*
1,1,0.02153,0.00000,-0.01008*
%
%ADD19ROUNDEDRECTD19*%
G04:AMPARAMS|DCode=21|XSize=58.36mil|YSize=16.46mil|CornerRadius=8.23mil|HoleSize=0mil|Usage=FLASHONLY|Rotation=0.000|XOffset=0mil|YOffset=0mil|HoleType=Round|Shape=RoundedRectangle|*
%AMROUNDEDRECTD21*
21,1,0.05836,0.00000,0,0,0.0*
21,1,0.04190,0.01646,0,0,0.0*
1,1,0.01646,0.02095,0.00000*
1,1,0.01646,-0.02095,0.00000*
1,1,0.01646,-0.02095,0.00000*
1,1,0.01646,0.02095,0.00000*
%
%ADD21ROUNDEDRECTD21*%
%ADD22R,0.05836X0.01646*%
%ADD26R,0.03197X0.02987*%
%ADD30R,0.03740X0.03740*%
%ADD31R,0.03543X0.03937*%
%ADD32O,0.05906X0.02756*%
%ADD33O,0.02756X0.05906*%
%ADD34R,0.02795X0.02638*%
%ADD35R,0.03937X0.03543*%
%ADD36R,0.10039X0.07284*%
%ADD37R,0.02638X0.02795*%
%ADD38C,0.12402*%
%ADD39C,0.11811*%
%ADD40C,0.06102*%
%ADD41R,0.06102X0.06102*%
%ADD42C,0.06591*%
%ADD43C,0.25591*%
%ADD44C,0.02591*%
%ADD45C,0.02991*%
D17*
X197467Y111000D02*
D03*
X192533D02*
D03*
X196740Y183000D02*
D03*
X191806D02*
D03*
X196740Y191481D02*
D03*
X191806D02*
D03*
D18*
X154102Y199952D02*
D03*
D19*
X146898D02*
D03*
X150500Y193048D02*
D03*
D21*
X184818Y180779D02*
D03*
Y178220D02*
D03*
Y175661D02*
D03*
Y173102D02*
D03*
Y170543D02*
D03*
Y167984D02*
D03*
Y165425D02*
D03*
Y162866D02*
D03*
Y160307D02*
D03*
Y157748D02*
D03*
X158332D02*
D03*
Y160307D02*
D03*
Y162866D02*
D03*
Y165425D02*
D03*
Y167984D02*
D03*
Y170543D02*
D03*
Y173102D02*
D03*
Y175661D02*
D03*
Y178220D02*
D03*
D22*
Y180779D02*
D03*
D26*
X145500Y167467D02*
D03*
Y162533D02*
D03*
D30*
X128366Y190000D02*
D03*
X134272D02*
D03*
D31*
X191592Y162500D02*
D03*
X196710D02*
D03*
X178441Y150500D02*
D03*
X183559D02*
D03*
X134059Y176000D02*
D03*
X128941D02*
D03*
D32*
X151661Y138524D02*
D03*
Y135374D02*
D03*
Y132224D02*
D03*
Y129075D02*
D03*
Y125925D02*
D03*
Y122776D02*
D03*
Y119626D02*
D03*
Y116476D02*
D03*
X184339D02*
D03*
Y119626D02*
D03*
Y122776D02*
D03*
Y125925D02*
D03*
Y129075D02*
D03*
Y132224D02*
D03*
Y135374D02*
D03*
Y138524D02*
D03*
D33*
X156976Y111161D02*
D03*
X160126D02*
D03*
X163276D02*
D03*
X166425D02*
D03*
X169575D02*
D03*
X172724D02*
D03*
X175874D02*
D03*
X179024D02*
D03*
Y143839D02*
D03*
X175874D02*
D03*
X172724D02*
D03*
X169575D02*
D03*
X166425D02*
D03*
X163276D02*
D03*
X160126D02*
D03*
X156976D02*
D03*
D34*
X192465Y168000D02*
D03*
X195535D02*
D03*
D35*
X148000Y172941D02*
D03*
Y178059D02*
D03*
D36*
X139000Y135642D02*
D03*
Y119500D02*
D03*
D37*
X137500Y165035D02*
D03*
Y161965D02*
D03*
D38*
X202000Y279500D02*
D03*
D39*
Y258000D02*
D03*
D40*
X128433Y231421D02*
D03*
D41*
Y221579D02*
D03*
D42*
X208000Y208000D02*
D03*
Y218000D02*
D03*
Y228000D02*
D03*
Y238000D02*
D03*
X160500Y237000D02*
D03*
X170500D02*
D03*
X180500D02*
D03*
Y227000D02*
D03*
X170500D02*
D03*
X160500D02*
D03*
D43*
X166000Y78000D02*
D03*
Y270500D02*
D03*
D44*
X160500Y201000D02*
D03*
X189000Y117000D02*
D03*
X162832Y158040D02*
D03*
X130000Y165000D02*
D03*
X178414Y128907D02*
D03*
X158500Y131000D02*
D03*
X183739Y184128D02*
D03*
X179500Y178500D02*
D03*
X177500Y162500D02*
D03*
X162000Y153000D02*
D03*
X165000Y166000D02*
D03*
X162527Y161516D02*
D03*
X150000Y158000D02*
D03*
X189500Y136000D02*
D03*
X193000Y138500D02*
D03*
X182000Y146000D02*
D03*
X178000Y135000D02*
D03*
X146500Y187000D02*
D03*
X196000Y175500D02*
D03*
D45*
X169000Y168000D02*
D03*
X171000Y172500D02*
D03*
X147500Y153500D02*
D03*
X152500Y155000D02*
D03*
X155000Y153000D02*
D03*
X148500Y211500D02*
D03*
X197500Y218000D02*
D03*
X208000Y198000D02*
D03*
X208500Y164500D02*
D03*
X174334Y148312D02*
D03*
X171000Y153000D02*
D03*
X166500Y152500D02*
D03*
X174500Y153300D02*
D03*
X173000Y128000D02*
D03*
X169500Y134000D02*
D03*
X128000Y205000D02*
D03*
X187016Y231300D02*
D03*
X184000Y210000D02*
D03*
X191500Y175500D02*
D03*
X174500Y210000D02*
D03*
X202923Y176309D02*
D03*
X188000Y153500D02*
D03*
X151000Y149000D02*
D03*
X184000Y199000D02*
D03*
X159000Y210500D02*
D03*
X135000Y204500D02*
D03*
X178000Y119500D02*
D03*
X158500Y125000D02*
D03*
M02*
