M48
;Layer_Color=9474304
;FILE_FORMAT=2:5
INCH,TZ
;TYPE=PLATED
T1F00S00C0.01000
T2F00S00C0.01200
T3F00S00C0.03000
T4F00S00C0.03937
T5F00S00C0.25000
;TYPE=NON_PLATED
T6F00S00C0.11811
%
T01
X158500Y131000
X178414Y128907
X178000Y135000
X189500Y136000
X193000Y138500
X182000Y146000
X162000Y153000
X189000Y117000
X177500Y162500
X162527Y161516
X162832Y158040
X165000Y166000
X179500Y178500
X183739Y184128
X196000Y175500
X160500Y201000
X146500Y187000
X150000Y158000
X130000Y165000
T02
X151000Y149000
X152500Y155000
X155000Y153000
X147500Y153500
X166500Y152500
X171000Y153000
X174500Y153300
X174334Y148312
X188000Y153500
X169500Y134000
X173000Y128000
X178000Y119500
X158500Y125000
X169000Y168000
X171000Y172500
X191500Y175500
X202923Y176309
X208500Y164500
X208000Y198000
X184000Y199000
Y210000
X174500
X159000Y210500
X197500Y218000
X187016Y231300
X148500Y211500
X135000Y204500
X128000Y205000
T03
X160500Y227000
Y237000
X170500
X180500
Y227000
X170500
X208000Y228000
Y218000
Y208000
Y238000
T04
X128433Y221579
Y231421
T05
X166000Y78000
Y270500
T06
X202000Y258000
X201500Y279500
M30
