G04*
G04 #@! TF.GenerationSoftware,Altium Limited,Altium Designer,21.7.2 (23)*
G04*
G04 Layer_Color=8388736*
%FSLAX25Y25*%
%MOIN*%
G70*
G04*
G04 #@! TF.SameCoordinates,0C8D6FB2-2837-4D30-9AF1-B001FA4779AC*
G04*
G04*
G04 #@! TF.FilePolarity,Positive*
G04*
G01*
G75*
%ADD13C,0.00787*%
D13*
X119181Y211933D02*
X141819D01*
Y241067D01*
X119181D02*
X141819D01*
X119181Y211933D02*
Y241067D01*
X161162Y188173D02*
X181989D01*
Y159827D02*
Y188173D01*
X161162Y159827D02*
X181989D01*
X161162D02*
Y188173D01*
X191850Y117925D02*
Y121075D01*
Y117925D02*
X198150D01*
Y121075D01*
X191850D02*
X198150D01*
X191850Y109425D02*
Y112575D01*
Y109425D02*
X198150D01*
Y112575D01*
X191850D02*
X198150D01*
X190925Y127350D02*
X194075D01*
Y133650D01*
X190925D02*
X194075D01*
X190925Y127350D02*
Y133650D01*
X143925Y161850D02*
Y168150D01*
X147075D01*
Y161850D02*
Y168150D01*
X143925Y161850D02*
X147075D01*
X197423Y181425D02*
Y184575D01*
X191123D02*
X197423D01*
X191123Y181425D02*
Y184575D01*
Y181425D02*
X197423D01*
X191123Y189907D02*
Y193056D01*
Y189907D02*
X197423D01*
Y193056D01*
X191123D02*
X197423D01*
M02*
