G04*
G04 #@! TF.GenerationSoftware,Altium Limited,Altium Designer,21.7.2 (23)*
G04*
G04 Layer_Color=2752767*
%FSLAX25Y25*%
%MOIN*%
G70*
G04*
G04 #@! TF.SameCoordinates,BBFDD30D-88FA-400C-AE8C-9891A4E3AC37*
G04*
G04*
G04 #@! TF.FilePolarity,Positive*
G04*
G01*
G75*
%ADD52C,0.00200*%
%ADD53C,0.00267*%
D52*
X201200Y278700D02*
Y280300D01*
X202800D01*
Y278700D01*
X201200D01*
Y257200D02*
Y258800D01*
X202800D01*
Y257200D01*
X201200D01*
X208000Y207200D02*
X207200Y208800D01*
X208800D01*
X208000Y207200D01*
Y217200D02*
X207200Y218800D01*
X208800D01*
X208000Y217200D01*
Y227200D02*
X207200Y228800D01*
X208800D01*
X208000Y227200D01*
Y237200D02*
X207200Y238800D01*
X208800D01*
X208000Y237200D01*
X160500Y236200D02*
X159700Y237800D01*
X161300D01*
X160500Y236200D01*
X170500D02*
X169700Y237800D01*
X171300D01*
X170500Y236200D01*
X180500D02*
X179700Y237800D01*
X181300D01*
X180500Y236200D01*
Y226200D02*
X179700Y227800D01*
X181300D01*
X180500Y226200D01*
X170500D02*
X169700Y227800D01*
X171300D01*
X170500Y226200D01*
X160500D02*
X159700Y227800D01*
X161300D01*
X160500Y226200D01*
X166000Y77200D02*
X166400Y77600D01*
X166800D01*
X166400Y78000D01*
X166800Y78400D01*
X166400D01*
X166000Y78800D01*
X165600Y78400D01*
X165200D01*
X165600Y78000D01*
X165200Y77600D01*
X165600D01*
X166000Y77200D01*
Y269700D02*
X166400Y270100D01*
X166800D01*
X166400Y270500D01*
X166800Y270900D01*
X166400D01*
X166000Y271300D01*
X165600Y270900D01*
X165200D01*
X165600Y270500D01*
X165200Y270100D01*
X165600D01*
X166000Y269700D01*
X159700Y200200D02*
X160100Y201000D01*
X159700Y201800D01*
X160500Y201400D01*
X161300Y201800D01*
X160900Y201000D01*
X161300Y200200D01*
X160500Y200600D01*
X159700Y200200D01*
X188200Y116200D02*
X188600Y117000D01*
X188200Y117800D01*
X189000Y117400D01*
X189800Y117800D01*
X189400Y117000D01*
X189800Y116200D01*
X189000Y116600D01*
X188200Y116200D01*
X162032Y157240D02*
X162433Y158040D01*
X162032Y158841D01*
X162832Y158440D01*
X163633Y158841D01*
X163233Y158040D01*
X163633Y157240D01*
X162832Y157641D01*
X162032Y157240D01*
X129200Y164200D02*
X129600Y165000D01*
X129200Y165800D01*
X130000Y165400D01*
X130800Y165800D01*
X130400Y165000D01*
X130800Y164200D01*
X130000Y164600D01*
X129200Y164200D01*
X177614Y128106D02*
X178014Y128907D01*
X177614Y129707D01*
X178414Y129306D01*
X179214Y129707D01*
X178814Y128907D01*
X179214Y128106D01*
X178414Y128507D01*
X177614Y128106D01*
X157700Y130200D02*
X158100Y131000D01*
X157700Y131800D01*
X158500Y131400D01*
X159300Y131800D01*
X158900Y131000D01*
X159300Y130200D01*
X158500Y130600D01*
X157700Y130200D01*
X182939Y183328D02*
X183339Y184128D01*
X182939Y184928D01*
X183739Y184528D01*
X184539Y184928D01*
X184139Y184128D01*
X184539Y183328D01*
X183739Y183728D01*
X182939Y183328D01*
X178700Y177700D02*
X179100Y178500D01*
X178700Y179300D01*
X179500Y178900D01*
X180300Y179300D01*
X179900Y178500D01*
X180300Y177700D01*
X179500Y178100D01*
X178700Y177700D01*
X176700Y161700D02*
X177100Y162500D01*
X176700Y163300D01*
X177500Y162900D01*
X178300Y163300D01*
X177900Y162500D01*
X178300Y161700D01*
X177500Y162100D01*
X176700Y161700D01*
X161200Y152200D02*
X161600Y153000D01*
X161200Y153800D01*
X162000Y153400D01*
X162800Y153800D01*
X162400Y153000D01*
X162800Y152200D01*
X162000Y152600D01*
X161200Y152200D01*
X164200Y165200D02*
X164600Y166000D01*
X164200Y166800D01*
X165000Y166400D01*
X165800Y166800D01*
X165400Y166000D01*
X165800Y165200D01*
X165000Y165600D01*
X164200Y165200D01*
X161727Y160716D02*
X162127Y161516D01*
X161727Y162316D01*
X162527Y161916D01*
X163327Y162316D01*
X162927Y161516D01*
X163327Y160716D01*
X162527Y161116D01*
X161727Y160716D01*
X149200Y157200D02*
X149600Y158000D01*
X149200Y158800D01*
X150000Y158400D01*
X150800Y158800D01*
X150400Y158000D01*
X150800Y157200D01*
X150000Y157600D01*
X149200Y157200D01*
X168600Y167600D02*
Y167200D01*
X169400D01*
Y167600D01*
X169800D01*
Y168400D01*
X169400D01*
Y168800D01*
X168600D01*
Y168400D01*
X168200D01*
Y167600D01*
X168600D01*
X170600Y172100D02*
Y171700D01*
X171400D01*
Y172100D01*
X171800D01*
Y172900D01*
X171400D01*
Y173300D01*
X170600D01*
Y172900D01*
X170200D01*
Y172100D01*
X170600D01*
X188700Y135200D02*
X189100Y136000D01*
X188700Y136800D01*
X189500Y136400D01*
X190300Y136800D01*
X189900Y136000D01*
X190300Y135200D01*
X189500Y135600D01*
X188700Y135200D01*
X192200Y137700D02*
X192600Y138500D01*
X192200Y139300D01*
X193000Y138900D01*
X193800Y139300D01*
X193400Y138500D01*
X193800Y137700D01*
X193000Y138100D01*
X192200Y137700D01*
X181200Y145200D02*
X181600Y146000D01*
X181200Y146800D01*
X182000Y146400D01*
X182800Y146800D01*
X182400Y146000D01*
X182800Y145200D01*
X182000Y145600D01*
X181200Y145200D01*
X147100Y153100D02*
Y152700D01*
X147900D01*
Y153100D01*
X148300D01*
Y153900D01*
X147900D01*
Y154300D01*
X147100D01*
Y153900D01*
X146700D01*
Y153100D01*
X147100D01*
X152100Y154600D02*
Y154200D01*
X152900D01*
Y154600D01*
X153300D01*
Y155400D01*
X152900D01*
Y155800D01*
X152100D01*
Y155400D01*
X151700D01*
Y154600D01*
X152100D01*
X177200Y134200D02*
X177600Y135000D01*
X177200Y135800D01*
X178000Y135400D01*
X178800Y135800D01*
X178400Y135000D01*
X178800Y134200D01*
X178000Y134600D01*
X177200Y134200D01*
X154600Y152600D02*
Y152200D01*
X155400D01*
Y152600D01*
X155800D01*
Y153400D01*
X155400D01*
Y153800D01*
X154600D01*
Y153400D01*
X154200D01*
Y152600D01*
X154600D01*
X145700Y186200D02*
X146100Y187000D01*
X145700Y187800D01*
X146500Y187400D01*
X147300Y187800D01*
X146900Y187000D01*
X147300Y186200D01*
X146500Y186600D01*
X145700Y186200D01*
X195200Y174700D02*
X195600Y175500D01*
X195200Y176300D01*
X196000Y175900D01*
X196800Y176300D01*
X196400Y175500D01*
X196800Y174700D01*
X196000Y175100D01*
X195200Y174700D01*
X148100Y211100D02*
Y210700D01*
X148900D01*
Y211100D01*
X149300D01*
Y211900D01*
X148900D01*
Y212300D01*
X148100D01*
Y211900D01*
X147700D01*
Y211100D01*
X148100D01*
X197100Y217600D02*
Y217200D01*
X197900D01*
Y217600D01*
X198300D01*
Y218400D01*
X197900D01*
Y218800D01*
X197100D01*
Y218400D01*
X196700D01*
Y217600D01*
X197100D01*
X207600Y197600D02*
Y197200D01*
X208400D01*
Y197600D01*
X208800D01*
Y198400D01*
X208400D01*
Y198800D01*
X207600D01*
Y198400D01*
X207200D01*
Y197600D01*
X207600D01*
X208100Y164100D02*
Y163700D01*
X208900D01*
Y164100D01*
X209300D01*
Y164900D01*
X208900D01*
Y165300D01*
X208100D01*
Y164900D01*
X207700D01*
Y164100D01*
X208100D01*
X173934Y147912D02*
Y147512D01*
X174734D01*
Y147912D01*
X175134D01*
Y148712D01*
X174734D01*
Y149112D01*
X173934D01*
Y148712D01*
X173534D01*
Y147912D01*
X173934D01*
X170600Y152600D02*
Y152200D01*
X171400D01*
Y152600D01*
X171800D01*
Y153400D01*
X171400D01*
Y153800D01*
X170600D01*
Y153400D01*
X170200D01*
Y152600D01*
X170600D01*
X166100Y152100D02*
Y151700D01*
X166900D01*
Y152100D01*
X167300D01*
Y152900D01*
X166900D01*
Y153300D01*
X166100D01*
Y152900D01*
X165700D01*
Y152100D01*
X166100D01*
X174100Y152900D02*
Y152500D01*
X174900D01*
Y152900D01*
X175300D01*
Y153700D01*
X174900D01*
Y154100D01*
X174100D01*
Y153700D01*
X173700D01*
Y152900D01*
X174100D01*
X172600Y127600D02*
Y127200D01*
X173400D01*
Y127600D01*
X173800D01*
Y128400D01*
X173400D01*
Y128800D01*
X172600D01*
Y128400D01*
X172200D01*
Y127600D01*
X172600D01*
X169100Y133600D02*
Y133200D01*
X169900D01*
Y133600D01*
X170300D01*
Y134400D01*
X169900D01*
Y134800D01*
X169100D01*
Y134400D01*
X168700D01*
Y133600D01*
X169100D01*
X127600Y204600D02*
Y204200D01*
X128400D01*
Y204600D01*
X128800D01*
Y205400D01*
X128400D01*
Y205800D01*
X127600D01*
Y205400D01*
X127200D01*
Y204600D01*
X127600D01*
X186616Y230900D02*
Y230500D01*
X187416D01*
Y230900D01*
X187816D01*
Y231700D01*
X187416D01*
Y232100D01*
X186616D01*
Y231700D01*
X186216D01*
Y230900D01*
X186616D01*
X183600Y209600D02*
Y209200D01*
X184400D01*
Y209600D01*
X184800D01*
Y210400D01*
X184400D01*
Y210800D01*
X183600D01*
Y210400D01*
X183200D01*
Y209600D01*
X183600D01*
X191100Y175100D02*
Y174700D01*
X191900D01*
Y175100D01*
X192300D01*
Y175900D01*
X191900D01*
Y176300D01*
X191100D01*
Y175900D01*
X190700D01*
Y175100D01*
X191100D01*
X174100Y209600D02*
Y209200D01*
X174900D01*
Y209600D01*
X175300D01*
Y210400D01*
X174900D01*
Y210800D01*
X174100D01*
Y210400D01*
X173700D01*
Y209600D01*
X174100D01*
X202523Y175909D02*
Y175509D01*
X203324D01*
Y175909D01*
X203724D01*
Y176709D01*
X203324D01*
Y177109D01*
X202523D01*
Y176709D01*
X202123D01*
Y175909D01*
X202523D01*
X187600Y153100D02*
Y152700D01*
X188400D01*
Y153100D01*
X188800D01*
Y153900D01*
X188400D01*
Y154300D01*
X187600D01*
Y153900D01*
X187200D01*
Y153100D01*
X187600D01*
X150600Y148600D02*
Y148200D01*
X151400D01*
Y148600D01*
X151800D01*
Y149400D01*
X151400D01*
Y149800D01*
X150600D01*
Y149400D01*
X150200D01*
Y148600D01*
X150600D01*
X183600Y198600D02*
Y198200D01*
X184400D01*
Y198600D01*
X184800D01*
Y199400D01*
X184400D01*
Y199800D01*
X183600D01*
Y199400D01*
X183200D01*
Y198600D01*
X183600D01*
X158600Y210100D02*
Y209700D01*
X159400D01*
Y210100D01*
X159800D01*
Y210900D01*
X159400D01*
Y211300D01*
X158600D01*
Y210900D01*
X158200D01*
Y210100D01*
X158600D01*
X134600Y204100D02*
Y203700D01*
X135400D01*
Y204100D01*
X135800D01*
Y204900D01*
X135400D01*
Y205300D01*
X134600D01*
Y204900D01*
X134200D01*
Y204100D01*
X134600D01*
X177600Y119100D02*
Y118700D01*
X178400D01*
Y119100D01*
X178800D01*
Y119900D01*
X178400D01*
Y120300D01*
X177600D01*
Y119900D01*
X177200D01*
Y119100D01*
X177600D01*
X158100Y124600D02*
Y124200D01*
X158900D01*
Y124600D01*
X159300D01*
Y125400D01*
X158900D01*
Y125800D01*
X158100D01*
Y125400D01*
X157700D01*
Y124600D01*
X158100D01*
D53*
X129233Y231421D02*
X128680Y232182D01*
X127786Y231891D01*
Y230951D01*
X128680Y230660D01*
X129233Y231421D01*
Y221579D02*
X128680Y222339D01*
X127786Y222049D01*
Y221108D01*
X128680Y220818D01*
X129233Y221579D01*
M02*
