M48
;Layer_Color=9474304
;FILE_FORMAT=2:5
INCH,TZ
;TYPE=PLATED
T1F00S00C0.01000
T2F00S00C0.01200
T3F00S00C0.03000
T4F00S00C0.03937
T5F00S00C0.25000
;TYPE=NON_PLATED
T6F00S00C0.11811
%
T01
X178000Y135000
X189500Y136000
X196000Y175500
X146500Y187000
T02
X151000Y149000
X155000Y153000
X166500Y152500
X171000Y153000
X174500Y153300
X174334Y148312
X190000Y147000
X188000Y153500
X178000Y129000
X173000Y128000
X169500Y134000
X163000Y130000
X158500Y131000
Y125000
X178000Y119500
X189196Y116501
X193000Y115000
X198000Y128500
X208500Y164500
X202923Y176309
X191500Y175500
X190000Y170000
X178000Y166500
X169000Y168000
X164000Y168500
X171000Y172500
X179000Y182500
Y191000
X180000Y194000
X184000Y199000
Y210000
X174500
X159000Y210500
X197500Y218000
X187016Y231300
X208000Y198000
X154500Y211000
X148500Y211500
X154500Y220000
X135000Y204500
X128000Y205000
X128500Y186000
X150000Y183500
X150500Y158000
X143335Y156838
X133500Y165000
T03
X160500Y227000
Y237000
X170500
X180500
Y227000
X170500
X208000Y228000
Y218000
Y208000
Y238000
T04
X128433Y221579
Y231421
T05
X166000Y78000
Y270500
T06
X202000Y258000
X201500Y279500
M30
