G04*
G04 #@! TF.GenerationSoftware,Altium Limited,Altium Designer,21.7.2 (23)*
G04*
G04 Layer_Color=128*
%FSLAX25Y25*%
%MOIN*%
G70*
G04*
G04 #@! TF.SameCoordinates,BBFDD30D-88FA-400C-AE8C-9891A4E3AC37*
G04*
G04*
G04 #@! TF.FilePolarity,Positive*
G04*
G01*
G75*
%ADD52C,0.00200*%
D52*
X196095Y279500D02*
X207906D01*
X202000Y273594D02*
Y285405D01*
X196095Y258000D02*
X207906D01*
X202000Y252095D02*
Y263906D01*
X126464Y231421D02*
X130402D01*
X128433Y229453D02*
Y233390D01*
X126464Y221579D02*
X130402D01*
X128433Y219610D02*
Y223547D01*
X206500Y208000D02*
X209500D01*
X208000Y206500D02*
Y209500D01*
X206500Y218000D02*
X209500D01*
X208000Y216500D02*
Y219500D01*
X206500Y228000D02*
X209500D01*
X208000Y226500D02*
Y229500D01*
X206500Y238000D02*
X209500D01*
X208000Y236500D02*
Y239500D01*
X159000Y237000D02*
X162000D01*
X160500Y235500D02*
Y238500D01*
X169000Y237000D02*
X172000D01*
X170500Y235500D02*
Y238500D01*
X179000Y237000D02*
X182000D01*
X180500Y235500D02*
Y238500D01*
X179000Y227000D02*
X182000D01*
X180500Y225500D02*
Y228500D01*
X169000Y227000D02*
X172000D01*
X170500Y225500D02*
Y228500D01*
X159000Y227000D02*
X162000D01*
X160500Y225500D02*
Y228500D01*
X153500Y78000D02*
X178500D01*
X166000Y65500D02*
Y90500D01*
X153500Y270500D02*
X178500D01*
X166000Y258000D02*
Y283000D01*
X160000Y201000D02*
X161000D01*
X160500Y200500D02*
Y201500D01*
X188500Y117000D02*
X189500D01*
X189000Y116500D02*
Y117500D01*
X162332Y158040D02*
X163332D01*
X162832Y157541D02*
Y158540D01*
X129500Y165000D02*
X130500D01*
X130000Y164500D02*
Y165500D01*
X177914Y128907D02*
X178914D01*
X178414Y128407D02*
Y129406D01*
X158000Y131000D02*
X159000D01*
X158500Y130500D02*
Y131500D01*
X183239Y184128D02*
X184239D01*
X183739Y183628D02*
Y184628D01*
X179000Y178500D02*
X180000D01*
X179500Y178000D02*
Y179000D01*
X177000Y162500D02*
X178000D01*
X177500Y162000D02*
Y163000D01*
X161500Y153000D02*
X162500D01*
X162000Y152500D02*
Y153500D01*
X164500Y166000D02*
X165500D01*
X165000Y165500D02*
Y166500D01*
X162027Y161516D02*
X163027D01*
X162527Y161016D02*
Y162016D01*
X149500Y158000D02*
X150500D01*
X150000Y157500D02*
Y158500D01*
X168400Y168000D02*
X169600D01*
X169000Y167400D02*
Y168600D01*
X170400Y172500D02*
X171600D01*
X171000Y171900D02*
Y173100D01*
X189000Y136000D02*
X190000D01*
X189500Y135500D02*
Y136500D01*
X192500Y138500D02*
X193500D01*
X193000Y138000D02*
Y139000D01*
X181500Y146000D02*
X182500D01*
X182000Y145500D02*
Y146500D01*
X146900Y153500D02*
X148100D01*
X147500Y152900D02*
Y154100D01*
X151900Y155000D02*
X153100D01*
X152500Y154400D02*
Y155600D01*
X177500Y135000D02*
X178500D01*
X178000Y134500D02*
Y135500D01*
X154400Y153000D02*
X155600D01*
X155000Y152400D02*
Y153600D01*
X146000Y187000D02*
X147000D01*
X146500Y186500D02*
Y187500D01*
X195500Y175500D02*
X196500D01*
X196000Y175000D02*
Y176000D01*
X147900Y211500D02*
X149100D01*
X148500Y210900D02*
Y212100D01*
X196900Y218000D02*
X198100D01*
X197500Y217400D02*
Y218600D01*
X207400Y198000D02*
X208600D01*
X208000Y197400D02*
Y198600D01*
X207900Y164500D02*
X209100D01*
X208500Y163900D02*
Y165100D01*
X173734Y148312D02*
X174934D01*
X174334Y147712D02*
Y148912D01*
X170400Y153000D02*
X171600D01*
X171000Y152400D02*
Y153600D01*
X165900Y152500D02*
X167100D01*
X166500Y151900D02*
Y153100D01*
X173900Y153300D02*
X175100D01*
X174500Y152700D02*
Y153900D01*
X172400Y128000D02*
X173600D01*
X173000Y127400D02*
Y128600D01*
X168900Y134000D02*
X170100D01*
X169500Y133400D02*
Y134600D01*
X127400Y205000D02*
X128600D01*
X128000Y204400D02*
Y205600D01*
X186416Y231300D02*
X187616D01*
X187016Y230700D02*
Y231900D01*
X183400Y210000D02*
X184600D01*
X184000Y209400D02*
Y210600D01*
X190900Y175500D02*
X192100D01*
X191500Y174900D02*
Y176100D01*
X173900Y210000D02*
X175100D01*
X174500Y209400D02*
Y210600D01*
X202324Y176309D02*
X203523D01*
X202923Y175709D02*
Y176909D01*
X187400Y153500D02*
X188600D01*
X188000Y152900D02*
Y154100D01*
X150400Y149000D02*
X151600D01*
X151000Y148400D02*
Y149600D01*
X183400Y199000D02*
X184600D01*
X184000Y198400D02*
Y199600D01*
X158400Y210500D02*
X159600D01*
X159000Y209900D02*
Y211100D01*
X134400Y204500D02*
X135600D01*
X135000Y203900D02*
Y205100D01*
X177400Y119500D02*
X178600D01*
X178000Y118900D02*
Y120100D01*
X157900Y125000D02*
X159100D01*
X158500Y124400D02*
Y125600D01*
M02*
