G04*
G04 #@! TF.GenerationSoftware,Altium Limited,Altium Designer,21.7.2 (23)*
G04*
G04 Layer_Color=8388736*
%FSLAX25Y25*%
%MOIN*%
G70*
G04*
G04 #@! TF.SameCoordinates,0C8D6FB2-2837-4D30-9AF1-B001FA4779AC*
G04*
G04*
G04 #@! TF.FilePolarity,Negative*
G04*
G01*
G75*
%ADD22R,0.05836X0.01646*%
G04:AMPARAMS|DCode=23|XSize=58.36mil|YSize=16.46mil|CornerRadius=8.23mil|HoleSize=0mil|Usage=FLASHONLY|Rotation=0.000|XOffset=0mil|YOffset=0mil|HoleType=Round|Shape=RoundedRectangle|*
%AMROUNDEDRECTD23*
21,1,0.05836,0.00000,0,0,0.0*
21,1,0.04190,0.01646,0,0,0.0*
1,1,0.01646,0.02095,0.00000*
1,1,0.01646,-0.02095,0.00000*
1,1,0.01646,-0.02095,0.00000*
1,1,0.01646,0.02095,0.00000*
%
%ADD23ROUNDEDRECTD23*%
%ADD27R,0.02987X0.03197*%
%ADD28R,0.03197X0.02987*%
%ADD29R,0.10039X0.07284*%
%ADD30R,0.03543X0.03937*%
%ADD31R,0.02165X0.02559*%
G04:AMPARAMS|DCode=32|XSize=27.56mil|YSize=37.4mil|CornerRadius=4.9mil|HoleSize=0mil|Usage=FLASHONLY|Rotation=0.000|XOffset=0mil|YOffset=0mil|HoleType=Round|Shape=RoundedRectangle|*
%AMROUNDEDRECTD32*
21,1,0.02756,0.02760,0,0,0.0*
21,1,0.01776,0.03740,0,0,0.0*
1,1,0.00980,0.00888,-0.01380*
1,1,0.00980,-0.00888,-0.01380*
1,1,0.00980,-0.00888,0.01380*
1,1,0.00980,0.00888,0.01380*
%
%ADD32ROUNDEDRECTD32*%
%ADD33O,0.02756X0.05906*%
%ADD34O,0.05906X0.02756*%
%ADD35R,0.03937X0.03543*%
%ADD36R,0.02638X0.02795*%
%ADD37R,0.02795X0.02638*%
%ADD38C,0.06102*%
%ADD39R,0.06102X0.06102*%
%ADD40C,0.06591*%
%ADD41C,0.44291*%
%ADD42C,0.02591*%
%ADD43C,0.02991*%
D22*
X158332Y185516D02*
D03*
D23*
Y182957D02*
D03*
Y180398D02*
D03*
Y177839D02*
D03*
Y175280D02*
D03*
Y172720D02*
D03*
Y170161D02*
D03*
Y167602D02*
D03*
Y165043D02*
D03*
Y162484D02*
D03*
X184818D02*
D03*
Y165043D02*
D03*
Y167602D02*
D03*
Y170161D02*
D03*
Y172720D02*
D03*
Y175280D02*
D03*
Y177839D02*
D03*
Y180398D02*
D03*
Y182957D02*
D03*
Y185516D02*
D03*
D27*
X197467Y119500D02*
D03*
X192533D02*
D03*
X197467Y111000D02*
D03*
X192533D02*
D03*
X191806Y183000D02*
D03*
X196740D02*
D03*
Y191481D02*
D03*
X191806D02*
D03*
D28*
X192500Y132967D02*
D03*
Y128033D02*
D03*
X145500Y162533D02*
D03*
Y167467D02*
D03*
D29*
X139000Y135642D02*
D03*
Y119500D02*
D03*
D30*
X183559Y150500D02*
D03*
X178441D02*
D03*
X196710Y162500D02*
D03*
X191592D02*
D03*
X134059Y176000D02*
D03*
X128941D02*
D03*
D31*
X128366Y190000D02*
D03*
X132500D02*
D03*
D32*
X158240Y192980D02*
D03*
X150760D02*
D03*
Y203020D02*
D03*
X154500D02*
D03*
X158240D02*
D03*
D33*
X156976Y143839D02*
D03*
X160126D02*
D03*
X163276D02*
D03*
X166425D02*
D03*
X169575D02*
D03*
X172724D02*
D03*
X175874D02*
D03*
X179024D02*
D03*
Y111161D02*
D03*
X175874D02*
D03*
X172724D02*
D03*
X169575D02*
D03*
X166425D02*
D03*
X163276D02*
D03*
X160126D02*
D03*
X156976D02*
D03*
D34*
X184339Y138524D02*
D03*
Y135374D02*
D03*
Y132224D02*
D03*
Y129075D02*
D03*
Y125925D02*
D03*
Y122776D02*
D03*
Y119626D02*
D03*
Y116476D02*
D03*
X151661D02*
D03*
Y119626D02*
D03*
Y122776D02*
D03*
Y125925D02*
D03*
Y129075D02*
D03*
Y132224D02*
D03*
Y135374D02*
D03*
Y138524D02*
D03*
D35*
X148000Y178059D02*
D03*
Y172941D02*
D03*
D36*
X137500Y165035D02*
D03*
Y161965D02*
D03*
D37*
X195535Y168000D02*
D03*
X192465D02*
D03*
D38*
X128433Y231421D02*
D03*
D39*
Y221579D02*
D03*
D40*
X208000Y208000D02*
D03*
Y218000D02*
D03*
Y228000D02*
D03*
Y238000D02*
D03*
X160500Y237000D02*
D03*
X170500D02*
D03*
X180500D02*
D03*
Y227000D02*
D03*
X170500D02*
D03*
X160500D02*
D03*
D41*
X166000Y78000D02*
D03*
Y270500D02*
D03*
D42*
X178000Y135000D02*
D03*
X146500Y187000D02*
D03*
X189500Y136000D02*
D03*
X196000Y175500D02*
D03*
D43*
X155000Y153000D02*
D03*
X148500Y211500D02*
D03*
X179000Y182500D02*
D03*
X169000Y168000D02*
D03*
X197500Y218000D02*
D03*
X208000Y198000D02*
D03*
X208500Y164500D02*
D03*
X174334Y148312D02*
D03*
X171000Y153000D02*
D03*
X166500Y152500D02*
D03*
X174500Y153300D02*
D03*
X173000Y128000D02*
D03*
X169500Y134000D02*
D03*
X143335Y156838D02*
D03*
X133500Y165000D02*
D03*
X154500Y220000D02*
D03*
Y211000D02*
D03*
X164000Y168500D02*
D03*
X180000Y194000D02*
D03*
X179000Y191000D02*
D03*
X198000Y128500D02*
D03*
X193000Y115000D02*
D03*
X189196Y116501D02*
D03*
X158500Y131000D02*
D03*
X163000Y130000D02*
D03*
X178000Y129000D02*
D03*
Y166500D02*
D03*
X190000Y170000D02*
D03*
X128500Y186000D02*
D03*
X128000Y205000D02*
D03*
X187016Y231300D02*
D03*
X184000Y210000D02*
D03*
X191500Y175500D02*
D03*
X174500Y210000D02*
D03*
X171000Y172500D02*
D03*
X202923Y176309D02*
D03*
X190000Y147000D02*
D03*
X188000Y153500D02*
D03*
X151000Y149000D02*
D03*
X184000Y199000D02*
D03*
X150000Y183500D02*
D03*
X159000Y210500D02*
D03*
X135000Y204500D02*
D03*
X178000Y119500D02*
D03*
X158500Y125000D02*
D03*
X150500Y158000D02*
D03*
M02*
