G04*
G04 #@! TF.GenerationSoftware,Altium Limited,Altium Designer,21.7.2 (23)*
G04*
G04 Layer_Color=16711935*
%FSLAX25Y25*%
%MOIN*%
G70*
G04*
G04 #@! TF.SameCoordinates,73D3D296-878F-4BD7-B675-30F9F54128A0*
G04*
G04*
G04 #@! TF.FilePolarity,Positive*
G04*
G01*
G75*
%ADD15C,0.01000*%
%ADD50C,0.00236*%
D15*
X195846Y52045D02*
X196859Y52072D01*
X197869Y52153D01*
X198872Y52287D01*
X199867Y52475D01*
X200851Y52715D01*
X201821Y53007D01*
X202774Y53351D01*
X203707Y53744D01*
X204618Y54187D01*
X205504Y54678D01*
X206362Y55215D01*
X207191Y55797D01*
X207988Y56422D01*
X208750Y57089D01*
X209476Y57796D01*
X210163Y58540D01*
X210809Y59319D01*
X211414Y60132D01*
X211974Y60976D01*
X212488Y61848D01*
X212955Y62747D01*
X213374Y63669D01*
X213743Y64612D01*
X214061Y65574D01*
X214328Y66551D01*
X214542Y67541D01*
X214704Y68540D01*
X214812Y69547D01*
X214866Y70559D01*
X214866Y71571D01*
X214955Y277847D02*
X214928Y278859D01*
X214847Y279869D01*
X214713Y280872D01*
X214525Y281868D01*
X214285Y282851D01*
X213993Y283821D01*
X213649Y284774D01*
X213256Y285707D01*
X212813Y286618D01*
X212322Y287504D01*
X211785Y288362D01*
X211203Y289191D01*
X210578Y289988D01*
X209911Y290750D01*
X209204Y291476D01*
X208460Y292163D01*
X207681Y292810D01*
X206868Y293414D01*
X206024Y293974D01*
X205152Y294488D01*
X204253Y294955D01*
X203331Y295374D01*
X202388Y295743D01*
X201426Y296061D01*
X200449Y296328D01*
X199459Y296542D01*
X198459Y296704D01*
X197452Y296812D01*
X196441Y296866D01*
X195428Y296866D01*
X135153Y296955D02*
X134141Y296928D01*
X133132Y296848D01*
X132128Y296713D01*
X131132Y296525D01*
X130149Y296285D01*
X129179Y295993D01*
X128226Y295649D01*
X127293Y295256D01*
X126382Y294813D01*
X125496Y294322D01*
X124638Y293785D01*
X123809Y293203D01*
X123012Y292578D01*
X122250Y291911D01*
X121524Y291204D01*
X120837Y290460D01*
X120191Y289681D01*
X119586Y288868D01*
X119026Y288024D01*
X118512Y287152D01*
X118045Y286253D01*
X117626Y285331D01*
X117257Y284388D01*
X116939Y283426D01*
X116672Y282449D01*
X116458Y281459D01*
X116296Y280459D01*
X116188Y279452D01*
X116134Y278441D01*
X116134Y277428D01*
X115974Y71000D02*
X116001Y69988D01*
X116081Y68978D01*
X116216Y67974D01*
X116403Y66979D01*
X116644Y65995D01*
X116936Y65025D01*
X117280Y64073D01*
X117673Y63140D01*
X118116Y62229D01*
X118607Y61343D01*
X119144Y60484D01*
X119726Y59655D01*
X120351Y58859D01*
X121018Y58096D01*
X121724Y57371D01*
X122469Y56683D01*
X123248Y56037D01*
X124061Y55433D01*
X124905Y54873D01*
X125777Y54359D01*
X126676Y53891D01*
X127598Y53473D01*
X128541Y53104D01*
X129503Y52785D01*
X130480Y52518D01*
X131470Y52304D01*
X132469Y52143D01*
X133476Y52035D01*
X134488Y51981D01*
X135501Y51980D01*
X135565Y52045D02*
X195846D01*
X214955Y71661D02*
Y277847D01*
X135153Y296955D02*
X195339D01*
X116134Y70134D02*
Y277428D01*
D50*
X153500Y199451D02*
Y200500D01*
X154550Y199451D01*
X154812D01*
X155074Y199713D01*
Y200238D01*
X154812Y200500D01*
M02*
