G04*
G04 #@! TF.GenerationSoftware,Altium Limited,Altium Designer,21.7.2 (23)*
G04*
G04 Layer_Physical_Order=2*
G04 Layer_Color=16711680*
%FSLAX25Y25*%
%MOIN*%
G70*
G04*
G04 #@! TF.SameCoordinates,CE555B22-796A-421F-9DDC-EB8CF6B467D4*
G04*
G04*
G04 #@! TF.FilePolarity,Positive*
G04*
G01*
G75*
%ADD37C,0.06102*%
%ADD38R,0.06102X0.06102*%
%ADD42C,0.01000*%
%ADD43C,0.03937*%
%ADD44C,0.06000*%
%ADD45C,0.02400*%
%ADD46C,0.05000*%
D37*
X128433Y231421D02*
D03*
D38*
Y221579D02*
D03*
D42*
X137071Y160929D02*
X137798Y160270D01*
X138586Y159685D01*
X139428Y159181D01*
X140315Y158761D01*
X141239Y158431D01*
X142191Y158192D01*
X143162Y158048D01*
X144142Y158000D01*
X187016Y184126D02*
X187064Y183146D01*
X187208Y182175D01*
X187447Y181223D01*
X187777Y180299D01*
X188197Y179412D01*
X188701Y178570D01*
X189286Y177782D01*
X189945Y177055D01*
X171188Y166418D02*
X171000Y165839D01*
Y170161D02*
X171187Y169583D01*
X171188Y166418D02*
X171642Y167441D01*
X171641Y168560D01*
X171187Y169583D01*
X169000Y168000D02*
X168401Y167335D01*
X167875Y166611D01*
X167428Y165835D01*
X167065Y165018D01*
X166537Y155842D02*
X166500Y155576D01*
X167065Y165018D02*
X167000Y164668D01*
X152042Y146198D02*
X151390Y146328D01*
X140475Y156511D02*
X140188Y156670D01*
X135649Y159523D02*
X136446Y158793D01*
X137306Y158138D01*
X138221Y157562D01*
X139184Y157072D01*
X140188Y156670D01*
X140570Y156430D02*
X140494Y156497D01*
X166537Y155842D02*
X166794Y156926D01*
X166948Y158029D01*
X167000Y159142D01*
X148327Y149381D02*
X148371Y148385D01*
X148774Y147473D01*
X149480Y146769D01*
X150393Y146369D01*
X151390Y146328D01*
X152248Y146044D02*
X152062Y146186D01*
X162071Y152071D02*
X162730Y152798D01*
X163315Y153586D01*
X163819Y154428D01*
X164239Y155315D01*
X164569Y156239D01*
X164808Y157191D01*
X164952Y158162D01*
X165000Y159142D01*
X160500Y150500D02*
X159862Y149786D01*
X159308Y149006D01*
X158845Y148168D01*
X158479Y147284D01*
X158214Y146364D01*
X158054Y145420D01*
X158000Y144465D01*
Y139878D02*
X157709Y140584D01*
X144322Y152678D02*
X145079Y151994D01*
X145901Y151390D01*
X146781Y150873D01*
X147709Y150449D01*
X148327Y149381D02*
X147709Y150449D01*
X135033Y161361D02*
X134758Y162242D01*
X135033Y161361D02*
X135090Y160408D01*
X135582Y159590D01*
X132502Y164498D02*
X132500Y164500D01*
X203000Y176125D02*
X202923Y176309D01*
X184000Y157142D02*
X184048Y156162D01*
X184192Y155191D01*
X184431Y154239D01*
X184761Y153315D01*
X185181Y152428D01*
X185685Y151586D01*
X186270Y150798D01*
X186929Y150071D01*
X156000Y173358D02*
X155952Y174338D01*
X155808Y175309D01*
X155569Y176261D01*
X155239Y177185D01*
X154819Y178072D01*
X154315Y178914D01*
X153730Y179702D01*
X153071Y180429D01*
X138642Y211500D02*
X137662Y211452D01*
X136691Y211308D01*
X135739Y211069D01*
X134815Y210739D01*
X133928Y210319D01*
X133086Y209815D01*
X132298Y209230D01*
X131571Y208571D01*
X148858Y204500D02*
X149838Y204548D01*
X150809Y204692D01*
X151761Y204931D01*
X152685Y205261D01*
X153572Y205681D01*
X154414Y206185D01*
X155202Y206770D01*
X155929Y207429D01*
X175429Y122071D02*
X174702Y122730D01*
X173914Y123315D01*
X173072Y123819D01*
X172185Y124239D01*
X171261Y124569D01*
X170309Y124808D01*
X169338Y124952D01*
X168358Y125000D01*
X192358Y154500D02*
X193338Y154548D01*
X194309Y154692D01*
X195261Y154931D01*
X196185Y155261D01*
X197072Y155681D01*
X197914Y156185D01*
X198702Y156770D01*
X199429Y157429D01*
X187016Y184126D02*
Y231300D01*
X189945Y177055D02*
X191500Y175500D01*
X184000Y199000D02*
Y210000D01*
X177500Y167500D02*
Y173000D01*
X174500Y151000D02*
Y210000D01*
X171000Y170161D02*
Y172500D01*
Y170161D02*
Y170161D01*
Y153000D02*
Y165839D01*
X164993Y167003D02*
X165000Y163803D01*
X166500Y152500D02*
Y155576D01*
X167000Y159142D02*
Y164668D01*
X152248Y146044D02*
X152254Y146039D01*
X140475Y156511D02*
X140494Y156497D01*
X152254Y146039D02*
X157709Y140584D01*
X140570Y156430D02*
X140575Y156425D01*
X165000Y159142D02*
Y163803D01*
X158000Y140584D02*
Y144465D01*
X152042Y146198D02*
X152062Y146186D01*
X140575Y156425D02*
X144322Y152678D01*
X160500Y150500D02*
X162071Y152071D01*
X184000Y157142D02*
Y199000D01*
X158000Y131500D02*
Y139878D01*
X135582Y159590D02*
X135649Y159523D01*
X132502Y164498D02*
X134758Y162242D01*
X144142Y158000D02*
X150500D01*
X155000Y153000D02*
Y172358D01*
X156000Y173358D01*
X138642Y211500D02*
X150500D01*
X203000Y161000D02*
Y176125D01*
X186929Y150071D02*
X190000Y147000D01*
X188268Y153768D02*
X190468D01*
X191200Y154500D02*
X192358D01*
X188000Y153500D02*
X188268Y153768D01*
X190468D02*
X191200Y154500D01*
X151000Y149000D02*
X155000Y153000D01*
X175987Y131013D02*
X178000Y129000D01*
X170358Y132000D02*
X174500D01*
X175487Y131013D02*
X175987D01*
X174500Y132000D02*
X175487Y131013D01*
X158000Y131500D02*
X169858D01*
X170358Y132000D01*
X150000Y183500D02*
X153071Y180429D01*
X128000Y205000D02*
X131571Y208571D01*
X155929Y207429D02*
X159000Y210500D01*
X135000Y204500D02*
X148858D01*
X175429Y122071D02*
X178000Y119500D01*
X158500Y125000D02*
X168358D01*
X199429Y157429D02*
X203000Y161000D01*
D43*
X137000Y138500D02*
D03*
Y119287D02*
D03*
D44*
X160500Y227000D02*
D03*
X170500D02*
D03*
X180500D02*
D03*
Y237000D02*
D03*
X170500D02*
D03*
X160500D02*
D03*
D45*
X187016Y231300D02*
D03*
X184000Y210000D02*
D03*
X191500Y175500D02*
D03*
X177500Y173000D02*
D03*
Y167500D02*
D03*
X174500Y210000D02*
D03*
Y151000D02*
D03*
X171000Y172500D02*
D03*
X169000Y168000D02*
D03*
X164993Y167003D02*
D03*
X171000Y153000D02*
D03*
X166500Y152500D02*
D03*
X132500Y164500D02*
D03*
X150500Y211500D02*
D03*
X202923Y176309D02*
D03*
X190000Y147000D02*
D03*
X188000Y153500D02*
D03*
X155000Y153000D02*
D03*
X151000Y149000D02*
D03*
X178000Y129000D02*
D03*
X158000Y131500D02*
D03*
X184000Y199000D02*
D03*
X150000Y183500D02*
D03*
X128000Y205000D02*
D03*
X159000Y210500D02*
D03*
X135000Y204500D02*
D03*
X178000Y119500D02*
D03*
X158500Y125000D02*
D03*
X150500Y158000D02*
D03*
D46*
X208000Y238000D02*
D03*
Y228000D02*
D03*
Y218000D02*
D03*
Y208000D02*
D03*
M02*
