G04*
G04 #@! TF.GenerationSoftware,Altium Limited,Altium Designer,21.7.2 (23)*
G04*
G04 Layer_Color=255*
%FSLAX25Y25*%
%MOIN*%
G70*
G04*
G04 #@! TF.SameCoordinates,EFE0DB7C-8DF4-417F-AAEE-3D65EF856589*
G04*
G04*
G04 #@! TF.FilePolarity,Positive*
G04*
G01*
G75*
%ADD16R,0.02153X0.04168*%
G04:AMPARAMS|DCode=17|XSize=41.68mil|YSize=21.53mil|CornerRadius=10.77mil|HoleSize=0mil|Usage=FLASHONLY|Rotation=270.000|XOffset=0mil|YOffset=0mil|HoleType=Round|Shape=RoundedRectangle|*
%AMROUNDEDRECTD17*
21,1,0.04168,0.00000,0,0,270.0*
21,1,0.02015,0.02153,0,0,270.0*
1,1,0.02153,0.00000,-0.01008*
1,1,0.02153,0.00000,0.01008*
1,1,0.02153,0.00000,0.01008*
1,1,0.02153,0.00000,-0.01008*
%
%ADD17ROUNDEDRECTD17*%
%ADD18R,0.02987X0.03197*%
%ADD19R,0.02953X0.03347*%
G04:AMPARAMS|DCode=20|XSize=58.36mil|YSize=16.46mil|CornerRadius=8.23mil|HoleSize=0mil|Usage=FLASHONLY|Rotation=0.000|XOffset=0mil|YOffset=0mil|HoleType=Round|Shape=RoundedRectangle|*
%AMROUNDEDRECTD20*
21,1,0.05836,0.00000,0,0,0.0*
21,1,0.04190,0.01646,0,0,0.0*
1,1,0.01646,0.02095,0.00000*
1,1,0.01646,-0.02095,0.00000*
1,1,0.01646,-0.02095,0.00000*
1,1,0.01646,0.02095,0.00000*
%
%ADD20ROUNDEDRECTD20*%
%ADD21R,0.05836X0.01646*%
%ADD22O,0.05315X0.02165*%
%ADD23O,0.02165X0.05315*%
%ADD24R,0.02205X0.02047*%
%ADD25R,0.03197X0.02987*%
%ADD26R,0.03347X0.02953*%
%ADD27R,0.09449X0.06693*%
%ADD28R,0.01575X0.01968*%
%ADD29R,0.02047X0.02205*%
%ADD39C,0.11811*%
%ADD40C,0.06102*%
%ADD41R,0.06102X0.06102*%
%ADD46C,0.06000*%
%ADD47C,0.25000*%
D16*
X154102Y199952D02*
D03*
D17*
X146898D02*
D03*
X150500Y193048D02*
D03*
D18*
X196740Y183000D02*
D03*
X191806D02*
D03*
X197467Y119500D02*
D03*
X192533D02*
D03*
X197467Y111000D02*
D03*
X192533D02*
D03*
X196740Y191481D02*
D03*
X191806D02*
D03*
D19*
X191592Y162500D02*
D03*
X196710D02*
D03*
X178441Y150500D02*
D03*
X183559D02*
D03*
X134059Y176000D02*
D03*
X128941D02*
D03*
D20*
X184818Y180779D02*
D03*
Y178220D02*
D03*
Y175661D02*
D03*
Y173102D02*
D03*
Y170543D02*
D03*
Y167984D02*
D03*
Y165425D02*
D03*
Y162866D02*
D03*
Y160307D02*
D03*
Y157748D02*
D03*
X158332D02*
D03*
Y160307D02*
D03*
Y162866D02*
D03*
Y165425D02*
D03*
Y167984D02*
D03*
Y170543D02*
D03*
Y173102D02*
D03*
Y175661D02*
D03*
Y178220D02*
D03*
D21*
Y180779D02*
D03*
D22*
X151661Y138524D02*
D03*
Y135374D02*
D03*
Y132224D02*
D03*
Y129075D02*
D03*
Y125925D02*
D03*
Y122776D02*
D03*
Y119626D02*
D03*
Y116476D02*
D03*
X184339D02*
D03*
Y119626D02*
D03*
Y122776D02*
D03*
Y125925D02*
D03*
Y129075D02*
D03*
Y132224D02*
D03*
Y135374D02*
D03*
Y138524D02*
D03*
D23*
X156976Y111161D02*
D03*
X160126D02*
D03*
X163276D02*
D03*
X166425D02*
D03*
X169575D02*
D03*
X172724D02*
D03*
X175874D02*
D03*
X179024D02*
D03*
Y143839D02*
D03*
X175874D02*
D03*
X172724D02*
D03*
X169575D02*
D03*
X166425D02*
D03*
X163276D02*
D03*
X160126D02*
D03*
X156976D02*
D03*
D24*
X192465Y168000D02*
D03*
X195535D02*
D03*
D25*
X145500Y167467D02*
D03*
Y162533D02*
D03*
D26*
X148000Y172941D02*
D03*
Y178059D02*
D03*
D27*
X139000Y135642D02*
D03*
Y119500D02*
D03*
D28*
X128366Y190000D02*
D03*
X132500D02*
D03*
D29*
X137500Y165035D02*
D03*
Y161965D02*
D03*
D39*
X201500Y279500D02*
D03*
X202000Y258000D02*
D03*
D40*
X128433Y231421D02*
D03*
D41*
Y221579D02*
D03*
D46*
X208000Y208000D02*
D03*
Y218000D02*
D03*
Y228000D02*
D03*
Y238000D02*
D03*
X160500Y237000D02*
D03*
X170500D02*
D03*
X180500D02*
D03*
Y227000D02*
D03*
X170500D02*
D03*
X160500D02*
D03*
D47*
X166000Y78000D02*
D03*
Y270500D02*
D03*
M02*
