G04*
G04 #@! TF.GenerationSoftware,Altium Limited,Altium Designer,21.7.2 (23)*
G04*
G04 Layer_Color=2752767*
%FSLAX25Y25*%
%MOIN*%
G70*
G04*
G04 #@! TF.SameCoordinates,2E4BA60E-D3AD-4A97-8ED7-AAC6BF20B9F0*
G04*
G04*
G04 #@! TF.FilePolarity,Positive*
G04*
G01*
G75*
%ADD50C,0.00200*%
%ADD51C,0.00267*%
D50*
X165200Y77200D02*
Y78800D01*
X166800D01*
Y77200D01*
X165200D01*
Y269700D02*
Y271300D01*
X166800D01*
Y269700D01*
X165200D01*
X160500Y226200D02*
X159700Y227800D01*
X161300D01*
X160500Y226200D01*
X170500D02*
X169700Y227800D01*
X171300D01*
X170500Y226200D01*
X180500D02*
X179700Y227800D01*
X181300D01*
X180500Y226200D01*
Y236200D02*
X179700Y237800D01*
X181300D01*
X180500Y236200D01*
X170500D02*
X169700Y237800D01*
X171300D01*
X170500Y236200D01*
X160500D02*
X159700Y237800D01*
X161300D01*
X160500Y236200D01*
X143335Y156038D02*
X143735Y156438D01*
X144135D01*
X143735Y156838D01*
X144135Y157238D01*
X143735D01*
X143335Y157638D01*
X142935Y157238D01*
X142535D01*
X142935Y156838D01*
X142535Y156438D01*
X142935D01*
X143335Y156038D01*
X133500Y164200D02*
X133900Y164600D01*
X134300D01*
X133900Y165000D01*
X134300Y165400D01*
X133900D01*
X133500Y165800D01*
X133100Y165400D01*
X132700D01*
X133100Y165000D01*
X132700Y164600D01*
X133100D01*
X133500Y164200D01*
X154500Y219200D02*
X154900Y219600D01*
X155300D01*
X154900Y220000D01*
X155300Y220400D01*
X154900D01*
X154500Y220800D01*
X154100Y220400D01*
X153700D01*
X154100Y220000D01*
X153700Y219600D01*
X154100D01*
X154500Y219200D01*
Y210200D02*
X154900Y210600D01*
X155300D01*
X154900Y211000D01*
X155300Y211400D01*
X154900D01*
X154500Y211800D01*
X154100Y211400D01*
X153700D01*
X154100Y211000D01*
X153700Y210600D01*
X154100D01*
X154500Y210200D01*
X164000Y167700D02*
X164400Y168100D01*
X164800D01*
X164400Y168500D01*
X164800Y168900D01*
X164400D01*
X164000Y169300D01*
X163600Y168900D01*
X163200D01*
X163600Y168500D01*
X163200Y168100D01*
X163600D01*
X164000Y167700D01*
X180000Y193200D02*
X180400Y193600D01*
X180800D01*
X180400Y194000D01*
X180800Y194400D01*
X180400D01*
X180000Y194800D01*
X179600Y194400D01*
X179200D01*
X179600Y194000D01*
X179200Y193600D01*
X179600D01*
X180000Y193200D01*
X179000Y190200D02*
X179400Y190600D01*
X179800D01*
X179400Y191000D01*
X179800Y191400D01*
X179400D01*
X179000Y191800D01*
X178600Y191400D01*
X178200D01*
X178600Y191000D01*
X178200Y190600D01*
X178600D01*
X179000Y190200D01*
X178500Y179200D02*
X178900Y179600D01*
X179300D01*
X178900Y180000D01*
X179300Y180400D01*
X178900D01*
X178500Y180800D01*
X178100Y180400D01*
X177700D01*
X178100Y180000D01*
X177700Y179600D01*
X178100D01*
X178500Y179200D01*
X179000Y181700D02*
X179400Y182100D01*
X179800D01*
X179400Y182500D01*
X179800Y182900D01*
X179400D01*
X179000Y183300D01*
X178600Y182900D01*
X178200D01*
X178600Y182500D01*
X178200Y182100D01*
X178600D01*
X179000Y181700D01*
X178500Y172700D02*
X178900Y173100D01*
X179300D01*
X178900Y173500D01*
X179300Y173900D01*
X178900D01*
X178500Y174300D01*
X178100Y173900D01*
X177700D01*
X178100Y173500D01*
X177700Y173100D01*
X178100D01*
X178500Y172700D01*
X198000Y127700D02*
X198400Y128100D01*
X198800D01*
X198400Y128500D01*
X198800Y128900D01*
X198400D01*
X198000Y129300D01*
X197600Y128900D01*
X197200D01*
X197600Y128500D01*
X197200Y128100D01*
X197600D01*
X198000Y127700D01*
X193000Y114200D02*
X193400Y114600D01*
X193800D01*
X193400Y115000D01*
X193800Y115400D01*
X193400D01*
X193000Y115800D01*
X192600Y115400D01*
X192200D01*
X192600Y115000D01*
X192200Y114600D01*
X192600D01*
X193000Y114200D01*
X189196Y115701D02*
X189596Y116102D01*
X189996D01*
X189596Y116501D01*
X189996Y116902D01*
X189596D01*
X189196Y117301D01*
X188796Y116902D01*
X188396D01*
X188796Y116501D01*
X188396Y116102D01*
X188796D01*
X189196Y115701D01*
X158500Y130200D02*
X158900Y130600D01*
X159300D01*
X158900Y131000D01*
X159300Y131400D01*
X158900D01*
X158500Y131800D01*
X158100Y131400D01*
X157700D01*
X158100Y131000D01*
X157700Y130600D01*
X158100D01*
X158500Y130200D01*
X163000Y129200D02*
X163400Y129600D01*
X163800D01*
X163400Y130000D01*
X163800Y130400D01*
X163400D01*
X163000Y130800D01*
X162600Y130400D01*
X162200D01*
X162600Y130000D01*
X162200Y129600D01*
X162600D01*
X163000Y129200D01*
X178000Y128200D02*
X178400Y128600D01*
X178800D01*
X178400Y129000D01*
X178800Y129400D01*
X178400D01*
X178000Y129800D01*
X177600Y129400D01*
X177200D01*
X177600Y129000D01*
X177200Y128600D01*
X177600D01*
X178000Y128200D01*
Y165700D02*
X178400Y166100D01*
X178800D01*
X178400Y166500D01*
X178800Y166900D01*
X178400D01*
X178000Y167300D01*
X177600Y166900D01*
X177200D01*
X177600Y166500D01*
X177200Y166100D01*
X177600D01*
X178000Y165700D01*
X190000Y169200D02*
X190400Y169600D01*
X190800D01*
X190400Y170000D01*
X190800Y170400D01*
X190400D01*
X190000Y170800D01*
X189600Y170400D01*
X189200D01*
X189600Y170000D01*
X189200Y169600D01*
X189600D01*
X190000Y169200D01*
X128500Y185200D02*
X128900Y185600D01*
X129300D01*
X128900Y186000D01*
X129300Y186400D01*
X128900D01*
X128500Y186800D01*
X128100Y186400D01*
X127700D01*
X128100Y186000D01*
X127700Y185600D01*
X128100D01*
X128500Y185200D01*
X128000Y204200D02*
X128400Y204600D01*
X128800D01*
X128400Y205000D01*
X128800Y205400D01*
X128400D01*
X128000Y205800D01*
X127600Y205400D01*
X127200D01*
X127600Y205000D01*
X127200Y204600D01*
X127600D01*
X128000Y204200D01*
X187016Y230500D02*
X187416Y230900D01*
X187816D01*
X187416Y231300D01*
X187816Y231700D01*
X187416D01*
X187016Y232100D01*
X186616Y231700D01*
X186216D01*
X186616Y231300D01*
X186216Y230900D01*
X186616D01*
X187016Y230500D01*
X184000Y209200D02*
X184400Y209600D01*
X184800D01*
X184400Y210000D01*
X184800Y210400D01*
X184400D01*
X184000Y210800D01*
X183600Y210400D01*
X183200D01*
X183600Y210000D01*
X183200Y209600D01*
X183600D01*
X184000Y209200D01*
X191500Y174700D02*
X191900Y175100D01*
X192300D01*
X191900Y175500D01*
X192300Y175900D01*
X191900D01*
X191500Y176300D01*
X191100Y175900D01*
X190700D01*
X191100Y175500D01*
X190700Y175100D01*
X191100D01*
X191500Y174700D01*
X174500Y209200D02*
X174900Y209600D01*
X175300D01*
X174900Y210000D01*
X175300Y210400D01*
X174900D01*
X174500Y210800D01*
X174100Y210400D01*
X173700D01*
X174100Y210000D01*
X173700Y209600D01*
X174100D01*
X174500Y209200D01*
Y150200D02*
X174900Y150600D01*
X175300D01*
X174900Y151000D01*
X175300Y151400D01*
X174900D01*
X174500Y151800D01*
X174100Y151400D01*
X173700D01*
X174100Y151000D01*
X173700Y150600D01*
X174100D01*
X174500Y150200D01*
X171000Y171700D02*
X171400Y172100D01*
X171800D01*
X171400Y172500D01*
X171800Y172900D01*
X171400D01*
X171000Y173300D01*
X170600Y172900D01*
X170200D01*
X170600Y172500D01*
X170200Y172100D01*
X170600D01*
X171000Y171700D01*
X169000Y167200D02*
X169400Y167600D01*
X169800D01*
X169400Y168000D01*
X169800Y168400D01*
X169400D01*
X169000Y168800D01*
X168600Y168400D01*
X168200D01*
X168600Y168000D01*
X168200Y167600D01*
X168600D01*
X169000Y167200D01*
X171000Y152200D02*
X171400Y152600D01*
X171800D01*
X171400Y153000D01*
X171800Y153400D01*
X171400D01*
X171000Y153800D01*
X170600Y153400D01*
X170200D01*
X170600Y153000D01*
X170200Y152600D01*
X170600D01*
X171000Y152200D01*
X166500Y151700D02*
X166900Y152100D01*
X167300D01*
X166900Y152500D01*
X167300Y152900D01*
X166900D01*
X166500Y153300D01*
X166100Y152900D01*
X165700D01*
X166100Y152500D01*
X165700Y152100D01*
X166100D01*
X166500Y151700D01*
X150500Y210700D02*
X150900Y211100D01*
X151300D01*
X150900Y211500D01*
X151300Y211900D01*
X150900D01*
X150500Y212300D01*
X150100Y211900D01*
X149700D01*
X150100Y211500D01*
X149700Y211100D01*
X150100D01*
X150500Y210700D01*
X202923Y175509D02*
X203324Y175909D01*
X203724D01*
X203324Y176309D01*
X203724Y176709D01*
X203324D01*
X202923Y177109D01*
X202523Y176709D01*
X202123D01*
X202523Y176309D01*
X202123Y175909D01*
X202523D01*
X202923Y175509D01*
X190000Y146200D02*
X190400Y146600D01*
X190800D01*
X190400Y147000D01*
X190800Y147400D01*
X190400D01*
X190000Y147800D01*
X189600Y147400D01*
X189200D01*
X189600Y147000D01*
X189200Y146600D01*
X189600D01*
X190000Y146200D01*
X188000Y152700D02*
X188400Y153100D01*
X188800D01*
X188400Y153500D01*
X188800Y153900D01*
X188400D01*
X188000Y154300D01*
X187600Y153900D01*
X187200D01*
X187600Y153500D01*
X187200Y153100D01*
X187600D01*
X188000Y152700D01*
X155000Y152200D02*
X155400Y152600D01*
X155800D01*
X155400Y153000D01*
X155800Y153400D01*
X155400D01*
X155000Y153800D01*
X154600Y153400D01*
X154200D01*
X154600Y153000D01*
X154200Y152600D01*
X154600D01*
X155000Y152200D01*
X151000Y148200D02*
X151400Y148600D01*
X151800D01*
X151400Y149000D01*
X151800Y149400D01*
X151400D01*
X151000Y149800D01*
X150600Y149400D01*
X150200D01*
X150600Y149000D01*
X150200Y148600D01*
X150600D01*
X151000Y148200D01*
X184000Y198200D02*
X184400Y198600D01*
X184800D01*
X184400Y199000D01*
X184800Y199400D01*
X184400D01*
X184000Y199800D01*
X183600Y199400D01*
X183200D01*
X183600Y199000D01*
X183200Y198600D01*
X183600D01*
X184000Y198200D01*
X150000Y182700D02*
X150400Y183100D01*
X150800D01*
X150400Y183500D01*
X150800Y183900D01*
X150400D01*
X150000Y184300D01*
X149600Y183900D01*
X149200D01*
X149600Y183500D01*
X149200Y183100D01*
X149600D01*
X150000Y182700D01*
X159000Y209700D02*
X159400Y210100D01*
X159800D01*
X159400Y210500D01*
X159800Y210900D01*
X159400D01*
X159000Y211300D01*
X158600Y210900D01*
X158200D01*
X158600Y210500D01*
X158200Y210100D01*
X158600D01*
X159000Y209700D01*
X135000Y203700D02*
X135400Y204100D01*
X135800D01*
X135400Y204500D01*
X135800Y204900D01*
X135400D01*
X135000Y205300D01*
X134600Y204900D01*
X134200D01*
X134600Y204500D01*
X134200Y204100D01*
X134600D01*
X135000Y203700D01*
X178000Y118700D02*
X178400Y119100D01*
X178800D01*
X178400Y119500D01*
X178800Y119900D01*
X178400D01*
X178000Y120300D01*
X177600Y119900D01*
X177200D01*
X177600Y119500D01*
X177200Y119100D01*
X177600D01*
X178000Y118700D01*
X158500Y124200D02*
X158900Y124600D01*
X159300D01*
X158900Y125000D01*
X159300Y125400D01*
X158900D01*
X158500Y125800D01*
X158100Y125400D01*
X157700D01*
X158100Y125000D01*
X157700Y124600D01*
X158100D01*
X158500Y124200D01*
X150500Y157200D02*
X150900Y157600D01*
X151300D01*
X150900Y158000D01*
X151300Y158400D01*
X150900D01*
X150500Y158800D01*
X150100Y158400D01*
X149700D01*
X150100Y158000D01*
X149700Y157600D01*
X150100D01*
X150500Y157200D01*
X207200Y237200D02*
X207600Y238000D01*
X207200Y238800D01*
X208000Y238400D01*
X208800Y238800D01*
X208400Y238000D01*
X208800Y237200D01*
X208000Y237600D01*
X207200Y237200D01*
Y227200D02*
X207600Y228000D01*
X207200Y228800D01*
X208000Y228400D01*
X208800Y228800D01*
X208400Y228000D01*
X208800Y227200D01*
X208000Y227600D01*
X207200Y227200D01*
Y217200D02*
X207600Y218000D01*
X207200Y218800D01*
X208000Y218400D01*
X208800Y218800D01*
X208400Y218000D01*
X208800Y217200D01*
X208000Y217600D01*
X207200Y217200D01*
Y207200D02*
X207600Y208000D01*
X207200Y208800D01*
X208000Y208400D01*
X208800Y208800D01*
X208400Y208000D01*
X208800Y207200D01*
X208000Y207600D01*
X207200Y207200D01*
D51*
X129233Y231421D02*
X128680Y232182D01*
X127786Y231891D01*
Y230951D01*
X128680Y230660D01*
X129233Y231421D01*
Y221579D02*
X128680Y222339D01*
X127786Y222049D01*
Y221108D01*
X128680Y220818D01*
X129233Y221579D01*
M02*
