G04*
G04 #@! TF.GenerationSoftware,Altium Limited,Altium Designer,21.7.2 (23)*
G04*
G04 Layer_Color=2752767*
%FSLAX25Y25*%
%MOIN*%
G70*
G04*
G04 #@! TF.SameCoordinates,0C8D6FB2-2837-4D30-9AF1-B001FA4779AC*
G04*
G04*
G04 #@! TF.FilePolarity,Positive*
G04*
G01*
G75*
%ADD51C,0.00200*%
%ADD52C,0.00267*%
D51*
X127633Y230621D02*
Y232221D01*
X129233D01*
Y230621D01*
X127633D01*
Y220779D02*
Y222379D01*
X129233D01*
Y220779D01*
X127633D01*
X166000Y77200D02*
X165200Y78800D01*
X166800D01*
X166000Y77200D01*
Y269700D02*
X165200Y271300D01*
X166800D01*
X166000Y269700D01*
X178000Y134200D02*
X178400Y134600D01*
X178800D01*
X178400Y135000D01*
X178800Y135400D01*
X178400D01*
X178000Y135800D01*
X177600Y135400D01*
X177200D01*
X177600Y135000D01*
X177200Y134600D01*
X177600D01*
X178000Y134200D01*
X154200Y152200D02*
X154600Y153000D01*
X154200Y153800D01*
X155000Y153400D01*
X155800Y153800D01*
X155400Y153000D01*
X155800Y152200D01*
X155000Y152600D01*
X154200Y152200D01*
X146500Y186200D02*
X146900Y186600D01*
X147300D01*
X146900Y187000D01*
X147300Y187400D01*
X146900D01*
X146500Y187800D01*
X146100Y187400D01*
X145700D01*
X146100Y187000D01*
X145700Y186600D01*
X146100D01*
X146500Y186200D01*
X189500Y135200D02*
X189900Y135600D01*
X190300D01*
X189900Y136000D01*
X190300Y136400D01*
X189900D01*
X189500Y136800D01*
X189100Y136400D01*
X188700D01*
X189100Y136000D01*
X188700Y135600D01*
X189100D01*
X189500Y135200D01*
X196000Y174700D02*
X196400Y175100D01*
X196800D01*
X196400Y175500D01*
X196800Y175900D01*
X196400D01*
X196000Y176300D01*
X195600Y175900D01*
X195200D01*
X195600Y175500D01*
X195200Y175100D01*
X195600D01*
X196000Y174700D01*
X147700Y210700D02*
X148100Y211500D01*
X147700Y212300D01*
X148500Y211900D01*
X149300Y212300D01*
X148900Y211500D01*
X149300Y210700D01*
X148500Y211100D01*
X147700Y210700D01*
X178200Y181700D02*
X178600Y182500D01*
X178200Y183300D01*
X179000Y182900D01*
X179800Y183300D01*
X179400Y182500D01*
X179800Y181700D01*
X179000Y182100D01*
X178200Y181700D01*
X168200Y167200D02*
X168600Y168000D01*
X168200Y168800D01*
X169000Y168400D01*
X169800Y168800D01*
X169400Y168000D01*
X169800Y167200D01*
X169000Y167600D01*
X168200Y167200D01*
X196700Y217200D02*
X197100Y218000D01*
X196700Y218800D01*
X197500Y218400D01*
X198300Y218800D01*
X197900Y218000D01*
X198300Y217200D01*
X197500Y217600D01*
X196700Y217200D01*
X207200Y197200D02*
X207600Y198000D01*
X207200Y198800D01*
X208000Y198400D01*
X208800Y198800D01*
X208400Y198000D01*
X208800Y197200D01*
X208000Y197600D01*
X207200Y197200D01*
X207700Y163700D02*
X208100Y164500D01*
X207700Y165300D01*
X208500Y164900D01*
X209300Y165300D01*
X208900Y164500D01*
X209300Y163700D01*
X208500Y164100D01*
X207700Y163700D01*
X173534Y147512D02*
X173934Y148312D01*
X173534Y149112D01*
X174334Y148712D01*
X175134Y149112D01*
X174734Y148312D01*
X175134Y147512D01*
X174334Y147912D01*
X173534Y147512D01*
X170200Y152200D02*
X170600Y153000D01*
X170200Y153800D01*
X171000Y153400D01*
X171800Y153800D01*
X171400Y153000D01*
X171800Y152200D01*
X171000Y152600D01*
X170200Y152200D01*
X165700Y151700D02*
X166100Y152500D01*
X165700Y153300D01*
X166500Y152900D01*
X167300Y153300D01*
X166900Y152500D01*
X167300Y151700D01*
X166500Y152100D01*
X165700Y151700D01*
X173700Y152500D02*
X174100Y153300D01*
X173700Y154100D01*
X174500Y153700D01*
X175300Y154100D01*
X174900Y153300D01*
X175300Y152500D01*
X174500Y152900D01*
X173700Y152500D01*
X172200Y127200D02*
X172600Y128000D01*
X172200Y128800D01*
X173000Y128400D01*
X173800Y128800D01*
X173400Y128000D01*
X173800Y127200D01*
X173000Y127600D01*
X172200Y127200D01*
X168700Y133200D02*
X169100Y134000D01*
X168700Y134800D01*
X169500Y134400D01*
X170300Y134800D01*
X169900Y134000D01*
X170300Y133200D01*
X169500Y133600D01*
X168700Y133200D01*
X142535Y156038D02*
X142935Y156838D01*
X142535Y157638D01*
X143335Y157238D01*
X144135Y157638D01*
X143735Y156838D01*
X144135Y156038D01*
X143335Y156438D01*
X142535Y156038D01*
X132700Y164200D02*
X133100Y165000D01*
X132700Y165800D01*
X133500Y165400D01*
X134300Y165800D01*
X133900Y165000D01*
X134300Y164200D01*
X133500Y164600D01*
X132700Y164200D01*
X153700Y219200D02*
X154100Y220000D01*
X153700Y220800D01*
X154500Y220400D01*
X155300Y220800D01*
X154900Y220000D01*
X155300Y219200D01*
X154500Y219600D01*
X153700Y219200D01*
Y210200D02*
X154100Y211000D01*
X153700Y211800D01*
X154500Y211400D01*
X155300Y211800D01*
X154900Y211000D01*
X155300Y210200D01*
X154500Y210600D01*
X153700Y210200D01*
X163200Y167700D02*
X163600Y168500D01*
X163200Y169300D01*
X164000Y168900D01*
X164800Y169300D01*
X164400Y168500D01*
X164800Y167700D01*
X164000Y168100D01*
X163200Y167700D01*
X179200Y193200D02*
X179600Y194000D01*
X179200Y194800D01*
X180000Y194400D01*
X180800Y194800D01*
X180400Y194000D01*
X180800Y193200D01*
X180000Y193600D01*
X179200Y193200D01*
X178200Y190200D02*
X178600Y191000D01*
X178200Y191800D01*
X179000Y191400D01*
X179800Y191800D01*
X179400Y191000D01*
X179800Y190200D01*
X179000Y190600D01*
X178200Y190200D01*
X197200Y127700D02*
X197600Y128500D01*
X197200Y129300D01*
X198000Y128900D01*
X198800Y129300D01*
X198400Y128500D01*
X198800Y127700D01*
X198000Y128100D01*
X197200Y127700D01*
X192200Y114200D02*
X192600Y115000D01*
X192200Y115800D01*
X193000Y115400D01*
X193800Y115800D01*
X193400Y115000D01*
X193800Y114200D01*
X193000Y114600D01*
X192200Y114200D01*
X188396Y115701D02*
X188796Y116501D01*
X188396Y117301D01*
X189196Y116902D01*
X189996Y117301D01*
X189596Y116501D01*
X189996Y115701D01*
X189196Y116102D01*
X188396Y115701D01*
X157700Y130200D02*
X158100Y131000D01*
X157700Y131800D01*
X158500Y131400D01*
X159300Y131800D01*
X158900Y131000D01*
X159300Y130200D01*
X158500Y130600D01*
X157700Y130200D01*
X162200Y129200D02*
X162600Y130000D01*
X162200Y130800D01*
X163000Y130400D01*
X163800Y130800D01*
X163400Y130000D01*
X163800Y129200D01*
X163000Y129600D01*
X162200Y129200D01*
X177200Y128200D02*
X177600Y129000D01*
X177200Y129800D01*
X178000Y129400D01*
X178800Y129800D01*
X178400Y129000D01*
X178800Y128200D01*
X178000Y128600D01*
X177200Y128200D01*
Y165700D02*
X177600Y166500D01*
X177200Y167300D01*
X178000Y166900D01*
X178800Y167300D01*
X178400Y166500D01*
X178800Y165700D01*
X178000Y166100D01*
X177200Y165700D01*
X189200Y169200D02*
X189600Y170000D01*
X189200Y170800D01*
X190000Y170400D01*
X190800Y170800D01*
X190400Y170000D01*
X190800Y169200D01*
X190000Y169600D01*
X189200Y169200D01*
X127700Y185200D02*
X128100Y186000D01*
X127700Y186800D01*
X128500Y186400D01*
X129300Y186800D01*
X128900Y186000D01*
X129300Y185200D01*
X128500Y185600D01*
X127700Y185200D01*
X127200Y204200D02*
X127600Y205000D01*
X127200Y205800D01*
X128000Y205400D01*
X128800Y205800D01*
X128400Y205000D01*
X128800Y204200D01*
X128000Y204600D01*
X127200Y204200D01*
X186216Y230500D02*
X186616Y231300D01*
X186216Y232100D01*
X187016Y231700D01*
X187816Y232100D01*
X187416Y231300D01*
X187816Y230500D01*
X187016Y230900D01*
X186216Y230500D01*
X183200Y209200D02*
X183600Y210000D01*
X183200Y210800D01*
X184000Y210400D01*
X184800Y210800D01*
X184400Y210000D01*
X184800Y209200D01*
X184000Y209600D01*
X183200Y209200D01*
X190700Y174700D02*
X191100Y175500D01*
X190700Y176300D01*
X191500Y175900D01*
X192300Y176300D01*
X191900Y175500D01*
X192300Y174700D01*
X191500Y175100D01*
X190700Y174700D01*
X173700Y209200D02*
X174100Y210000D01*
X173700Y210800D01*
X174500Y210400D01*
X175300Y210800D01*
X174900Y210000D01*
X175300Y209200D01*
X174500Y209600D01*
X173700Y209200D01*
X170200Y171700D02*
X170600Y172500D01*
X170200Y173300D01*
X171000Y172900D01*
X171800Y173300D01*
X171400Y172500D01*
X171800Y171700D01*
X171000Y172100D01*
X170200Y171700D01*
X202123Y175509D02*
X202523Y176309D01*
X202123Y177109D01*
X202923Y176709D01*
X203724Y177109D01*
X203324Y176309D01*
X203724Y175509D01*
X202923Y175909D01*
X202123Y175509D01*
X189200Y146200D02*
X189600Y147000D01*
X189200Y147800D01*
X190000Y147400D01*
X190800Y147800D01*
X190400Y147000D01*
X190800Y146200D01*
X190000Y146600D01*
X189200Y146200D01*
X187200Y152700D02*
X187600Y153500D01*
X187200Y154300D01*
X188000Y153900D01*
X188800Y154300D01*
X188400Y153500D01*
X188800Y152700D01*
X188000Y153100D01*
X187200Y152700D01*
X150200Y148200D02*
X150600Y149000D01*
X150200Y149800D01*
X151000Y149400D01*
X151800Y149800D01*
X151400Y149000D01*
X151800Y148200D01*
X151000Y148600D01*
X150200Y148200D01*
X183200Y198200D02*
X183600Y199000D01*
X183200Y199800D01*
X184000Y199400D01*
X184800Y199800D01*
X184400Y199000D01*
X184800Y198200D01*
X184000Y198600D01*
X183200Y198200D01*
X149200Y182700D02*
X149600Y183500D01*
X149200Y184300D01*
X150000Y183900D01*
X150800Y184300D01*
X150400Y183500D01*
X150800Y182700D01*
X150000Y183100D01*
X149200Y182700D01*
X158200Y209700D02*
X158600Y210500D01*
X158200Y211300D01*
X159000Y210900D01*
X159800Y211300D01*
X159400Y210500D01*
X159800Y209700D01*
X159000Y210100D01*
X158200Y209700D01*
X134200Y203700D02*
X134600Y204500D01*
X134200Y205300D01*
X135000Y204900D01*
X135800Y205300D01*
X135400Y204500D01*
X135800Y203700D01*
X135000Y204100D01*
X134200Y203700D01*
X177200Y118700D02*
X177600Y119500D01*
X177200Y120300D01*
X178000Y119900D01*
X178800Y120300D01*
X178400Y119500D01*
X178800Y118700D01*
X178000Y119100D01*
X177200Y118700D01*
X157700Y124200D02*
X158100Y125000D01*
X157700Y125800D01*
X158500Y125400D01*
X159300Y125800D01*
X158900Y125000D01*
X159300Y124200D01*
X158500Y124600D01*
X157700Y124200D01*
X149700Y157200D02*
X150100Y158000D01*
X149700Y158800D01*
X150500Y158400D01*
X151300Y158800D01*
X150900Y158000D01*
X151300Y157200D01*
X150500Y157600D01*
X149700Y157200D01*
D52*
X208800Y208000D02*
X208247Y208761D01*
X207353Y208470D01*
Y207530D01*
X208247Y207239D01*
X208800Y208000D01*
Y218000D02*
X208247Y218761D01*
X207353Y218470D01*
Y217530D01*
X208247Y217239D01*
X208800Y218000D01*
Y228000D02*
X208247Y228761D01*
X207353Y228470D01*
Y227530D01*
X208247Y227239D01*
X208800Y228000D01*
Y238000D02*
X208247Y238761D01*
X207353Y238470D01*
Y237530D01*
X208247Y237239D01*
X208800Y238000D01*
X161300Y237000D02*
X160747Y237761D01*
X159853Y237470D01*
Y236530D01*
X160747Y236239D01*
X161300Y237000D01*
X171300D02*
X170747Y237761D01*
X169853Y237470D01*
Y236530D01*
X170747Y236239D01*
X171300Y237000D01*
X181300D02*
X180747Y237761D01*
X179853Y237470D01*
Y236530D01*
X180747Y236239D01*
X181300Y237000D01*
Y227000D02*
X180747Y227761D01*
X179853Y227470D01*
Y226530D01*
X180747Y226239D01*
X181300Y227000D01*
X171300D02*
X170747Y227761D01*
X169853Y227470D01*
Y226530D01*
X170747Y226239D01*
X171300Y227000D01*
X161300D02*
X160747Y227761D01*
X159853Y227470D01*
Y226530D01*
X160747Y226239D01*
X161300Y227000D01*
M02*
