G04*
G04 #@! TF.GenerationSoftware,Altium Limited,Altium Designer,21.7.2 (23)*
G04*
G04 Layer_Color=32896*
%FSLAX25Y25*%
%MOIN*%
G70*
G04*
G04 #@! TF.SameCoordinates,BBFDD30D-88FA-400C-AE8C-9891A4E3AC37*
G04*
G04*
G04 #@! TF.FilePolarity,Positive*
G04*
G01*
G75*
%ADD13C,0.00787*%
%ADD50C,0.00394*%
%ADD51C,0.00197*%
D13*
X190645Y108835D02*
Y113165D01*
Y108835D02*
X199355D01*
Y113165D01*
X190645D02*
X199355D01*
X156602Y190571D02*
Y202429D01*
X144398Y190571D02*
X156602D01*
X144398D02*
Y202429D01*
X156602D01*
X189918Y180835D02*
X198628D01*
X189918D02*
Y185165D01*
X198628D01*
Y180835D02*
Y185165D01*
X155021Y154697D02*
Y183831D01*
Y154697D02*
X188130D01*
Y183831D01*
X155021D02*
X188130D01*
X143335Y160645D02*
X147665D01*
Y169355D01*
X143335D02*
X147665D01*
X143335Y160645D02*
Y169355D01*
X118787Y211539D02*
X142213D01*
Y241461D01*
X118787D02*
X142213D01*
X118787Y211539D02*
Y241461D01*
X189918Y189316D02*
Y193647D01*
Y189316D02*
X198628D01*
Y193647D01*
X189918D02*
X198628D01*
D50*
X194000Y166917D02*
Y169083D01*
X192917Y168000D02*
X195083D01*
X136417Y163500D02*
X138583D01*
X137500Y162417D02*
Y164583D01*
D51*
X190850Y169575D02*
X197150D01*
X190850Y166425D02*
X197150D01*
X190850D02*
Y169575D01*
X197150Y166425D02*
Y169575D01*
X139075Y160350D02*
Y166650D01*
X135925Y160350D02*
Y166650D01*
X139075D01*
X135925Y160350D02*
X139075D01*
M02*
