G04*
G04 #@! TF.GenerationSoftware,Altium Limited,Altium Designer,21.7.2 (23)*
G04*
G04 Layer_Color=16711935*
%FSLAX25Y25*%
%MOIN*%
G70*
G04*
G04 #@! TF.SameCoordinates,0C8D6FB2-2837-4D30-9AF1-B001FA4779AC*
G04*
G04*
G04 #@! TF.FilePolarity,Negative*
G04*
G01*
G75*
%ADD38C,0.06102*%
%ADD39R,0.06102X0.06102*%
%ADD40C,0.06591*%
%ADD41C,0.44291*%
%ADD42C,0.02591*%
%ADD43C,0.02991*%
D38*
X128433Y231421D02*
D03*
D39*
Y221579D02*
D03*
D40*
X208000Y208000D02*
D03*
Y218000D02*
D03*
Y228000D02*
D03*
Y238000D02*
D03*
X160500Y237000D02*
D03*
X170500D02*
D03*
X180500D02*
D03*
Y227000D02*
D03*
X170500D02*
D03*
X160500D02*
D03*
D41*
X166000Y78000D02*
D03*
Y270500D02*
D03*
D42*
X178000Y135000D02*
D03*
X146500Y187000D02*
D03*
X189500Y136000D02*
D03*
X196000Y175500D02*
D03*
D43*
X155000Y153000D02*
D03*
X148500Y211500D02*
D03*
X179000Y182500D02*
D03*
X169000Y168000D02*
D03*
X197500Y218000D02*
D03*
X208000Y198000D02*
D03*
X208500Y164500D02*
D03*
X174334Y148312D02*
D03*
X171000Y153000D02*
D03*
X166500Y152500D02*
D03*
X174500Y153300D02*
D03*
X173000Y128000D02*
D03*
X169500Y134000D02*
D03*
X143335Y156838D02*
D03*
X133500Y165000D02*
D03*
X154500Y220000D02*
D03*
Y211000D02*
D03*
X164000Y168500D02*
D03*
X180000Y194000D02*
D03*
X179000Y191000D02*
D03*
X198000Y128500D02*
D03*
X193000Y115000D02*
D03*
X189196Y116501D02*
D03*
X158500Y131000D02*
D03*
X163000Y130000D02*
D03*
X178000Y129000D02*
D03*
Y166500D02*
D03*
X190000Y170000D02*
D03*
X128500Y186000D02*
D03*
X128000Y205000D02*
D03*
X187016Y231300D02*
D03*
X184000Y210000D02*
D03*
X191500Y175500D02*
D03*
X174500Y210000D02*
D03*
X171000Y172500D02*
D03*
X202923Y176309D02*
D03*
X190000Y147000D02*
D03*
X188000Y153500D02*
D03*
X151000Y149000D02*
D03*
X184000Y199000D02*
D03*
X150000Y183500D02*
D03*
X159000Y210500D02*
D03*
X135000Y204500D02*
D03*
X178000Y119500D02*
D03*
X158500Y125000D02*
D03*
X150500Y158000D02*
D03*
M02*
