G04*
G04 #@! TF.GenerationSoftware,Altium Limited,Altium Designer,21.7.2 (23)*
G04*
G04 Layer_Color=255*
%FSLAX25Y25*%
%MOIN*%
G70*
G04*
G04 #@! TF.SameCoordinates,73D3D296-878F-4BD7-B675-30F9F54128A0*
G04*
G04*
G04 #@! TF.FilePolarity,Positive*
G04*
G01*
G75*
%ADD16R,0.09449X0.06693*%
%ADD17R,0.02953X0.03347*%
%ADD18R,0.01575X0.01968*%
G04:AMPARAMS|DCode=19|XSize=21.65mil|YSize=31.5mil|CornerRadius=1.95mil|HoleSize=0mil|Usage=FLASHONLY|Rotation=0.000|XOffset=0mil|YOffset=0mil|HoleType=Round|Shape=RoundedRectangle|*
%AMROUNDEDRECTD19*
21,1,0.02165,0.02760,0,0,0.0*
21,1,0.01776,0.03150,0,0,0.0*
1,1,0.00390,0.00888,-0.01380*
1,1,0.00390,-0.00888,-0.01380*
1,1,0.00390,-0.00888,0.01380*
1,1,0.00390,0.00888,0.01380*
%
%ADD19ROUNDEDRECTD19*%
%ADD20O,0.02165X0.05315*%
%ADD21O,0.05315X0.02165*%
%ADD22R,0.05836X0.01646*%
G04:AMPARAMS|DCode=23|XSize=58.36mil|YSize=16.46mil|CornerRadius=8.23mil|HoleSize=0mil|Usage=FLASHONLY|Rotation=0.000|XOffset=0mil|YOffset=0mil|HoleType=Round|Shape=RoundedRectangle|*
%AMROUNDEDRECTD23*
21,1,0.05836,0.00000,0,0,0.0*
21,1,0.04190,0.01646,0,0,0.0*
1,1,0.01646,0.02095,0.00000*
1,1,0.01646,-0.02095,0.00000*
1,1,0.01646,-0.02095,0.00000*
1,1,0.01646,0.02095,0.00000*
%
%ADD23ROUNDEDRECTD23*%
%ADD24R,0.03347X0.02953*%
%ADD25R,0.02047X0.02205*%
%ADD26R,0.02205X0.02047*%
%ADD27R,0.02987X0.03197*%
%ADD28R,0.03197X0.02987*%
%ADD39C,0.11811*%
%ADD40C,0.06102*%
%ADD41R,0.06102X0.06102*%
%ADD46C,0.06000*%
%ADD47C,0.25000*%
D16*
X139000Y135642D02*
D03*
Y119500D02*
D03*
D17*
X183559Y150500D02*
D03*
X178441D02*
D03*
X196710Y162500D02*
D03*
X191592D02*
D03*
X134059Y176000D02*
D03*
X128941D02*
D03*
D18*
X128366Y190000D02*
D03*
X132500D02*
D03*
D19*
X158240Y192980D02*
D03*
X150760D02*
D03*
Y203020D02*
D03*
X154500D02*
D03*
X158240D02*
D03*
D20*
X156976Y143839D02*
D03*
X160126D02*
D03*
X163276D02*
D03*
X166425D02*
D03*
X169575D02*
D03*
X172724D02*
D03*
X175874D02*
D03*
X179024D02*
D03*
Y111161D02*
D03*
X175874D02*
D03*
X172724D02*
D03*
X169575D02*
D03*
X166425D02*
D03*
X163276D02*
D03*
X160126D02*
D03*
X156976D02*
D03*
D21*
X184339Y138524D02*
D03*
Y135374D02*
D03*
Y132224D02*
D03*
Y129075D02*
D03*
Y125925D02*
D03*
Y122776D02*
D03*
Y119626D02*
D03*
Y116476D02*
D03*
X151661D02*
D03*
Y119626D02*
D03*
Y122776D02*
D03*
Y125925D02*
D03*
Y129075D02*
D03*
Y132224D02*
D03*
Y135374D02*
D03*
Y138524D02*
D03*
D22*
X158332Y185516D02*
D03*
D23*
Y182957D02*
D03*
Y180398D02*
D03*
Y177839D02*
D03*
Y175280D02*
D03*
Y172720D02*
D03*
Y170161D02*
D03*
Y167602D02*
D03*
Y165043D02*
D03*
Y162484D02*
D03*
X184818D02*
D03*
Y165043D02*
D03*
Y167602D02*
D03*
Y170161D02*
D03*
Y172720D02*
D03*
Y175280D02*
D03*
Y177839D02*
D03*
Y180398D02*
D03*
Y182957D02*
D03*
Y185516D02*
D03*
D24*
X148000Y178059D02*
D03*
Y172941D02*
D03*
D25*
X137500Y165035D02*
D03*
Y161965D02*
D03*
D26*
X195535Y168000D02*
D03*
X192465D02*
D03*
D27*
X197467Y119500D02*
D03*
X192533D02*
D03*
X197467Y111000D02*
D03*
X192533D02*
D03*
X191806Y183000D02*
D03*
X196740D02*
D03*
Y191481D02*
D03*
X191806D02*
D03*
D28*
X192500Y132967D02*
D03*
Y128033D02*
D03*
X145500Y162533D02*
D03*
Y167467D02*
D03*
D39*
X201500Y279500D02*
D03*
X202000Y258000D02*
D03*
D40*
X128433Y231421D02*
D03*
D41*
Y221579D02*
D03*
D46*
X208000Y208000D02*
D03*
Y218000D02*
D03*
Y228000D02*
D03*
Y238000D02*
D03*
X160500Y237000D02*
D03*
X170500D02*
D03*
X180500D02*
D03*
Y227000D02*
D03*
X170500D02*
D03*
X160500D02*
D03*
D47*
X166000Y78000D02*
D03*
Y270500D02*
D03*
M02*
