G04*
G04 #@! TF.GenerationSoftware,Altium Limited,Altium Designer,21.7.2 (23)*
G04*
G04 Layer_Color=16711935*
%FSLAX25Y25*%
%MOIN*%
G70*
G04*
G04 #@! TF.SameCoordinates,BBFDD30D-88FA-400C-AE8C-9891A4E3AC37*
G04*
G04*
G04 #@! TF.FilePolarity,Positive*
G04*
G01*
G75*
%ADD14C,0.01000*%
%ADD50C,0.00394*%
D14*
X132405Y117433D02*
X145595D01*
X132405Y137709D02*
X145595D01*
X132405Y117433D02*
Y137709D01*
X145595Y117433D02*
Y137709D01*
D50*
X159732Y137736D02*
X159469Y138721D01*
X158748Y139441D01*
X157764Y139705D01*
X156780Y139441D01*
X156059Y138721D01*
X155795Y137736D01*
X156059Y136752D01*
X156780Y136031D01*
X157764Y135768D01*
X158748Y136031D01*
X159469Y136752D01*
X159732Y137736D01*
X190706Y160630D02*
Y164370D01*
X197596Y160630D02*
Y164370D01*
X190706D02*
X197596D01*
X190706Y160630D02*
X197596D01*
X177555Y148630D02*
Y152370D01*
X184445Y148630D02*
Y152370D01*
X177555D02*
X184445D01*
X177555Y148630D02*
X184445D01*
X154220Y113720D02*
Y141280D01*
X181780Y113720D02*
Y141280D01*
X154220D02*
X181780D01*
X154220Y113720D02*
X181780D01*
X146130Y172055D02*
X149870D01*
X146130Y178945D02*
X149870D01*
X146130Y172055D02*
Y178945D01*
X149870Y172055D02*
Y178945D01*
X128055Y174130D02*
X134945D01*
X128055Y177870D02*
X134945D01*
Y174130D02*
Y177870D01*
X128055Y174130D02*
Y177870D01*
M02*
