G04*
G04 #@! TF.GenerationSoftware,Altium Limited,Altium Designer,21.7.2 (23)*
G04*
G04 Layer_Physical_Order=1*
G04 Layer_Color=255*
%FSLAX25Y25*%
%MOIN*%
G70*
G04*
G04 #@! TF.SameCoordinates,EFE0DB7C-8DF4-417F-AAEE-3D65EF856589*
G04*
G04*
G04 #@! TF.FilePolarity,Positive*
G04*
G01*
G75*
%ADD15C,0.01000*%
%ADD16R,0.02153X0.04168*%
G04:AMPARAMS|DCode=17|XSize=41.68mil|YSize=21.53mil|CornerRadius=10.77mil|HoleSize=0mil|Usage=FLASHONLY|Rotation=270.000|XOffset=0mil|YOffset=0mil|HoleType=Round|Shape=RoundedRectangle|*
%AMROUNDEDRECTD17*
21,1,0.04168,0.00000,0,0,270.0*
21,1,0.02015,0.02153,0,0,270.0*
1,1,0.02153,0.00000,-0.01008*
1,1,0.02153,0.00000,0.01008*
1,1,0.02153,0.00000,0.01008*
1,1,0.02153,0.00000,-0.01008*
%
%ADD17ROUNDEDRECTD17*%
%ADD18R,0.02987X0.03197*%
%ADD19R,0.02953X0.03347*%
G04:AMPARAMS|DCode=20|XSize=58.36mil|YSize=16.46mil|CornerRadius=8.23mil|HoleSize=0mil|Usage=FLASHONLY|Rotation=0.000|XOffset=0mil|YOffset=0mil|HoleType=Round|Shape=RoundedRectangle|*
%AMROUNDEDRECTD20*
21,1,0.05836,0.00000,0,0,0.0*
21,1,0.04190,0.01646,0,0,0.0*
1,1,0.01646,0.02095,0.00000*
1,1,0.01646,-0.02095,0.00000*
1,1,0.01646,-0.02095,0.00000*
1,1,0.01646,0.02095,0.00000*
%
%ADD20ROUNDEDRECTD20*%
%ADD21R,0.05836X0.01646*%
%ADD22O,0.05315X0.02165*%
%ADD23O,0.02165X0.05315*%
%ADD24R,0.02205X0.02047*%
%ADD25R,0.03197X0.02987*%
%ADD26R,0.03347X0.02953*%
%ADD27R,0.09449X0.06693*%
%ADD28R,0.01575X0.01968*%
%ADD29R,0.02047X0.02205*%
%ADD39C,0.11811*%
%ADD40C,0.06102*%
%ADD41R,0.06102X0.06102*%
%ADD46C,0.06000*%
%ADD47C,0.25000*%
%ADD48C,0.02000*%
%ADD49C,0.02400*%
D15*
X174218Y170161D02*
X173255Y170098D01*
X172308Y169910D01*
X171394Y169600D01*
X170528Y169173D01*
X169726Y168637D01*
X169000Y168000D01*
X174218Y170161D02*
X174230Y170161D01*
X184906Y125448D02*
X185320Y125358D01*
X186754Y120333D02*
X187641Y120856D01*
X188254Y121684D01*
X188495Y122685D01*
X188325Y123701D01*
X187771Y124570D01*
X186923Y125153D01*
X185913Y125358D01*
X194482Y165471D02*
X194767Y165724D01*
X179781Y139795D02*
X179772Y139792D01*
X179781Y139795D02*
X180719Y140315D01*
X181364Y141172D01*
X181606Y142217D01*
X179473Y139720D02*
X178947Y139447D01*
X198566Y159376D02*
X198120Y159120D01*
X154984Y119626D02*
X155964Y119674D01*
X156935Y119818D01*
X157887Y120057D01*
X158811Y120387D01*
X159698Y120807D01*
X160540Y121311D01*
X161328Y121896D01*
X162055Y122555D01*
X179473Y139720D02*
X179689Y139765D01*
X198566Y159376D02*
X199374Y159910D01*
X199686Y160827D01*
X181895Y142895D02*
X181606Y142217D01*
X144752Y159248D02*
X144093Y159538D01*
X141618Y155106D02*
X140947Y154289D01*
X140366Y153406D01*
X139882Y152466D01*
X139499Y151481D01*
X139223Y150461D01*
X139056Y149417D01*
X139000Y148361D01*
X153148Y150696D02*
X153238Y150607D01*
X151654Y129081D02*
X151639Y129097D01*
X151428Y129319D02*
X151639Y129097D01*
X193787Y108010D02*
X193081Y108301D01*
X189939Y109401D02*
X190261Y108624D01*
X191039Y108301D01*
X189939Y111360D02*
X189915Y111573D01*
X189593Y112436D01*
X189052Y113182D01*
X188331Y113758D01*
X187484Y114120D01*
X186571Y114244D01*
X152902Y104500D02*
X153608Y104791D01*
X124000Y110531D02*
X124092Y109484D01*
X124364Y108468D01*
X124808Y107515D01*
X125411Y106654D01*
X126154Y105911D01*
X127015Y105308D01*
X127968Y104864D01*
X128983Y104592D01*
X130031Y104500D01*
X132776Y116154D02*
X133215Y115093D01*
X134276Y114654D01*
X169500Y134000D02*
X169575Y134181D01*
X148947Y140841D02*
X149500Y141731D01*
X148947Y140841D02*
X148147Y140229D01*
X147642Y139357D01*
X147509Y138359D01*
X147768Y137385D01*
X199686Y164173D02*
X199247Y165234D01*
X198186Y165673D01*
X166854Y145277D02*
X166535Y144589D01*
X166425Y143839D01*
X165467Y147812D02*
X165512Y147831D01*
X166340Y148659D02*
X166329Y148649D01*
X165467Y147812D02*
X164745Y147375D01*
X164202Y146728D01*
X163897Y145941D01*
X198961Y105901D02*
X200043Y106073D01*
X201018Y106570D01*
X201793Y107344D01*
X202290Y108320D01*
X202461Y109401D01*
X184000Y219358D02*
X183952Y220338D01*
X183808Y221309D01*
X183569Y222261D01*
X183239Y223185D01*
X182819Y224072D01*
X182315Y224914D01*
X181730Y225702D01*
X181071Y226429D01*
X151357Y119500D02*
X151661Y119626D01*
X133067Y129709D02*
X132776Y129003D01*
X135464Y132106D02*
X135753Y132795D01*
X146126Y116476D02*
X145170Y115752D01*
X143724Y114654D02*
X144632Y114959D01*
X145170Y115752D01*
X144760Y159240D02*
X144752Y159248D01*
X141816Y167325D02*
X141704Y167599D01*
X139500Y173152D02*
X139650Y172215D01*
X139663Y172177D02*
X140094Y171104D01*
X153429Y229929D02*
X152770Y229202D01*
X152185Y228414D01*
X151681Y227572D01*
X151261Y226685D01*
X150931Y225761D01*
X150692Y224809D01*
X150548Y223838D01*
X150500Y222858D01*
X178464Y109133D02*
X178363Y108896D01*
X176833Y107188D02*
X177798Y107863D01*
X178363Y108896D01*
X175353Y105833D02*
X175227Y105727D01*
X175353Y105833D02*
X176409Y106861D01*
X171586Y102500D02*
X172291Y102791D01*
X121500Y105500D02*
X121647Y104573D01*
X122073Y103737D01*
X122737Y103073D01*
X123573Y102647D01*
X124500Y102500D01*
X123965Y174327D02*
X123993Y173885D01*
X124000Y173768D02*
X123993Y173885D01*
X178464Y109133D02*
X178881Y110109D01*
X179024Y111161D01*
X176833Y107188D02*
X176409Y106861D01*
X174024Y237000D02*
X174730Y237291D01*
X176399Y238960D02*
X176561Y239177D01*
X184595Y238865D02*
X184087Y239718D01*
X183404Y240438D01*
X182580Y240990D01*
X181655Y241349D01*
X180674Y241497D01*
X179684Y241425D01*
X178735Y241139D01*
X177870Y240652D01*
X177134Y239987D01*
X176561Y239177D01*
X187016Y232342D02*
X186965Y233355D01*
X186811Y234358D01*
X186556Y235341D01*
X186203Y236292D01*
X185755Y237203D01*
X185217Y238064D01*
X184595Y238865D01*
X176481Y232981D02*
X176190Y232276D01*
X176156Y228176D02*
X176190Y228428D01*
X175815Y226200D02*
X175250Y225284D01*
X174837Y224290D01*
X174585Y223244D01*
X174500Y222172D01*
X176156Y228176D02*
X176004Y226822D01*
X175815Y226200D02*
X176004Y226822D01*
X178399Y150399D02*
X178441Y150500D01*
X163777Y145634D02*
X163403Y144771D01*
X163276Y143839D01*
X163777Y145634D02*
X163897Y145941D01*
X161743Y147743D02*
X161057Y146907D01*
X160546Y145952D01*
X160232Y144916D01*
X160126Y143839D01*
X202923Y180986D02*
X202707Y182076D01*
X202089Y183000D01*
X147769Y133363D02*
X147507Y132357D01*
X147664Y131328D01*
X148214Y130446D01*
X149068Y129851D01*
X150087Y129642D01*
X151428Y129319D02*
X150697Y129642D01*
X150080Y128930D02*
X150198Y129075D01*
X149385Y128411D02*
X149810Y128661D01*
X137567Y167933D02*
X138276Y167638D01*
X140024Y164914D02*
X140318Y164206D01*
X156685Y147315D02*
X156667Y147333D01*
X156976Y146609D02*
X156685Y147315D01*
X147769Y133363D02*
X147768Y134236D01*
X147768Y136512D02*
X147504Y135374D01*
X147768Y134236D01*
X147768Y136512D02*
Y137385D01*
X184339Y119626D02*
X185271Y119681D01*
X186190Y119845D01*
X187083Y120116D01*
X187939Y120490D01*
X188745Y120961D01*
X189489Y121525D01*
X184034Y119500D02*
X184339Y119626D01*
X184339Y119626D02*
X185496Y119784D01*
X186569Y120247D01*
X186754Y120333D02*
X186569Y120247D01*
X201686Y164173D02*
X201540Y165173D01*
X201500Y165450D02*
X201540Y165173D01*
X201540Y159827D02*
X201500Y159550D01*
Y123874D02*
X201711Y123264D01*
X202461Y121099D02*
X202268Y122245D01*
X201711Y123264D01*
X201540Y159827D02*
X201686Y160827D01*
X156487Y107051D02*
X155596Y106779D01*
X171895Y107141D02*
X171583Y107192D01*
X171895Y107141D02*
X172891Y107009D01*
X173863Y107268D01*
X174662Y107879D01*
X175167Y108748D01*
X168745Y107141D02*
X168434Y107192D01*
X170716D02*
X170399Y107139D01*
X168745Y107141D02*
X169572Y107004D01*
X170399Y107139D01*
X167566Y107192D02*
X167250Y107139D01*
X165596Y107141D02*
X166423Y107004D01*
X167250Y107139D01*
X165596Y107141D02*
X165284Y107192D01*
X162446Y107141D02*
X162134Y107192D01*
X164417D02*
X164100Y107139D01*
X162446Y107141D02*
X163273Y107004D01*
X164100Y107139D01*
X161267Y107192D02*
X160951Y107139D01*
X161929Y218429D02*
X161270Y217702D01*
X160685Y216914D01*
X160181Y216072D01*
X159761Y215185D01*
X159431Y214261D01*
X159192Y213309D01*
X159048Y212338D01*
X159000Y211358D01*
X135000Y204500D02*
X135853Y204853D01*
X124291Y193291D02*
X124000Y192586D01*
X123993Y178115D02*
X124000Y178232D01*
X123993Y178115D02*
X123965Y177673D01*
X159297Y107141D02*
X160124Y107004D01*
X160951Y107139D01*
X159297Y107141D02*
X158985Y107192D01*
X158118D02*
X157801Y107139D01*
X156487Y107051D02*
X157801Y107139D01*
X139500Y206369D02*
X139452Y207350D01*
X139308Y208320D01*
X139069Y209272D01*
X138739Y210196D01*
X138319Y211083D01*
X137815Y211925D01*
X137230Y212713D01*
X136571Y213440D01*
X141500Y206369D02*
X141455Y207413D01*
X141319Y208449D01*
X141093Y209469D01*
X140779Y210465D01*
X140381Y211430D01*
X139899Y212357D01*
X139339Y213239D01*
X138704Y214069D01*
X138000Y214840D01*
X141552Y172834D02*
X141886Y171994D01*
X142295Y171188D01*
X142774Y170423D01*
X143321Y169703D01*
X143931Y169036D01*
X132984Y220270D02*
X133275Y219565D01*
X141500Y173147D02*
X141552Y172834D01*
X175252Y108930D02*
X175167Y108748D01*
X175252Y108930D02*
X175716Y110003D01*
X175874Y111161D01*
X153130Y122776D02*
X154121Y122841D01*
X155095Y123034D01*
X156036Y123354D01*
X156927Y123793D01*
X157753Y124345D01*
X158500Y125000D01*
X149867Y123276D02*
X150730Y122903D01*
X151661Y122776D01*
X149867Y123276D02*
X149555Y123398D01*
X149385Y128411D02*
X148513Y127973D01*
X147866Y127244D01*
X147535Y126327D01*
X147568Y125352D01*
X147960Y124459D01*
X148655Y123775D01*
X149555Y123398D01*
X195372Y121761D02*
X194819Y122372D01*
X194026Y122599D01*
X196470Y120591D02*
X196474Y120587D01*
X191039Y122599D02*
X190268Y122385D01*
X189716Y121806D01*
X195535Y166673D02*
X195828Y165966D01*
X196535Y165673D01*
X193833Y164710D02*
X193513Y164421D01*
X193908Y164876D02*
X193833Y164710D01*
X194243Y165299D02*
X193908Y164876D01*
X194720Y165857D02*
X194655Y165785D01*
X194243Y165299D02*
X194353Y165414D01*
X139650Y172215D02*
X139653Y172204D01*
X139663Y172177D01*
X142401Y161708D02*
X142110Y162413D01*
X140024Y166138D02*
X139584Y167198D01*
X138524Y167638D01*
X134089Y174816D02*
X134217Y173813D01*
X134446Y172827D01*
X134774Y171870D01*
X135196Y170951D01*
X135710Y170080D01*
X136308Y169264D01*
X136986Y168514D01*
X142492Y165459D02*
X143242Y164627D01*
X143670Y164362D02*
X143414Y164542D01*
X131861Y226177D02*
X132133Y225982D01*
X128433Y230019D02*
X128725Y229314D01*
X132984Y224630D02*
X132754Y225429D01*
X132133Y225982D01*
X129571Y176630D02*
X130230Y177357D01*
X130815Y178145D01*
X131319Y178987D01*
X131739Y179874D01*
X132069Y180798D01*
X132308Y181750D01*
X132452Y182721D01*
X132500Y183701D01*
X195372Y121761D02*
X195555Y121506D01*
X189489Y121525D02*
X189716Y121806D01*
X160229Y201000D02*
X160500D01*
X154102Y199952D02*
X159181D01*
X160229Y201000D01*
X154102Y199952D02*
Y200959D01*
X154679Y201536D01*
X192533Y111000D02*
Y119395D01*
X189000Y117000D02*
X189191Y117191D01*
X192533Y119395D02*
Y119500D01*
X190329Y117191D02*
X192533Y119395D01*
X189191Y117191D02*
X190329D01*
X162832Y158040D02*
Y158062D01*
X160587Y160307D02*
X162832Y158062D01*
X158332Y160307D02*
X160587D01*
X130000Y165000D02*
X130035Y165035D01*
X137500D01*
X126365Y180693D02*
X128366Y182694D01*
X126365Y173871D02*
Y180693D01*
X128366Y182694D02*
Y190000D01*
X126365Y173871D02*
X134976Y165259D01*
X137276D01*
X137500Y165035D01*
X178414Y128907D02*
X178583Y129075D01*
X184339D01*
X153236Y132224D02*
X157276D01*
X151661D02*
X153236D01*
X157276D02*
X158500Y131000D01*
X153236Y132224D02*
X155419Y130042D01*
X153173Y125925D02*
X155419Y128171D01*
Y130042D01*
X151661Y125925D02*
X153173D01*
X183739Y184128D02*
X184867Y183000D01*
X191806D01*
X179500Y178500D02*
X179656Y178344D01*
X184695D02*
X184818Y178220D01*
X179656Y178344D02*
X184695D01*
X177500Y162500D02*
X177771D01*
X178137Y162866D01*
X187074D01*
X191941Y167476D02*
X192465Y168000D01*
X187074Y162866D02*
X191684Y167476D01*
X191941D01*
X184818Y175661D02*
Y178220D01*
X191806Y183000D02*
Y191481D01*
X155000Y153000D02*
X162000D01*
X160053Y178220D02*
X160352Y177922D01*
Y175897D02*
Y177922D01*
Y175897D02*
X165000Y171249D01*
X158332Y178220D02*
X160053D01*
X165000Y166000D02*
Y171249D01*
X162527Y161516D02*
X162798D01*
X164006Y160307D02*
X184818D01*
X162798Y161516D02*
X164006Y160307D01*
X156077Y162866D02*
X158332D01*
X154314Y161103D02*
X156077Y162866D01*
X154314Y159511D02*
Y161103D01*
Y159511D02*
X156077Y157748D01*
X158332D01*
X145605Y162533D02*
X150000Y158138D01*
Y158000D02*
Y158138D01*
X145500Y162533D02*
X145605D01*
X174230Y170161D02*
X174230D01*
X171000Y172500D02*
X171379D01*
X171981Y173102D01*
X174230Y170161D02*
X177468Y170200D01*
X185320Y125358D02*
X185913D01*
X184906Y125448D02*
X185436D01*
X183559Y150500D02*
Y150697D01*
Y147559D02*
Y150500D01*
X185436Y125448D02*
X193000Y133012D01*
Y138500D01*
X189229Y136000D02*
X189500D01*
X182000Y146000D02*
X183559Y147559D01*
X181895Y142895D02*
X198120Y159120D01*
X179473Y139720D02*
Y139720D01*
X179781Y139795D02*
Y139795D01*
X162055Y122555D02*
X178947Y139447D01*
X181895Y142895D02*
X181895Y142895D01*
X179689Y139765D02*
X179772Y139792D01*
X184000Y210000D02*
Y219358D01*
X152500Y155000D02*
X152768Y155268D01*
X154547Y155800D02*
X190207D01*
X196710Y162303D01*
X152768Y155268D02*
X154015D01*
X196710Y162303D02*
Y162500D01*
X154015Y155268D02*
X154547Y155800D01*
X143446Y159939D02*
X144093Y159538D01*
X142401Y161276D02*
X142801Y160583D01*
X149800Y154453D02*
X153148Y150696D01*
X144760Y159240D02*
X145346Y158654D01*
X141618Y155106D02*
X144740Y155432D01*
X145568D01*
X137725Y161706D02*
X138042Y161389D01*
X145346Y158654D02*
X148453Y155800D01*
X143568Y157432D02*
X145568Y155432D01*
X147500Y153500D01*
X138042Y161389D02*
X143568Y157432D01*
X142801Y160583D02*
X143446Y159939D01*
X148453Y155800D02*
X149800Y154453D01*
X142401Y161276D02*
Y161708D01*
X137500Y161965D02*
X137725Y161706D01*
X158332Y157748D02*
X160587D01*
X158332Y162866D02*
X160588D01*
X158332Y165425D02*
Y167984D01*
Y170543D02*
Y173102D01*
X153560Y175619D02*
X156077Y173102D01*
X143931Y169036D02*
X144391Y168576D01*
X145500Y167467D02*
X151476D01*
X156077Y162866D01*
X153560Y170501D02*
X156077Y167984D01*
X148000Y172941D02*
X151173D01*
X153560Y170554D01*
Y170501D02*
Y170554D01*
X156077Y167984D02*
X158332D01*
X151173Y178059D02*
X153560Y175673D01*
X148000Y178059D02*
X151173D01*
X153560Y175619D02*
Y175673D01*
X156077Y173102D02*
X158332D01*
X150000Y183500D02*
X155156Y178344D01*
X158209D02*
X158332Y178220D01*
X155156Y178344D02*
X158209D01*
X158332Y180779D02*
Y185516D01*
X149810Y128661D02*
X149810Y128661D01*
X150080Y128930D02*
X150080Y128930D01*
X151654Y129075D02*
X151661Y129075D01*
X151654Y129075D02*
Y129081D01*
Y129081D01*
X150198Y129075D02*
X151654D01*
X151661D01*
X188603Y135374D02*
X189229Y136000D01*
X184339Y135374D02*
X188603D01*
X184818Y157748D02*
Y160307D01*
X188836Y177042D02*
X189594Y177800D01*
X188836Y172306D02*
Y177042D01*
X187074Y170543D02*
X188836Y172306D01*
X184818Y170543D02*
X187074D01*
X187074Y167984D02*
X189213Y170124D01*
X196876D01*
X184818Y167984D02*
X187074D01*
X196876Y170124D02*
X198376D01*
X191500Y175500D02*
X196876Y170124D01*
X171981Y173102D02*
X184818D01*
X177468Y170200D02*
X177788D01*
X182563Y165425D02*
X184818D01*
X177788Y170200D02*
X182563Y165425D01*
X144400Y196446D02*
X146898Y198944D01*
X144400Y186130D02*
X147030Y183500D01*
X150000D01*
X146898Y198944D02*
Y199952D01*
X144400Y186130D02*
Y196446D01*
X150500Y193048D02*
X160450D01*
X166402Y199000D01*
X195895Y105901D02*
X198961Y105901D01*
X191039Y108301D02*
X193081D01*
X184339Y116476D02*
X186571Y114244D01*
X189939Y109401D02*
Y111360D01*
X193787Y108010D02*
X195895Y105901D01*
X124000Y110531D02*
Y173768D01*
X153608Y104791D02*
X155596Y106779D01*
X153608Y104791D02*
X153608Y104791D01*
X130031Y104500D02*
X152902D01*
X132776Y116154D02*
Y129003D01*
X134276Y114654D02*
X143724D01*
X179431Y135191D02*
X182764Y138524D01*
X178000Y135000D02*
X178191Y135191D01*
X182764Y138524D02*
X184339D01*
X178191Y135191D02*
X179431D01*
X169575Y134181D02*
Y143839D01*
X153238Y150607D02*
X156667Y147333D01*
X149500Y141731D02*
X151000Y143231D01*
Y149000D01*
X150600Y187000D02*
X152085Y185516D01*
X146500Y187000D02*
X150600D01*
X152085Y185516D02*
X158332D01*
X196535Y165673D02*
X198186D01*
X199686Y160827D02*
Y164173D01*
X193700Y177800D02*
X196000Y175500D01*
X189594Y177800D02*
X193700D01*
X148500Y211500D02*
X150500Y213500D01*
Y222858D01*
X197500Y218000D02*
X208000D01*
X208500Y164500D02*
Y198000D01*
X172724Y148000D02*
X174500D01*
X201239Y103901D02*
X205624Y108286D01*
X205300Y177751D02*
X205624Y177428D01*
X212500Y206136D02*
Y219864D01*
X205300Y177751D02*
Y199118D01*
X208991Y202627D02*
X212500Y206136D01*
X208809Y202627D02*
X208991D01*
X205300Y199118D02*
X208809Y202627D01*
X205624Y108286D02*
Y177428D01*
X208000Y198000D02*
X208500D01*
X174334Y148166D02*
X174500Y148000D01*
X174334Y148166D02*
Y148312D01*
X172724Y143839D02*
Y148000D01*
X166425Y143839D02*
Y145729D01*
X173700Y152121D02*
X174500Y152921D01*
X173700Y152055D02*
Y152121D01*
X173659Y152014D02*
X173700Y152055D01*
X168505Y147996D02*
X169815D01*
X173659Y151841D01*
X166992Y146483D02*
X168505Y147996D01*
X166992Y146296D02*
Y146483D01*
X174500Y152921D02*
Y153300D01*
X166425Y145729D02*
X166992Y146296D01*
X173659Y151841D02*
Y152014D01*
X166340Y148659D02*
X167677Y149996D01*
X167996D02*
X171000Y153000D01*
X167677Y149996D02*
X167996D01*
X165512Y147831D02*
X166329Y148649D01*
X161743Y147743D02*
X166500Y152500D01*
X176106Y153032D02*
X178441Y150697D01*
X174500Y153300D02*
X174768Y153032D01*
X178441Y150500D02*
Y150697D01*
X174768Y153032D02*
X176106D01*
X173000Y119263D02*
Y128000D01*
X176944Y115319D02*
X180093D01*
X173000Y119263D02*
X176944Y115319D01*
X180093D02*
X181606Y113806D01*
X189270Y103901D02*
X201239D01*
X181606Y111565D02*
X189270Y103901D01*
X181606Y111565D02*
Y113806D01*
X208278Y224086D02*
X212500Y219864D01*
X208278Y224086D02*
Y227722D01*
X208000Y228000D02*
X208278Y227722D01*
X202461Y109401D02*
Y121099D01*
X197000Y227000D02*
X208000Y238000D01*
X180500Y227000D02*
X197000D01*
X139000Y135642D02*
Y148361D01*
X151661Y119626D02*
X154984D01*
X139000Y119500D02*
X151357D01*
X135753Y132795D02*
X143224D01*
X135753D02*
X135753D01*
X135464Y132106D02*
X135464Y132106D01*
X133067Y129709D02*
X135464Y132106D01*
X133067Y129709D02*
X133067Y129709D01*
X146126Y116476D02*
X151661D01*
X146126D02*
X146126D01*
X139000Y135642D02*
X143224Y132795D01*
X141816Y167325D02*
X142492Y165459D01*
X140094Y171104D02*
X141704Y167599D01*
X139500Y173152D02*
X139500Y206369D01*
X153429Y229929D02*
X160500Y237000D01*
X196740Y183000D02*
Y191481D01*
X121500Y198500D02*
X128000Y205000D01*
X178363Y108896D02*
X178363Y108896D01*
X172291Y102791D02*
X175227Y105727D01*
X172291Y102791D02*
X172291Y102791D01*
X124500Y102500D02*
X171586D01*
X121500Y105500D02*
Y198500D01*
X135853Y204853D02*
X135853Y204853D01*
X124291Y193291D02*
X135853Y204853D01*
X170500Y237000D02*
X174024D01*
X174730Y237291D02*
X176399Y238960D01*
X174730Y237291D02*
X174730Y237291D01*
X187016Y231300D02*
Y232342D01*
X176481Y232981D02*
X180500Y237000D01*
X176190Y228428D02*
Y232276D01*
X174500Y210000D02*
Y222172D01*
X202923Y176309D02*
Y180986D01*
X183559Y150697D02*
X186094Y153232D01*
X187732D02*
X188000Y153500D01*
X186094Y153232D02*
X187732D01*
X166402Y199000D02*
X184000D01*
X149810Y128661D02*
X150080Y128930D01*
X150087Y129642D02*
X150697D01*
X140318Y164206D02*
X142110Y162413D01*
X136986Y168514D02*
X137567Y167933D01*
X156976Y143839D02*
Y146609D01*
X178000Y119500D02*
X184034D01*
X201686Y160827D02*
Y164173D01*
X201500Y165450D02*
Y167000D01*
Y123874D02*
Y159550D01*
X198376Y170124D02*
X201500Y167000D01*
X170399Y107139D02*
Y107139D01*
X170716Y107192D02*
X171583D01*
X170716D02*
X170716D01*
X167566D02*
X168434D01*
X167566D02*
X167566D01*
X167250Y107139D02*
Y107139D01*
X164100Y107139D02*
Y107139D01*
X164417Y107192D02*
X165284D01*
X164417D02*
X164417D01*
X161267D02*
X162134D01*
X161267D02*
X161267D01*
X160951Y107139D02*
Y107139D01*
X161929Y218429D02*
X170500Y227000D01*
X159000Y210500D02*
Y211358D01*
X124000Y178232D02*
Y192586D01*
Y178232D02*
Y178232D01*
X157801Y107139D02*
Y107139D01*
X158118Y107192D02*
X158985D01*
X158118D02*
X158118D01*
X123965Y174327D02*
Y177673D01*
X141500Y173147D02*
Y206369D01*
X133275Y219565D02*
X138000Y214840D01*
X128433Y221579D02*
X136571Y213440D01*
X141552Y172834D02*
X141552Y172834D01*
X151661Y122776D02*
X153130D01*
X196740Y183000D02*
X202089D01*
X196474Y118401D02*
Y120587D01*
X191039Y122599D02*
X194026D01*
X192733Y163642D02*
X193513Y164421D01*
X194720Y165857D02*
X195535Y166673D01*
X194720Y165857D02*
X194720Y165857D01*
X194353Y165414D02*
X194655Y165785D01*
X191592Y162500D02*
X192568Y163642D01*
X192733D01*
X144401Y168461D02*
X145500Y167467D01*
X139650Y172215D02*
X139650Y172215D01*
X140024Y164914D02*
Y166138D01*
X138276Y167638D02*
X138524D01*
X134089Y174816D02*
Y174827D01*
X143242Y164627D02*
X143414Y164542D01*
X134059Y176000D02*
X134089Y174827D01*
X139663Y172177D02*
X139663Y172177D01*
X143670Y164362D02*
X143676Y164357D01*
X144421Y163612D01*
X128433Y230019D02*
Y231421D01*
X128725Y229314D02*
X131861Y226177D01*
X132984Y220270D02*
Y224630D01*
X144391Y168576D02*
X144401Y168461D01*
X144421Y163526D02*
X145500Y162533D01*
X144421Y163526D02*
Y163612D01*
X132500Y183701D02*
Y190000D01*
X128941Y176000D02*
X129571Y176630D01*
X197467Y111000D02*
Y119500D01*
X196474Y118401D02*
X197467Y119500D01*
X195555Y121506D02*
X196470Y120591D01*
D16*
X154102Y199952D02*
D03*
D17*
X146898D02*
D03*
X150500Y193048D02*
D03*
D18*
X196740Y183000D02*
D03*
X191806D02*
D03*
X197467Y119500D02*
D03*
X192533D02*
D03*
X197467Y111000D02*
D03*
X192533D02*
D03*
X196740Y191481D02*
D03*
X191806D02*
D03*
D19*
X191592Y162500D02*
D03*
X196710D02*
D03*
X178441Y150500D02*
D03*
X183559D02*
D03*
X134059Y176000D02*
D03*
X128941D02*
D03*
D20*
X184818Y180779D02*
D03*
Y178220D02*
D03*
Y175661D02*
D03*
Y173102D02*
D03*
Y170543D02*
D03*
Y167984D02*
D03*
Y165425D02*
D03*
Y162866D02*
D03*
Y160307D02*
D03*
Y157748D02*
D03*
X158332D02*
D03*
Y160307D02*
D03*
Y162866D02*
D03*
Y165425D02*
D03*
Y167984D02*
D03*
Y170543D02*
D03*
Y173102D02*
D03*
Y175661D02*
D03*
Y178220D02*
D03*
D21*
Y180779D02*
D03*
D22*
X151661Y138524D02*
D03*
Y135374D02*
D03*
Y132224D02*
D03*
Y129075D02*
D03*
Y125925D02*
D03*
Y122776D02*
D03*
Y119626D02*
D03*
Y116476D02*
D03*
X184339D02*
D03*
Y119626D02*
D03*
Y122776D02*
D03*
Y125925D02*
D03*
Y129075D02*
D03*
Y132224D02*
D03*
Y135374D02*
D03*
Y138524D02*
D03*
D23*
X156976Y111161D02*
D03*
X160126D02*
D03*
X163276D02*
D03*
X166425D02*
D03*
X169575D02*
D03*
X172724D02*
D03*
X175874D02*
D03*
X179024D02*
D03*
Y143839D02*
D03*
X175874D02*
D03*
X172724D02*
D03*
X169575D02*
D03*
X166425D02*
D03*
X163276D02*
D03*
X160126D02*
D03*
X156976D02*
D03*
D24*
X192465Y168000D02*
D03*
X195535D02*
D03*
D25*
X145500Y167467D02*
D03*
Y162533D02*
D03*
D26*
X148000Y172941D02*
D03*
Y178059D02*
D03*
D27*
X139000Y135642D02*
D03*
Y119500D02*
D03*
D28*
X128366Y190000D02*
D03*
X132500D02*
D03*
D29*
X137500Y165035D02*
D03*
Y161965D02*
D03*
D39*
X201500Y279500D02*
D03*
X202000Y258000D02*
D03*
D40*
X128433Y231421D02*
D03*
D41*
Y221579D02*
D03*
D46*
X208000Y208000D02*
D03*
Y218000D02*
D03*
Y228000D02*
D03*
Y238000D02*
D03*
X160500Y237000D02*
D03*
X170500D02*
D03*
X180500D02*
D03*
Y227000D02*
D03*
X170500D02*
D03*
X160500D02*
D03*
D47*
X166000Y78000D02*
D03*
Y270500D02*
D03*
D48*
X160500Y201000D02*
D03*
X189000Y117000D02*
D03*
X162832Y158040D02*
D03*
X130000Y165000D02*
D03*
X178414Y128907D02*
D03*
X158500Y131000D02*
D03*
X183739Y184128D02*
D03*
X179500Y178500D02*
D03*
X177500Y162500D02*
D03*
X162000Y153000D02*
D03*
X165000Y166000D02*
D03*
X162527Y161516D02*
D03*
X150000Y158000D02*
D03*
X189500Y136000D02*
D03*
X193000Y138500D02*
D03*
X182000Y146000D02*
D03*
X178000Y135000D02*
D03*
X146500Y187000D02*
D03*
X196000Y175500D02*
D03*
D49*
X169000Y168000D02*
D03*
X171000Y172500D02*
D03*
X147500Y153500D02*
D03*
X152500Y155000D02*
D03*
X155000Y153000D02*
D03*
X148500Y211500D02*
D03*
X197500Y218000D02*
D03*
X208000Y198000D02*
D03*
X208500Y164500D02*
D03*
X174334Y148312D02*
D03*
X171000Y153000D02*
D03*
X166500Y152500D02*
D03*
X174500Y153300D02*
D03*
X173000Y128000D02*
D03*
X169500Y134000D02*
D03*
X128000Y205000D02*
D03*
X187016Y231300D02*
D03*
X184000Y210000D02*
D03*
X191500Y175500D02*
D03*
X174500Y210000D02*
D03*
X202923Y176309D02*
D03*
X188000Y153500D02*
D03*
X151000Y149000D02*
D03*
X184000Y199000D02*
D03*
X159000Y210500D02*
D03*
X135000Y204500D02*
D03*
X178000Y119500D02*
D03*
X158500Y125000D02*
D03*
M02*
