G04*
G04 #@! TF.GenerationSoftware,Altium Limited,Altium Designer,21.7.2 (23)*
G04*
G04 Layer_Physical_Order=2*
G04 Layer_Color=16711680*
%FSLAX25Y25*%
%MOIN*%
G70*
G04*
G04 #@! TF.SameCoordinates,2E4BA60E-D3AD-4A97-8ED7-AAC6BF20B9F0*
G04*
G04*
G04 #@! TF.FilePolarity,Positive*
G04*
G01*
G75*
%ADD14C,0.01000*%
%ADD38C,0.06102*%
%ADD39R,0.06102X0.06102*%
%ADD43C,0.43700*%
%ADD44C,0.06000*%
%ADD45C,0.02400*%
%ADD46C,0.05000*%
G36*
X215000Y246645D02*
Y101000D01*
X116000D01*
Y246500D01*
X214646Y246998D01*
X215000Y246645D01*
D02*
G37*
%LPC*%
G36*
X208461Y241500D02*
X207539D01*
X206649Y241262D01*
X205851Y240801D01*
X205199Y240149D01*
X204738Y239351D01*
X204500Y238461D01*
Y237539D01*
X204738Y236649D01*
X205199Y235851D01*
X205851Y235199D01*
X206649Y234738D01*
X207539Y234500D01*
X208461D01*
X209351Y234738D01*
X210149Y235199D01*
X210801Y235851D01*
X211262Y236649D01*
X211500Y237539D01*
Y238461D01*
X211262Y239351D01*
X210801Y240149D01*
X210149Y240801D01*
X209351Y241262D01*
X208461Y241500D01*
D02*
G37*
G36*
X181027Y241000D02*
X179973D01*
X178956Y240727D01*
X178044Y240201D01*
X177299Y239456D01*
X176773Y238544D01*
X176500Y237527D01*
Y236473D01*
X176773Y235456D01*
X177299Y234544D01*
X178044Y233799D01*
X178956Y233273D01*
X179973Y233000D01*
X181027D01*
X182044Y233273D01*
X182956Y233799D01*
X183701Y234544D01*
X184227Y235456D01*
X184500Y236473D01*
Y237527D01*
X184227Y238544D01*
X183701Y239456D01*
X182956Y240201D01*
X182044Y240727D01*
X181027Y241000D01*
D02*
G37*
G36*
X171027D02*
X169973D01*
X168956Y240727D01*
X168044Y240201D01*
X167299Y239456D01*
X166773Y238544D01*
X166500Y237527D01*
Y236473D01*
X166773Y235456D01*
X167299Y234544D01*
X168044Y233799D01*
X168956Y233273D01*
X169973Y233000D01*
X171027D01*
X172044Y233273D01*
X172956Y233799D01*
X173701Y234544D01*
X174227Y235456D01*
X174500Y236473D01*
Y237527D01*
X174227Y238544D01*
X173701Y239456D01*
X172956Y240201D01*
X172044Y240727D01*
X171027Y241000D01*
D02*
G37*
G36*
X161027D02*
X159973D01*
X158956Y240727D01*
X158044Y240201D01*
X157299Y239456D01*
X156773Y238544D01*
X156500Y237527D01*
Y236473D01*
X156773Y235456D01*
X157299Y234544D01*
X158044Y233799D01*
X158956Y233273D01*
X159973Y233000D01*
X161027D01*
X162044Y233273D01*
X162956Y233799D01*
X163701Y234544D01*
X164227Y235456D01*
X164500Y236473D01*
Y237527D01*
X164227Y238544D01*
X163701Y239456D01*
X162956Y240201D01*
X162044Y240727D01*
X161027Y241000D01*
D02*
G37*
G36*
Y231000D02*
X161000D01*
Y227500D01*
X164500D01*
Y227527D01*
X164227Y228544D01*
X163701Y229456D01*
X162956Y230201D01*
X162044Y230727D01*
X161027Y231000D01*
D02*
G37*
G36*
X160000D02*
X159973D01*
X158956Y230727D01*
X158044Y230201D01*
X157299Y229456D01*
X156773Y228544D01*
X156500Y227527D01*
Y227500D01*
X160000D01*
Y231000D01*
D02*
G37*
G36*
X128966Y235472D02*
X127900D01*
X126869Y235196D01*
X125945Y234663D01*
X125191Y233909D01*
X124658Y232985D01*
X124382Y231955D01*
Y230888D01*
X124658Y229857D01*
X125191Y228934D01*
X125945Y228179D01*
X126869Y227646D01*
X127900Y227370D01*
X128966D01*
X129997Y227646D01*
X130921Y228179D01*
X131675Y228934D01*
X132208Y229857D01*
X132484Y230888D01*
Y231955D01*
X132208Y232985D01*
X131675Y233909D01*
X130921Y234663D01*
X129997Y235196D01*
X128966Y235472D01*
D02*
G37*
G36*
X208461Y231500D02*
X207539D01*
X206649Y231261D01*
X205851Y230801D01*
X205199Y230149D01*
X204738Y229351D01*
X204500Y228461D01*
Y227539D01*
X204738Y226649D01*
X205199Y225851D01*
X205851Y225199D01*
X206649Y224739D01*
X207539Y224500D01*
X208461D01*
X209351Y224739D01*
X210149Y225199D01*
X210801Y225851D01*
X211262Y226649D01*
X211500Y227539D01*
Y228461D01*
X211262Y229351D01*
X210801Y230149D01*
X210149Y230801D01*
X209351Y231261D01*
X208461Y231500D01*
D02*
G37*
G36*
X181027Y231000D02*
X179973D01*
X178956Y230727D01*
X178044Y230201D01*
X177299Y229456D01*
X176773Y228544D01*
X176500Y227527D01*
Y226473D01*
X176773Y225456D01*
X177299Y224544D01*
X178044Y223799D01*
X178956Y223273D01*
X179973Y223000D01*
X181027D01*
X182044Y223273D01*
X182956Y223799D01*
X183701Y224544D01*
X184227Y225456D01*
X184500Y226473D01*
Y227527D01*
X184227Y228544D01*
X183701Y229456D01*
X182956Y230201D01*
X182044Y230727D01*
X181027Y231000D01*
D02*
G37*
G36*
X171027D02*
X169973D01*
X168956Y230727D01*
X168044Y230201D01*
X167299Y229456D01*
X166773Y228544D01*
X166500Y227527D01*
Y226473D01*
X166773Y225456D01*
X167299Y224544D01*
X168044Y223799D01*
X168956Y223273D01*
X169973Y223000D01*
X171027D01*
X172044Y223273D01*
X172956Y223799D01*
X173701Y224544D01*
X174227Y225456D01*
X174500Y226473D01*
Y227527D01*
X174227Y228544D01*
X173701Y229456D01*
X172956Y230201D01*
X172044Y230727D01*
X171027Y231000D01*
D02*
G37*
G36*
X164500Y226500D02*
X161000D01*
Y223000D01*
X161027D01*
X162044Y223273D01*
X162956Y223799D01*
X163701Y224544D01*
X164227Y225456D01*
X164500Y226473D01*
Y226500D01*
D02*
G37*
G36*
X160000D02*
X156500D01*
Y226473D01*
X156773Y225456D01*
X157299Y224544D01*
X158044Y223799D01*
X158956Y223273D01*
X159973Y223000D01*
X160000D01*
Y226500D01*
D02*
G37*
G36*
X155000Y222174D02*
Y220500D01*
X156674D01*
X156365Y221246D01*
X155746Y221865D01*
X155000Y222174D01*
D02*
G37*
G36*
X154000D02*
X153254Y221865D01*
X152635Y221246D01*
X152326Y220500D01*
X154000D01*
Y222174D01*
D02*
G37*
G36*
X156674Y219500D02*
X155000D01*
Y217826D01*
X155746Y218135D01*
X156365Y218754D01*
X156674Y219500D01*
D02*
G37*
G36*
X154000D02*
X152326D01*
X152635Y218754D01*
X153254Y218135D01*
X154000Y217826D01*
Y219500D01*
D02*
G37*
G36*
X132484Y225630D02*
X124382D01*
Y217527D01*
X132484D01*
Y225630D01*
D02*
G37*
G36*
X208461Y221500D02*
X207539D01*
X206649Y221262D01*
X205851Y220801D01*
X205199Y220149D01*
X204738Y219351D01*
X204500Y218461D01*
Y217539D01*
X204738Y216649D01*
X205199Y215851D01*
X205851Y215199D01*
X206649Y214738D01*
X207539Y214500D01*
X208461D01*
X209351Y214738D01*
X210149Y215199D01*
X210801Y215851D01*
X211262Y216649D01*
X211500Y217539D01*
Y218461D01*
X211262Y219351D01*
X210801Y220149D01*
X210149Y220801D01*
X209351Y221262D01*
X208461Y221500D01*
D02*
G37*
G36*
X150938Y213700D02*
X150062D01*
X149254Y213365D01*
X148918Y213029D01*
X138642D01*
Y213036D01*
X136838Y212894D01*
X135078Y212471D01*
X133405Y211778D01*
X131862Y210833D01*
X130485Y209657D01*
X130490Y209652D01*
X128037Y207200D01*
X127562D01*
X126754Y206865D01*
X126135Y206246D01*
X125800Y205438D01*
Y204562D01*
X126135Y203754D01*
X126754Y203135D01*
X127562Y202800D01*
X128438D01*
X129246Y203135D01*
X129865Y203754D01*
X130200Y204562D01*
Y205037D01*
X132652Y207490D01*
X132691Y207547D01*
X133925Y208560D01*
X135393Y209345D01*
X136986Y209828D01*
X138574Y209984D01*
X138642Y209971D01*
X148918D01*
X149254Y209635D01*
X150062Y209300D01*
X150938D01*
X151746Y209635D01*
X152027Y209915D01*
X152617Y209798D01*
X152635Y209754D01*
X153254Y209135D01*
X154062Y208800D01*
X154444D01*
X154623Y208300D01*
X153575Y207440D01*
X152107Y206655D01*
X150514Y206172D01*
X148926Y206016D01*
X148858Y206029D01*
X136582D01*
X136246Y206365D01*
X135438Y206700D01*
X134562D01*
X133754Y206365D01*
X133135Y205746D01*
X132800Y204938D01*
Y204062D01*
X133135Y203254D01*
X133754Y202635D01*
X134562Y202300D01*
X135438D01*
X136246Y202635D01*
X136582Y202971D01*
X148858D01*
Y202964D01*
X150662Y203106D01*
X152422Y203529D01*
X154095Y204222D01*
X155638Y205168D01*
X157015Y206343D01*
X157010Y206347D01*
X158963Y208300D01*
X159438D01*
X160246Y208635D01*
X160865Y209254D01*
X161200Y210062D01*
Y210938D01*
X160865Y211746D01*
X160246Y212365D01*
X159438Y212700D01*
X158562D01*
X157754Y212365D01*
X157135Y211746D01*
X157124Y211720D01*
X156583D01*
X156365Y212246D01*
X155746Y212865D01*
X155000Y213174D01*
Y211000D01*
X154000D01*
Y213174D01*
X153254Y212865D01*
X152973Y212584D01*
X152383Y212702D01*
X152365Y212746D01*
X151746Y213365D01*
X150938Y213700D01*
D02*
G37*
G36*
X187454Y233500D02*
X186579D01*
X185770Y233165D01*
X185151Y232546D01*
X184816Y231738D01*
Y230863D01*
X185151Y230054D01*
X185487Y229718D01*
Y212278D01*
X184987Y211972D01*
X184438Y212200D01*
X183562D01*
X182754Y211865D01*
X182135Y211246D01*
X181800Y210438D01*
Y209562D01*
X182135Y208754D01*
X182471Y208418D01*
Y200582D01*
X182135Y200246D01*
X181800Y199438D01*
Y198562D01*
X182135Y197754D01*
X182471Y197418D01*
Y195091D01*
X181971Y194991D01*
X181865Y195246D01*
X181246Y195865D01*
X180500Y196174D01*
Y194000D01*
X180000D01*
Y193500D01*
X177826D01*
X178040Y192983D01*
X177754Y192865D01*
X177135Y192246D01*
X176826Y191500D01*
X181174D01*
X180960Y192016D01*
X181246Y192135D01*
X181865Y192754D01*
X181971Y193009D01*
X182471Y192909D01*
Y157142D01*
X182464D01*
X182606Y155338D01*
X183029Y153577D01*
X183722Y151905D01*
X184668Y150362D01*
X185843Y148985D01*
X185847Y148990D01*
X187800Y147037D01*
Y146562D01*
X188135Y145754D01*
X188754Y145135D01*
X189562Y144800D01*
X190438D01*
X191246Y145135D01*
X191865Y145754D01*
X192200Y146562D01*
Y147438D01*
X191865Y148246D01*
X191246Y148865D01*
X190438Y149200D01*
X189963D01*
X188363Y150800D01*
X188393Y151005D01*
X188531Y151339D01*
X189246Y151635D01*
X189850Y152239D01*
X190468D01*
X191053Y152355D01*
X191549Y152686D01*
X191833Y152971D01*
X192358D01*
Y152964D01*
X194162Y153106D01*
X195923Y153529D01*
X197595Y154222D01*
X199138Y155167D01*
X200515Y156343D01*
X200510Y156348D01*
X204081Y159919D01*
X204413Y160415D01*
X204529Y161000D01*
Y174804D01*
X204789Y175063D01*
X205123Y175872D01*
Y176747D01*
X204789Y177556D01*
X204170Y178174D01*
X203361Y178509D01*
X202486D01*
X201677Y178174D01*
X201058Y177556D01*
X200724Y176747D01*
Y175872D01*
X201058Y175063D01*
X201471Y174651D01*
Y161634D01*
X198347Y158510D01*
X198309Y158453D01*
X197075Y157440D01*
X195607Y156655D01*
X194014Y156172D01*
X192426Y156016D01*
X192358Y156029D01*
X191200D01*
X190615Y155913D01*
X190119Y155581D01*
X189834Y155297D01*
X189314D01*
X189246Y155365D01*
X188438Y155700D01*
X187562D01*
X186754Y155365D01*
X186353Y154964D01*
X185787Y155106D01*
X185672Y155486D01*
X185516Y157074D01*
X185529Y157142D01*
Y180568D01*
X186029Y180627D01*
X186045Y180561D01*
X186738Y178889D01*
X187684Y177346D01*
X188859Y175969D01*
X188864Y175973D01*
X189300Y175537D01*
Y175062D01*
X189635Y174254D01*
X190254Y173635D01*
X191062Y173300D01*
X191938D01*
X192746Y173635D01*
X193365Y174254D01*
X193700Y175062D01*
Y175938D01*
X193365Y176746D01*
X192746Y177365D01*
X191938Y177700D01*
X191463D01*
X191027Y178136D01*
X190969Y178175D01*
X189956Y179409D01*
X189172Y180877D01*
X188689Y182469D01*
X188532Y184058D01*
X188546Y184126D01*
Y229718D01*
X188881Y230054D01*
X189216Y230863D01*
Y231738D01*
X188881Y232546D01*
X188262Y233165D01*
X187454Y233500D01*
D02*
G37*
G36*
X208461Y211500D02*
X207539D01*
X206649Y211262D01*
X205851Y210801D01*
X205199Y210149D01*
X204738Y209351D01*
X204500Y208461D01*
Y207539D01*
X204738Y206649D01*
X205199Y205851D01*
X205851Y205199D01*
X206649Y204738D01*
X207539Y204500D01*
X208461D01*
X209351Y204738D01*
X210149Y205199D01*
X210801Y205851D01*
X211262Y206649D01*
X211500Y207539D01*
Y208461D01*
X211262Y209351D01*
X210801Y210149D01*
X210149Y210801D01*
X209351Y211262D01*
X208461Y211500D01*
D02*
G37*
G36*
X179500Y196174D02*
X178754Y195865D01*
X178135Y195246D01*
X177826Y194500D01*
X179500D01*
Y196174D01*
D02*
G37*
G36*
X181174Y190500D02*
X179500D01*
Y188826D01*
X180246Y189135D01*
X180865Y189754D01*
X181174Y190500D01*
D02*
G37*
G36*
X178500D02*
X176826D01*
X177135Y189754D01*
X177754Y189135D01*
X178500Y188826D01*
Y190500D01*
D02*
G37*
G36*
X129000Y188174D02*
Y186500D01*
X130674D01*
X130365Y187246D01*
X129746Y187865D01*
X129000Y188174D01*
D02*
G37*
G36*
X128000D02*
X127254Y187865D01*
X126635Y187246D01*
X126326Y186500D01*
X128000D01*
Y188174D01*
D02*
G37*
G36*
X130674Y185500D02*
X129000D01*
Y183826D01*
X129746Y184135D01*
X130365Y184754D01*
X130674Y185500D01*
D02*
G37*
G36*
X128000D02*
X126326D01*
X126635Y184754D01*
X127254Y184135D01*
X128000Y183826D01*
Y185500D01*
D02*
G37*
G36*
X179500Y184674D02*
Y183000D01*
X181174D01*
X180865Y183746D01*
X180246Y184365D01*
X179500Y184674D01*
D02*
G37*
G36*
X178500D02*
X177754Y184365D01*
X177135Y183746D01*
X176826Y183000D01*
X178500D01*
Y184674D01*
D02*
G37*
G36*
X180674Y179500D02*
X179000D01*
Y177826D01*
X179746Y178135D01*
X180365Y178754D01*
X180674Y179500D01*
D02*
G37*
G36*
X174938Y212200D02*
X174062D01*
X173254Y211865D01*
X172635Y211246D01*
X172300Y210438D01*
Y209562D01*
X172635Y208754D01*
X172971Y208418D01*
Y174348D01*
X172471Y174141D01*
X172246Y174365D01*
X171438Y174700D01*
X170562D01*
X169754Y174365D01*
X169135Y173746D01*
X168800Y172938D01*
Y172062D01*
X169135Y171254D01*
X169471Y170918D01*
Y170222D01*
X169438Y170200D01*
X168562D01*
X167754Y169865D01*
X167135Y169246D01*
X166800Y168438D01*
Y167749D01*
X166651Y167567D01*
X165827Y166025D01*
X165719Y165823D01*
X165719Y165823D01*
X165629Y165561D01*
X165629Y165561D01*
X165453Y164675D01*
X165465Y164675D01*
X165471Y164668D01*
Y159142D01*
X165479Y159100D01*
X165353Y157502D01*
X165056Y156266D01*
X165057Y156266D01*
X165086Y156251D01*
X164953Y155583D01*
X164965Y155583D01*
X164971Y155576D01*
Y154082D01*
X164635Y153746D01*
X164300Y152938D01*
Y152062D01*
X164635Y151254D01*
X165254Y150635D01*
X166062Y150300D01*
X166938D01*
X167746Y150635D01*
X168365Y151254D01*
X168583Y151780D01*
X169124D01*
X169135Y151754D01*
X169754Y151135D01*
X170562Y150800D01*
X171438D01*
X171800Y150950D01*
X172300Y150616D01*
Y150562D01*
X172635Y149754D01*
X173254Y149135D01*
X174062Y148800D01*
X174938D01*
X175746Y149135D01*
X176365Y149754D01*
X176700Y150562D01*
Y151438D01*
X176365Y152246D01*
X176029Y152582D01*
Y164652D01*
X176529Y164859D01*
X176754Y164635D01*
X177500Y164326D01*
Y166500D01*
Y168674D01*
X176754Y168365D01*
X176529Y168141D01*
X176029Y168348D01*
Y172409D01*
X176529Y172509D01*
X176635Y172254D01*
X177254Y171635D01*
X178000Y171326D01*
Y173500D01*
Y175674D01*
X177254Y175365D01*
X176635Y174746D01*
X176529Y174491D01*
X176029Y174591D01*
Y178909D01*
X176529Y179009D01*
X176635Y178754D01*
X177254Y178135D01*
X178000Y177826D01*
Y180000D01*
X178500D01*
Y180500D01*
X180674D01*
X180509Y180898D01*
X180865Y181254D01*
X181174Y182000D01*
X176826D01*
X176991Y181602D01*
X176635Y181246D01*
X176529Y180991D01*
X176029Y181091D01*
Y208418D01*
X176365Y208754D01*
X176700Y209562D01*
Y210438D01*
X176365Y211246D01*
X175746Y211865D01*
X174938Y212200D01*
D02*
G37*
G36*
X179000Y175674D02*
Y174000D01*
X180674D01*
X180365Y174746D01*
X179746Y175365D01*
X179000Y175674D01*
D02*
G37*
G36*
X180674Y173000D02*
X179000D01*
Y171326D01*
X179746Y171635D01*
X180365Y172254D01*
X180674Y173000D01*
D02*
G37*
G36*
X190500Y172174D02*
Y170500D01*
X192174D01*
X191865Y171246D01*
X191246Y171865D01*
X190500Y172174D01*
D02*
G37*
G36*
X189500D02*
X188754Y171865D01*
X188135Y171246D01*
X187826Y170500D01*
X189500D01*
Y172174D01*
D02*
G37*
G36*
X164500Y170674D02*
Y169000D01*
X166174D01*
X165865Y169746D01*
X165246Y170365D01*
X164500Y170674D01*
D02*
G37*
G36*
X163500D02*
X162754Y170365D01*
X162135Y169746D01*
X161826Y169000D01*
X163500D01*
Y170674D01*
D02*
G37*
G36*
X192174Y169500D02*
X190500D01*
Y167826D01*
X191246Y168135D01*
X191865Y168754D01*
X192174Y169500D01*
D02*
G37*
G36*
X189500D02*
X187826D01*
X188135Y168754D01*
X188754Y168135D01*
X189500Y167826D01*
Y169500D01*
D02*
G37*
G36*
X178500Y168674D02*
Y167000D01*
X180174D01*
X179865Y167746D01*
X179246Y168365D01*
X178500Y168674D01*
D02*
G37*
G36*
X166174Y168000D02*
X164500D01*
Y166326D01*
X165246Y166635D01*
X165865Y167254D01*
X166174Y168000D01*
D02*
G37*
G36*
X163500D02*
X161826D01*
X162135Y167254D01*
X162754Y166635D01*
X163500Y166326D01*
Y168000D01*
D02*
G37*
G36*
X134000Y167174D02*
Y165500D01*
X135674D01*
X135365Y166246D01*
X134746Y166865D01*
X134000Y167174D01*
D02*
G37*
G36*
X133000D02*
X132254Y166865D01*
X131635Y166246D01*
X131326Y165500D01*
X133000D01*
Y167174D01*
D02*
G37*
G36*
X180174Y166000D02*
X178500D01*
Y164326D01*
X179246Y164635D01*
X179865Y165254D01*
X180174Y166000D01*
D02*
G37*
G36*
X135674Y164500D02*
X134000D01*
Y162826D01*
X134746Y163135D01*
X135365Y163754D01*
X135674Y164500D01*
D02*
G37*
G36*
X133000D02*
X131326D01*
X131635Y163754D01*
X132254Y163135D01*
X133000Y162826D01*
Y164500D01*
D02*
G37*
G36*
X150938Y160200D02*
X150062D01*
X149254Y159865D01*
X148636Y159247D01*
X144678Y158605D01*
X144581Y158703D01*
X143772Y159038D01*
X142897D01*
X142088Y158703D01*
X141470Y158084D01*
X141135Y157275D01*
Y156400D01*
X141470Y155591D01*
X142088Y154973D01*
X142897Y154638D01*
X143772D01*
X144581Y154973D01*
X145199Y155591D01*
X149156Y156233D01*
X149254Y156135D01*
X150062Y155800D01*
X150938D01*
X151746Y156135D01*
X152365Y156754D01*
X152700Y157562D01*
Y158438D01*
X152365Y159246D01*
X151746Y159865D01*
X150938Y160200D01*
D02*
G37*
G36*
X150438Y185700D02*
X149562D01*
X148754Y185365D01*
X148135Y184746D01*
X147800Y183938D01*
Y183062D01*
X148135Y182254D01*
X148754Y181635D01*
X149562Y181300D01*
X150037D01*
X151990Y179348D01*
X152047Y179309D01*
X153060Y178075D01*
X153845Y176607D01*
X154328Y175014D01*
X154432Y173953D01*
X153919Y173439D01*
X153587Y172943D01*
X153471Y172358D01*
Y154582D01*
X153135Y154246D01*
X152800Y153438D01*
Y152963D01*
X151037Y151200D01*
X150562D01*
X149754Y150865D01*
X149135Y150246D01*
X148800Y149438D01*
Y148562D01*
X149135Y147754D01*
X149754Y147135D01*
X150562Y146800D01*
X151438D01*
X152246Y147135D01*
X152865Y147754D01*
X153200Y148562D01*
Y149037D01*
X154963Y150800D01*
X155438D01*
X156246Y151135D01*
X156865Y151754D01*
X157200Y152562D01*
Y153438D01*
X156865Y154246D01*
X156529Y154582D01*
Y171724D01*
X157081Y172276D01*
X157413Y172773D01*
X157529Y173358D01*
X157536D01*
X157394Y175162D01*
X156971Y176923D01*
X156278Y178595D01*
X155333Y180138D01*
X154157Y181515D01*
X154153Y181510D01*
X152200Y183463D01*
Y183938D01*
X151865Y184746D01*
X151246Y185365D01*
X150438Y185700D01*
D02*
G37*
G36*
X158000Y133174D02*
X157254Y132865D01*
X156635Y132246D01*
X156326Y131500D01*
X158000D01*
Y133174D01*
D02*
G37*
G36*
X163500Y132174D02*
Y130500D01*
X165174D01*
X164865Y131246D01*
X164246Y131865D01*
X163500Y132174D01*
D02*
G37*
G36*
X178500Y131174D02*
Y129500D01*
X180174D01*
X179865Y130246D01*
X179246Y130865D01*
X178500Y131174D01*
D02*
G37*
G36*
X177500D02*
X176754Y130865D01*
X176135Y130246D01*
X175826Y129500D01*
X177500D01*
Y131174D01*
D02*
G37*
G36*
X198500Y130674D02*
Y129000D01*
X200174D01*
X199865Y129746D01*
X199246Y130365D01*
X198500Y130674D01*
D02*
G37*
G36*
X197500D02*
X196754Y130365D01*
X196135Y129746D01*
X195826Y129000D01*
X197500D01*
Y130674D01*
D02*
G37*
G36*
X158000Y130500D02*
X156326D01*
X156635Y129754D01*
X157254Y129135D01*
X158000Y128826D01*
Y130500D01*
D02*
G37*
G36*
X165174Y129500D02*
X163500D01*
Y127826D01*
X164246Y128135D01*
X164865Y128754D01*
X165174Y129500D01*
D02*
G37*
G36*
X159000Y133174D02*
Y131000D01*
Y128826D01*
X159746Y129135D01*
X160300Y129689D01*
X160630Y129628D01*
X160808Y129543D01*
X161135Y128754D01*
X161754Y128135D01*
X162500Y127826D01*
Y130000D01*
Y132174D01*
X161754Y131865D01*
X161200Y131311D01*
X160870Y131372D01*
X160692Y131457D01*
X160365Y132246D01*
X159746Y132865D01*
X159000Y133174D01*
D02*
G37*
G36*
X180174Y128500D02*
X178500D01*
Y126826D01*
X179246Y127135D01*
X179865Y127754D01*
X180174Y128500D01*
D02*
G37*
G36*
X177500D02*
X175826D01*
X176135Y127754D01*
X176754Y127135D01*
X177500Y126826D01*
Y128500D01*
D02*
G37*
G36*
X200174Y128000D02*
X198500D01*
Y126326D01*
X199246Y126635D01*
X199865Y127254D01*
X200174Y128000D01*
D02*
G37*
G36*
X197500D02*
X195826D01*
X196135Y127254D01*
X196754Y126635D01*
X197500Y126326D01*
Y128000D01*
D02*
G37*
G36*
X158938Y127200D02*
X158062D01*
X157254Y126865D01*
X156635Y126246D01*
X156300Y125438D01*
Y124562D01*
X156635Y123754D01*
X157254Y123135D01*
X158062Y122800D01*
X158938D01*
X159746Y123135D01*
X160082Y123471D01*
X168358D01*
X168426Y123484D01*
X170014Y123328D01*
X171607Y122845D01*
X173075Y122060D01*
X174309Y121047D01*
X174347Y120990D01*
X175800Y119537D01*
Y119062D01*
X176135Y118254D01*
X176754Y117635D01*
X177562Y117300D01*
X178438D01*
X179246Y117635D01*
X179865Y118254D01*
X180200Y119062D01*
Y119938D01*
X179865Y120746D01*
X179246Y121365D01*
X178438Y121700D01*
X177963D01*
X176510Y123152D01*
X176515Y123157D01*
X175138Y124332D01*
X173595Y125278D01*
X171923Y125971D01*
X170162Y126393D01*
X168358Y126536D01*
Y126529D01*
X160082D01*
X159746Y126865D01*
X158938Y127200D01*
D02*
G37*
G36*
X188696Y118676D02*
X187950Y118367D01*
X187331Y117748D01*
X187022Y117001D01*
X188696D01*
Y118676D01*
D02*
G37*
G36*
X193500Y117174D02*
Y115500D01*
X195174D01*
X194865Y116246D01*
X194246Y116865D01*
X193500Y117174D01*
D02*
G37*
G36*
X188696Y116001D02*
X187022D01*
X187331Y115255D01*
X187950Y114636D01*
X188696Y114327D01*
Y116001D01*
D02*
G37*
G36*
X195174Y114500D02*
X193500D01*
Y112826D01*
X194246Y113135D01*
X194865Y113754D01*
X195174Y114500D01*
D02*
G37*
G36*
X189696Y118676D02*
Y116501D01*
Y114327D01*
X190300Y114577D01*
X190551Y114570D01*
X190881Y114368D01*
X191135Y113754D01*
X191754Y113135D01*
X192500Y112826D01*
Y115000D01*
Y117174D01*
X191896Y116924D01*
X191645Y116932D01*
X191315Y117134D01*
X191061Y117748D01*
X190442Y118367D01*
X189696Y118676D01*
D02*
G37*
%LPD*%
D14*
X148858Y204500D02*
X149838Y204548D01*
X150809Y204692D01*
X151761Y204931D01*
X152685Y205261D01*
X153572Y205681D01*
X154414Y206185D01*
X155202Y206770D01*
X155929Y207429D01*
X138642Y211500D02*
X137662Y211452D01*
X136691Y211308D01*
X135739Y211069D01*
X134815Y210739D01*
X133928Y210319D01*
X133086Y209815D01*
X132298Y209230D01*
X131571Y208571D01*
X187016Y184126D02*
X187064Y183146D01*
X187208Y182175D01*
X187447Y181223D01*
X187777Y180299D01*
X188197Y179412D01*
X188701Y178570D01*
X189286Y177782D01*
X189945Y177055D01*
X171188Y166418D02*
X171000Y165839D01*
Y170161D02*
X171187Y169583D01*
X171188Y166418D02*
X171642Y167441D01*
X171641Y168560D01*
X171187Y169583D01*
X169000Y168000D02*
X168401Y167335D01*
X167875Y166611D01*
X167428Y165835D01*
X167065Y165018D01*
X166537Y155842D02*
X166500Y155576D01*
X167065Y165018D02*
X167000Y164668D01*
X166537Y155842D02*
X166794Y156926D01*
X166948Y158029D01*
X167000Y159142D01*
X203000Y176125D02*
X202923Y176309D01*
X184000Y157142D02*
X184048Y156162D01*
X184192Y155191D01*
X184431Y154239D01*
X184761Y153315D01*
X185181Y152428D01*
X185685Y151586D01*
X186270Y150798D01*
X186929Y150071D01*
X156000Y173358D02*
X155952Y174338D01*
X155808Y175309D01*
X155569Y176261D01*
X155239Y177185D01*
X154819Y178072D01*
X154315Y178914D01*
X153730Y179702D01*
X153071Y180429D01*
X175429Y122071D02*
X174702Y122730D01*
X173914Y123315D01*
X173072Y123819D01*
X172185Y124239D01*
X171261Y124569D01*
X170309Y124808D01*
X169338Y124952D01*
X168358Y125000D01*
X192358Y154500D02*
X193338Y154548D01*
X194309Y154692D01*
X195261Y154931D01*
X196185Y155261D01*
X197072Y155681D01*
X197914Y156185D01*
X198702Y156770D01*
X199429Y157429D01*
X143335Y156838D02*
X150500Y158000D01*
X155929Y207429D02*
X159000Y210500D01*
X128000Y205000D02*
X131571Y208571D01*
X187016Y184126D02*
Y231300D01*
X189945Y177055D02*
X191500Y175500D01*
X184000Y199000D02*
Y210000D01*
X174500Y151000D02*
Y210000D01*
X171000Y170161D02*
Y172500D01*
Y170161D02*
Y170161D01*
Y153000D02*
Y165839D01*
X166500Y152500D02*
Y155576D01*
X167000Y159142D02*
Y164668D01*
X184000Y157142D02*
Y199000D01*
X155000Y153000D02*
Y172358D01*
X156000Y173358D01*
X138642Y211500D02*
X150500D01*
X203000Y161000D02*
Y176125D01*
X186929Y150071D02*
X190000Y147000D01*
X188268Y153768D02*
X190468D01*
X191200Y154500D02*
X192358D01*
X188000Y153500D02*
X188268Y153768D01*
X190468D02*
X191200Y154500D01*
X151000Y149000D02*
X155000Y153000D01*
X150000Y183500D02*
X153071Y180429D01*
X135000Y204500D02*
X148858D01*
X175429Y122071D02*
X178000Y119500D01*
X158500Y125000D02*
X168358D01*
X199429Y157429D02*
X203000Y161000D01*
D38*
X128433Y231421D02*
D03*
D39*
Y221579D02*
D03*
D43*
X166000Y78000D02*
D03*
Y270500D02*
D03*
D44*
X160500Y227000D02*
D03*
X170500D02*
D03*
X180500D02*
D03*
Y237000D02*
D03*
X170500D02*
D03*
X160500D02*
D03*
D45*
X143335Y156838D02*
D03*
X133500Y165000D02*
D03*
X154500Y220000D02*
D03*
Y211000D02*
D03*
X164000Y168500D02*
D03*
X180000Y194000D02*
D03*
X179000Y191000D02*
D03*
X178500Y180000D02*
D03*
X179000Y182500D02*
D03*
X178500Y173500D02*
D03*
X198000Y128500D02*
D03*
X193000Y115000D02*
D03*
X189196Y116501D02*
D03*
X158500Y131000D02*
D03*
X163000Y130000D02*
D03*
X178000Y129000D02*
D03*
Y166500D02*
D03*
X190000Y170000D02*
D03*
X128500Y186000D02*
D03*
X128000Y205000D02*
D03*
X187016Y231300D02*
D03*
X184000Y210000D02*
D03*
X191500Y175500D02*
D03*
X174500Y210000D02*
D03*
Y151000D02*
D03*
X171000Y172500D02*
D03*
X169000Y168000D02*
D03*
X171000Y153000D02*
D03*
X166500Y152500D02*
D03*
X150500Y211500D02*
D03*
X202923Y176309D02*
D03*
X190000Y147000D02*
D03*
X188000Y153500D02*
D03*
X155000Y153000D02*
D03*
X151000Y149000D02*
D03*
X184000Y199000D02*
D03*
X150000Y183500D02*
D03*
X159000Y210500D02*
D03*
X135000Y204500D02*
D03*
X178000Y119500D02*
D03*
X158500Y125000D02*
D03*
X150500Y158000D02*
D03*
D46*
X208000Y238000D02*
D03*
Y228000D02*
D03*
Y218000D02*
D03*
Y208000D02*
D03*
M02*
