G04*
G04 #@! TF.GenerationSoftware,Altium Limited,Altium Designer,21.7.2 (23)*
G04*
G04 Layer_Color=16711935*
%FSLAX25Y25*%
%MOIN*%
G70*
G04*
G04 #@! TF.SameCoordinates,CE555B22-796A-421F-9DDC-EB8CF6B467D4*
G04*
G04*
G04 #@! TF.FilePolarity,Negative*
G04*
G01*
G75*
%ADD36C,0.04737*%
%ADD37C,0.06102*%
%ADD38R,0.06102X0.06102*%
%ADD39C,0.06800*%
%ADD40C,0.03200*%
%ADD41C,0.05800*%
D36*
X137000Y138500D02*
D03*
Y119287D02*
D03*
D37*
X128433Y231421D02*
D03*
D38*
Y221579D02*
D03*
D39*
X160500Y227000D02*
D03*
X170500D02*
D03*
X180500D02*
D03*
Y237000D02*
D03*
X170500D02*
D03*
X160500D02*
D03*
D40*
X187016Y231300D02*
D03*
X184000Y210000D02*
D03*
X191500Y175500D02*
D03*
X177500Y173000D02*
D03*
Y167500D02*
D03*
X174500Y210000D02*
D03*
Y151000D02*
D03*
X171000Y172500D02*
D03*
X169000Y168000D02*
D03*
X164993Y167003D02*
D03*
X171000Y153000D02*
D03*
X166500Y152500D02*
D03*
X132500Y164500D02*
D03*
X150500Y211500D02*
D03*
X202923Y176309D02*
D03*
X190000Y147000D02*
D03*
X188000Y153500D02*
D03*
X155000Y153000D02*
D03*
X151000Y149000D02*
D03*
X178000Y129000D02*
D03*
X158000Y131500D02*
D03*
X184000Y199000D02*
D03*
X150000Y183500D02*
D03*
X128000Y205000D02*
D03*
X159000Y210500D02*
D03*
X135000Y204500D02*
D03*
X178000Y119500D02*
D03*
X158500Y125000D02*
D03*
X150500Y158000D02*
D03*
D41*
X208000Y238000D02*
D03*
Y228000D02*
D03*
Y218000D02*
D03*
Y208000D02*
D03*
M02*
